<?xml version="1.0" encoding="utf-8"?>
<!-- Generator: Adobe Illustrator 27.5.0, SVG Export Plug-In . SVG Version: 6.00 Build 0)  -->
<svg version="1.1" xmlns="http://www.w3.org/2000/svg" xmlns:xlink="http://www.w3.org/1999/xlink" x="0px" y="0px"
	 viewBox="0 0 750 500" style="enable-background:new 0 0 750 500;" xml:space="preserve">
<g id="BACKGROUND">
	<rect style="fill:#FFFFFF;" width="750" height="500"/>
</g>
<g id="OBJECTS">
	<g>
		<g>
			<path style="fill:#9FDAFE;" d="M84.059,146.31c-3.291,0-6.555,1.367-8.856,3.705c-2.321,2.319-3.656,5.585-3.632,8.856
				c0,3.272,1.359,7.259,3.683,9.547c2.306,2.307,5.552,3.635,8.805,3.611c3.252,0.02,6.495-1.313,8.794-3.621
				c2.325-2.282,3.689-6.265,3.694-9.537c0.029-3.271-1.301-6.541-3.622-8.866C90.619,147.668,87.35,146.305,84.059,146.31z
				 M91.358,166.17c-1.905,1.928-4.583,3.045-7.298,3.045c-2.716-0.004-5.389-1.127-7.288-3.055
				c-1.911-1.917-3.002-4.592-2.982-7.288c0.005-2.697,1.119-5.351,3.034-7.237c1.904-1.898,4.559-2.981,7.237-2.961
				c2.678-0.015,5.329,1.073,7.226,2.971c1.916,1.88,3.035,4.529,3.044,7.226C94.355,161.568,93.269,164.247,91.358,166.17z"/>
			<path style="fill:#9FDAFE;" d="M97.296,138.834c-3.286-2.186-7.135-3.562-11.074-3.891c-3.936-0.324-7.942,0.356-11.557,1.916
				c-3.582,1.625-6.796,4.068-9.197,7.163c-2.382,3.096-4.064,6.761-4.644,10.613c-0.131,0.964-0.289,1.923-0.284,2.895
				c-0.013,0.485-0.041,0.967-0.038,1.453c0.031,0.487,0.035,0.986,0.091,1.462c0.19,1.918,0.552,3.758,0.995,5.565
				c0.891,3.611,2.043,7.11,3.34,10.548c1.289,3.441,2.749,6.808,4.324,10.121c1.575,3.312,3.25,6.582,5.199,9.714
				c0.976,1.564,1.997,3.107,3.164,4.566c1.182,1.442,2.414,2.89,4.179,3.924c0.423,0.27,0.944,0.458,1.473,0.599
				c0.285,0.036,0.573,0.09,0.858,0.091c0.286-0.03,0.574-0.067,0.857-0.113c1.071-0.306,1.891-0.897,2.661-1.497
				c1.478-1.258,2.653-2.719,3.756-4.212c4.252-6.073,7.53-12.654,10.409-19.411c1.427-3.384,2.733-6.828,3.806-10.368
				c1.037-3.56,2.029-7.125,2.175-11.101c0.03-3.899-0.9-7.82-2.691-11.319C103.256,144.085,100.577,141.038,97.296,138.834z
				 M102.905,169.201c-0.934,3.456-2.022,6.895-3.275,10.277c-1.234,3.39-2.65,6.716-4.203,9.972
				c-1.556,3.251-3.28,6.436-5.351,9.346c-1.039,1.441-2.157,2.842-3.445,3.959c-0.652,0.525-1.345,1.001-2.037,1.206
				c-0.653,0.196-1.321-0.033-2.019-0.442c-1.385-0.825-2.577-2.201-3.659-3.582c-1.088-1.4-2.057-2.913-2.984-4.448
				c-3.68-6.178-6.546-12.876-8.873-19.695c-1.159-3.412-2.179-6.873-2.907-10.36c-0.364-1.741-0.637-3.494-0.744-5.204
				c-0.036-0.43-0.02-0.843-0.034-1.264c0.013-0.422,0.057-0.849,0.082-1.273c0.02-0.853,0.197-1.686,0.338-2.522
				c0.618-3.342,2.218-6.428,4.3-9.052c2.123-2.615,4.926-4.629,7.991-5.943c3.097-1.265,6.485-1.705,9.799-1.43
				c3.322,0.283,6.508,1.486,9.323,3.246c2.782,1.824,5.124,4.328,6.79,7.231c1.608,2.938,2.51,6.264,2.589,9.646
				C104.593,162.193,103.79,165.762,102.905,169.201z"/>
			<path style="fill:#9FDAFE;" d="M665.938,146.178c-3.324-0.075-6.684,1.244-9.097,3.596c-2.41,2.355-3.823,5.712-3.83,9.097
				c-0.016,3.389,1.416,6.747,3.819,9.108c2.396,2.381,5.781,3.684,9.108,3.619c3.335-0.052,6.596-1.494,8.857-3.87
				c2.282-2.36,3.546-5.63,3.465-8.857c0.024-3.22-1.198-6.482-3.487-8.835C672.516,147.666,669.264,146.232,665.938,146.178z
				 M673.174,166.107c-1.944,1.86-4.603,2.868-7.236,2.796c-2.641-0.045-5.176-1.192-6.985-3.047
				c-1.832-1.844-2.85-4.405-2.846-6.985c-0.027-2.583,1.01-5.145,2.836-6.995c1.792-1.884,4.351-3.015,6.995-3.07
				c2.642-0.074,5.31,0.941,7.258,2.807c1.946,1.852,3.174,4.51,3.178,7.258C676.314,161.612,675.128,164.262,673.174,166.107z"/>
			<path style="fill:#9FDAFE;" d="M686.723,147.689c-1.882-3.393-4.569-6.337-7.805-8.468c-3.254-2.091-7.007-3.446-10.865-3.757
				c-3.85-0.305-7.774,0.305-11.329,1.82c-3.522,1.57-6.698,3.947-9.081,6.977c-2.347,3.042-4.039,6.633-4.641,10.43
				c-0.136,0.95-0.301,1.896-0.303,2.857c-0.016,0.479-0.048,0.955-0.049,1.436c0.027,0.481,0.027,0.972,0.079,1.444
				c0.175,1.899,0.508,3.736,0.931,5.541c0.847,3.609,1.965,7.115,3.225,10.563c2.515,6.894,5.45,13.634,9.25,19.981
				c0.964,1.579,1.972,3.139,3.135,4.622c1.184,1.466,2.391,2.949,4.226,4.056c0.438,0.286,0.994,0.499,1.568,0.656
				c0.313,0.045,0.631,0.106,0.946,0.108c0.315-0.031,0.634-0.071,0.946-0.124c1.164-0.332,2.014-0.952,2.812-1.572
				c1.522-1.294,2.709-2.771,3.826-4.278c2.191-3.037,4.011-6.254,5.696-9.53c1.667-3.283,3.194-6.63,4.564-10.043
				c1.379-3.41,2.613-6.88,3.659-10.428c1-3.57,1.953-7.148,2.059-11.107C689.556,154.985,688.546,151.114,686.723,147.689z
				 M684.764,169.196c-0.962,3.448-2.121,6.86-3.423,10.217c-2.626,6.685-5.671,13.318-9.703,19.156
				c-1.025,1.427-2.132,2.812-3.376,3.893c-0.624,0.505-1.287,0.953-1.886,1.132c-0.138,0.011-0.271,0.028-0.406,0.059
				c-0.136-0.003-0.269-0.042-0.407-0.045c-0.292-0.091-0.611-0.18-0.935-0.393c-1.315-0.752-2.533-2.093-3.613-3.45
				c-1.092-1.376-2.074-2.872-3.013-4.392c-3.707-6.133-6.696-12.77-9.146-19.548c-1.196-3.402-2.249-6.857-3.021-10.345
				c-0.384-1.742-0.686-3.499-0.808-5.228c-0.041-0.434-0.028-0.854-0.047-1.282c0.009-0.428,0.049-0.86,0.071-1.29
				c0.013-0.865,0.184-1.711,0.319-2.56c0.596-3.397,2.187-6.557,4.304-9.235c2.14-2.68,4.982-4.761,8.107-6.129
				c3.156-1.311,6.626-1.821,10.026-1.527c3.403,0.301,6.685,1.525,9.532,3.38c2.828,1.896,5.162,4.503,6.788,7.481
				c1.576,3.012,2.397,6.387,2.431,9.783C686.528,162.211,685.686,165.766,684.764,169.196z"/>
		</g>
		<g>
			<path style="fill:#9FDAFE;" d="M500.271,124.887C478.909,73.2,426.21,39.313,370.311,41.291
				c-55.656,1.97-105.86,39.749-123.826,92.473c-18.403,54.007-0.159,115.257,44.645,150.492
				c45.469,35.758,109.495,38.047,157.799,6.436c47.205-30.892,70.761-89.47,57.853-144.445
				C505.124,139.188,503.05,131.586,500.271,124.887z M497.988,126.447c6.492,15.598,9.93,32.466,10.138,49.357
				c0.01,0.82,0.204,2.126,0.003,2.885c-0.452,1.701,0.946,0.901-1.594,1.324c-1.748,0.291-3.913-0.4-5.654-0.691
				c-3.806-0.636-7.975-1.634-11.752-0.308c-7.265,2.55-6.264,9.78,0.677,11.73c2.773,0.779,7.093,0.289,9.192,2.713
				c2.54,2.932-1.902,5.938-4.015,7.582c-6.822,5.307-12.277,9.146-15.81,17.327c-3.169,7.337-6.53,14.407-11.018,21.053
				c-2.18,3.228-4.535,6.337-7.06,9.302c-1.801,2.115-4.935,6.967-7.879,7.511c-5.369,0.993-6.29-14.433-6.768-17.879
				c-1.195-8.615-3.006-16.819-7.125-24.561c-3.564-6.697-8.375-12.688-14.146-17.611c-5.322-4.539-12.763-7.575-16.4-13.799
				c-3.328-5.696-2.841-13.299,0.727-18.768c3.879-5.946,12.603-6.966,15.566-13.514c1.445-3.193,0.293-6.578,0.985-9.87
				c0.71-3.375,3.269-5.741,5.895-7.764c5.613-4.324,13.064-8.016,13.812-15.921c0.818-8.642-5.649-16.696,1.144-24.269
				c2.907-3.241,6.584-5.976,10.134-8.471c1.835-1.29,3.725-2.502,5.654-3.645c0.341-0.202,1.559-1.161,1.941-1.121
				c0.6,0.063,2.93,2.742,3.367,3.168C480.844,94.715,491.122,109.887,497.988,126.447z M425.918,54.454
				c3.443,1.423,6.822,3.003,10.132,4.713c-4.306,5.071-9.97,6.204-15.761,8.744c-6.021,2.641-10.098,8.159-16.095,10.819
				c-6.477,2.873-11.967,3.778-15.803,10.339c-2.425,4.149-5.801,10.672-11.61,7.453c-5.421-3.004-6.524-11.699-8.418-17.034
				c-2.348-6.612-5.773-11.45-10.145-16.83c-1.85-2.276-3.615-4.678-4.828-7.364c-0.709-1.571-1.223-3.193-1.439-4.904
				c-0.091-0.717-0.272-1.694-0.129-2.411c0.423-2.117,0.562-1.672,2.587-1.99c7.59-1.19,15.282-1.733,22.965-1.597
				C393.993,44.686,410.561,48.083,425.918,54.454z M252.259,126.551c9.826-23.835,26.686-44.554,47.97-59.089
				c2.315-1.581,5.204-4.34,7.861-3.704c2.692,0.644,5.656,3.02,7.569,4.92c4.421,4.39,6.973,11.476,4.785,17.544
				c-2.006,5.564-8.54,7.975-10.325,13.592c-2.005,6.311,4.305,11.063,10.166,10.556c5.691-0.492,9.564-5.455,11.952-10.178
				c1.927-3.811,3.829-12.938,9.876-11.561c5.388,1.227-0.11,8.886,3.43,12.259c3.319,3.162,8.415,2.194,11.717,5.839
				c9.928,10.961-1.769,23.507-11.815,28.203c-5.746,2.685-11.119,5.299-14.053,11.251c-2.709,5.495-2.964,12.136-6.335,17.306
				c-3.095,4.748-10.174,4.731-12.069,10.292c-1.833,5.38,1.858,11.03,7.054,12.577c5.589,1.665,10.503-0.82,15.316-3.344
				c2.296-1.204,5.169-2.834,7.843-1.951c2.627,0.867,3.924,3.854,6.377,5.071c2.771,1.375,5.881,0.274,8.73,1.344
				c2.94,1.105,5.084,3.791,7.132,6.038c1.89,2.074,3.78,4.214,6.209,5.677c2.677,1.612,5.525,1.634,8.388,2.64
				c6.324,2.22,4.594,11.169,3.949,16.4c-0.783,6.351-2.444,12.59-4.929,18.487c-5.245,12.442-15.296,22.423-16.721,36.346
				c-0.303,2.96-0.228,5.91-0.016,8.871c0.183,2.561,0.334,3.945-2.785,3.592c-6.14-0.694-9.066-8.215-9.652-13.447
				c-1.329-11.85,1.77-26.854-12.486-31.554c-2.677-0.883-5.601-1.376-7.382-3.795c-1.807-2.454-1.107-4.804-1.152-7.57
				c-0.085-5.192-5.175-8.88-5.977-14.204c-0.409-2.713-0.207-5.512,0.661-8.121c0.556-1.671,1.718-3.213,2.009-4.952
				c1.306-7.81-9.66-5.386-13.87-4.716c-5.632,0.896-11.735,1.35-15.566-3.667c-3.799-4.976-4.164-11.783-7.603-17.019
				c-7.114-10.831-19.448-12.246-30.992-8.823c-2.931,0.869-5.87,1.866-8.909,2.292c-1.367,0.192-3.216,0.513-4.567,0.126
				c-1.434-0.411-1.074,0.128-1.544-1.073c-0.28-0.715,0.168-2.401,0.234-3.174c0.589-6.87,1.708-13.692,3.349-20.39
				C247.665,138.999,249.724,132.677,252.259,126.551z M498.087,228.372c-18.373,44.647-60.813,76.438-108.899,80.982
				c-49.098,4.64-97.595-17.547-124.935-58.867c-15.291-23.11-23.002-50.849-21.902-78.535c11.406,2.795,21.907-6.609,33.413-2.102
				c4.762,1.865,8.86,5.318,11.296,9.833c2.518,4.666,3.17,10.167,6.098,14.641c2.649,4.049,6.775,6.143,11.589,6.349
				c3.012,0.129,6.003-0.443,8.959-0.929c2.093-0.344,6.414-1.821,8.26-0.233c1.863,1.602-0.251,3.975-0.934,5.824
				c-1.616,4.376-1.616,9.255-0.1,13.661c1.306,3.795,4.99,6.559,5.065,10.611c0.098,5.279,0.46,9.596,5.943,12.128
				c4.196,1.938,8.596,2.017,11.522,6.121c3.194,4.479,3.137,10.525,3.251,15.797c0.184,8.543,1.513,25.821,14.232,24.785
				c4.676-0.381,4.324-4.271,4.084-7.898c-0.393-5.942,0.371-11.867,2.669-17.383c4.245-10.192,11.628-18.574,15.378-29.078
				c1.969-5.514,3.257-11.273,3.842-17.098c0.486-4.843,1.459-11.535-2.128-15.464c-3.168-3.47-8.645-2.541-12.4-5.088
				c-4.135-2.805-6.555-7.538-10.782-10.249c-3.665-2.35-7.04-0.789-10.7-2.378c-2.395-1.04-3.582-3.761-5.983-4.9
				c-2.593-1.23-5.351-0.694-7.901,0.354c-4.667,1.917-8.616,5.359-13.961,5.003c-4.668-0.311-9.398-4.53-7.664-9.605
				c1.385-4.055,7.309-4.624,10.126-7.627c3.681-3.923,4.617-9.483,6.135-14.445c1.572-5.14,3.675-9.304,8.336-12.19
				c4.618-2.858,9.937-4.343,14.257-7.724c8.123-6.357,12.446-18.208,5.234-26.972c-1.445-1.756-3.256-3.138-5.361-4.003
				c-1.871-0.769-4.261-0.794-5.981-1.853c-4.54-2.797,1.274-8.854-2.967-12.371c-5.107-4.235-10.424,1.547-12.424,5.829
				c-2.43,5.202-4.361,12.005-10.331,14.311c-4.38,1.692-11.452-0.815-10.403-6.477c0.945-5.101,7.238-7.815,9.603-12.252
				c5.748-10.778-2.654-22.713-12.536-26.97c12.629-7.246,26.421-12.359,40.718-15.115c-0.708,7.276,3.588,13.427,8.079,18.691
				c4.706,5.516,6.859,12.044,9.121,18.888c1.899,5.746,3.768,14.626,11.004,15.778c7.212,1.147,10.188-7.607,13.484-12.171
				c4.092-5.665,11.804-5.779,17.325-9.436c2.738-1.814,5.081-4.139,7.735-6.063c2.992-2.17,6.178-3.236,9.616-4.467
				c3.248-1.163,6.231-2.648,8.872-4.913c0.736-0.63,1.431-1.301,2.087-2.015c0.389-0.405,1.031-0.697,2.147-0.204
				c1.707,0.397,3.79,2.16,5.282,3.077c6.512,4.002,12.682,8.557,18.421,13.607c-9.401,5.158-23.299,13.004-21.9,25.412
				c0.579,5.133,3.292,10.686,1.376,15.819c-1.672,4.48-6.25,7.112-9.958,9.729c-4.822,3.403-9.255,7.148-9.543,13.441
				c-0.116,2.535,0.435,5.082-0.845,7.408c-1.322,2.402-3.972,3.768-6.253,5.099c-5.579,3.256-9.827,7.126-11.55,13.587
				c-1.569,5.885-0.657,12.466,2.977,17.429c3.314,4.525,8.428,7.155,12.856,10.402c4.769,3.497,8.984,7.715,12.465,12.498
				c8.183,11.244,9.704,23.363,12.063,36.632c0.767,4.313,1.903,14.188,7.89,14.106c4.994-0.069,9.894-7.732,12.607-11.142
				c4.143-5.206,7.815-10.796,10.929-16.676c2.781-5.252,4.578-11.006,7.468-16.18c3.44-6.16,9.627-9.098,14.754-13.605
				c5.083-4.468,5.047-10.171-2.203-12.071c-2.746-0.72-6.119-0.34-8.487-2.171c-2.489-1.924-1.433-4.204,1.039-5.605
				c5.637-3.194,13.337,0.75,19.388,0.401C507.51,197.936,504.156,213.706,498.087,228.372z"/>
			<path style="fill:#9FDAFE;" d="M408.428,102.533c-2.507,2.768-6.914,8.595-4.324,12.463c3.176,4.745,10.954,0.808,14.644-1.066
				c4.388-2.228,9.42-6.966,6.123-12.24c-2.861-4.575-7.987-5.108-4.523-11.496c2.007-3.702,6.905-10.032,1.119-13.175
				c-4.826-2.621-10.438,3.501-13.371,6.581c-2.152,2.26-9.372,8.211-4.526,11.293c1.895,1.205,4.679-0.146,6.267,1.831
				C411.416,98.692,409.811,100.976,408.428,102.533z M411.297,96.399c-2.21-3.735-9.762-1.696-5.322-7.106
				c2.732-3.329,6.038-7.284,9.807-9.45c1.804-1.036,4.413-2.012,5.773,0.222c1.331,2.186-0.415,4.788-1.537,6.655
				c-2.669,4.438-4.815,8.581-0.531,12.801c3.028,2.983,6.367,5.43,2.665,9.758c-2.615,3.056-7.175,4.895-11.168,5.12
				c-5.132,0.289-6.382-2.166-4.805-6.412C407.468,104.514,413.772,100.568,411.297,96.399z"/>
		</g>
		<g>
			<g>
				<path style="fill:#9FDAFE;" d="M631.116,176.443c-1.284,0-9.863,0.474-6.215-2.072c0.593-0.414,4.357-0.205,4.983,0
					C630.367,174.53,634.21,176.443,631.116,176.443z"/>
			</g>
			<g>
				<path style="fill:#9FDAFE;" d="M612.595,176.443c-2.96,0-5.927,0.07-8.886,0c-1.32-0.031-6.547,0.174-3.419-2.072
					c1.305-0.937,6.64,0,8.244,0c0.797,0,3.349-0.44,3.957,0C612.96,174.711,614.698,176.443,612.595,176.443z M587.985,176.443
					c-2.96,0-5.927,0.07-8.886,0c-1.32-0.031-6.547,0.174-3.419-2.072c1.305-0.937,6.64,0,8.244,0c0.797,0,3.349-0.44,3.957,0
					C588.35,174.711,590.088,176.443,587.985,176.443z M563.375,176.443c-2.96,0-5.927,0.07-8.885,0
					c-1.32-0.031-6.547,0.174-3.419-2.072c1.305-0.937,6.64,0,8.244,0c0.797,0,3.348-0.44,3.957,0
					C563.74,174.711,565.478,176.443,563.375,176.443z M538.766,176.443c-2.565,0-5.216,0.208-7.771,0
					c-1.56-0.127-8.333-1.767-4.068-2.769c1.493-0.351,6.568,0.635,8.484,0.697c0.478,0.015,2.963-0.348,3.356,0
					C539.214,174.769,540.789,176.443,538.766,176.443z M219.278,176.443c-1.881,0-12.835,0.056-6.893-2.072
					c1.957-0.701,11.41-1.608,12.166-0.169C225.631,176.254,219.996,176.443,219.278,176.443z M199.085,176.443
					c-2.96,0-5.927,0.07-8.886,0c-1.32-0.031-6.547,0.174-3.419-2.072c1.305-0.937,11.593-0.44,12.201,0
					C199.45,174.711,201.188,176.443,199.085,176.443z M174.475,176.443c-2.96,0-5.927,0.07-8.886,0
					c-1.32-0.031-6.547,0.174-3.419-2.072c1.305-0.937,11.593-0.44,12.201,0C174.84,174.711,176.578,176.443,174.475,176.443z
					 M149.865,176.443c-2.96,0-5.927,0.07-8.886,0c-1.32-0.031-6.547,0.174-3.419-2.072c1.305-0.937,11.593-0.44,12.201,0
					C150.23,174.711,151.968,176.443,149.865,176.443z M519.198,166.535c-2.146,0-2.851-14.773-1.321-14.169
					C519.391,152.963,521.431,166.535,519.198,166.535z M230.821,166.38c-2.211,0-0.24-13.564,1.326-14.172
					C233.6,151.645,233.096,166.38,230.821,166.38z M515.111,142.305c-1.312,0-6.2-14.192-3.119-13.737
					C513.552,128.798,517.084,142.305,515.111,142.305z M234.924,142.152c-1.86,0,1.522-13.51,3.135-13.734
					C241.241,127.974,236.284,142.152,234.924,142.152z M506.979,119.113c-1.365,0-8.216-12.944-5.242-13.025
					C503.317,106.045,509.294,119.113,506.979,119.113z M243.08,118.976c-2.102,0,3.541-13.069,5.25-13.015
					C251.349,106.057,244.582,118.976,243.08,118.976z M495.017,97.64c-1.447,0-9.992-11.41-7.193-11.963
					C489.463,85.353,497.626,97.64,495.017,97.64z M255.059,97.523c-2.33,0,5.393-12.325,7.203-11.954
					C265.053,86.14,256.721,97.523,255.059,97.523z M479.598,78.498c-1.527,0-11.513-9.61-8.929-10.595
					C472.42,67.235,482.422,78.498,479.598,78.498z M270.494,78.399c-2.516,0,7.01-11.336,8.938-10.587
					C281.98,68.802,272.294,78.399,270.494,78.399z M461.178,62.226c-1.586,0-12.761-7.564-10.41-8.953
					c1.08-0.638,6.048,3.54,7,4.197C458.236,57.794,464.56,62.226,461.178,62.226z M288.93,62.143c-3.155,0,2.017-3.771,2.397-4.038
					c1.049-0.737,6.875-5.595,8.023-4.907C301.654,54.581,290.832,62.143,288.93,62.143z M440.283,49.298
					c-1.622,0-13.697-5.291-11.597-7.072c0.956-0.811,6.563,2.464,7.613,2.951C436.769,45.395,443.854,49.298,440.283,49.298z
					 M309.845,49.231c-3.375,0,2.502-3.413,2.873-3.589c1.158-0.548,7.725-4.348,8.739-3.474
					C323.513,43.941,311.804,49.231,309.845,49.231z M417.503,40.107c-1.637,0-14.274-2.835-12.46-5.008
					c0.804-0.963,6.889,1.31,8.007,1.611C413.716,36.889,421.106,40.107,417.503,40.107z M332.65,40.06
					c-3.435,0,2.727-2.912,3.261-3.061c1.235-0.343,8.358-2.968,9.206-1.931C346.895,37.239,334.636,40.06,332.65,40.06z
					 M393.484,34.932c-1.614,0-15.618-1.198-12.574-2.969c1.798-1.046,8.397,0.109,10.253,0.614
					C391.449,32.655,396.928,34.932,393.484,34.932z M356.676,34.911c-3.132,0,0.937-2.135,1.098-2.208
					c1.151-0.522,10.434-1.609,11.485-0.751C371.964,34.162,358.273,34.911,356.676,34.911z"/>
			</g>
			<g>
				<path style="fill:#9FDAFE;" d="M125.097,176.443c-1.284,0-9.863,0.474-6.215-2.072c0.593-0.414,4.357-0.205,4.983,0
					C124.347,174.53,128.191,176.443,125.097,176.443z"/>
			</g>
		</g>
	</g>
	<g>
		<g>
			<path style="fill:#FFFFFF;" d="M83.823,258.77l0.104,0.09c-0.035-0.04-0.064-0.068-0.098-0.108L83.823,258.77z"/>
			<path style="fill:#FFFFFF;" d="M83.823,258.77l0.104,0.09c-0.035-0.04-0.064-0.068-0.098-0.108L83.823,258.77z"/>
		</g>
	</g>
	<g>
		<g>
			<path d="M453.807,387.39c-53.106,0-86.213,0-139.319,0c-4.563,0-9.126,0-13.689,0c-1.055,0-4.477,0.61-5.39,0
				c-3.143-2.099,1.719-1.954,2.888-2c3.82-0.15,7.677,0,11.499,0c31.393,0,52.787,0,84.18,0c16.912,0,23.825,0,40.737,0
				c4.894,0,8.884,0,13.779,0c0.928,0,3.633,0,4.62,0C456.268,385.39,456.415,387.39,453.807,387.39z"/>
		</g>
		<g>
			<path d="M433.807,401.29c-41.427,0-62.854,0-104.281,0c-2.793,0-11.677,1.603-14.131,0c-2.957-1.931,0.297-2.174,1.919-2.174
				c2.914,0,6.345,0.174,9.254,0.174c24.416,0,38.833,0,63.249,0c13.139,0,16.278,0,29.417,0c3.854,0,10.737,0,14.591,0
				C437.347,399.29,435.963,401.29,433.807,401.29z"/>
		</g>
		<g>
			<path d="M413.807,414.191c-29.741,0-39.483,0-69.224,0c-1.393,0-8.9,1.098-9.895-0.293c-1.748-2.441,8.197-1.707,9.059-1.707
				c17.53,0,25.059,0,42.589,0c9.283,0,8.566,0,17.849,0c2.361,0,5.441,0,7.82,0C416.771,412.191,417.218,414.191,413.807,414.191z"
				/>
		</g>
	</g>
	<g>
		<defs>
			<rect id="SVGID_1_" y="207.686" width="750" height="292.314"/>
		</defs>
		<clipPath id="SVGID_00000033366607111290795680000002506495304656835755_">
			<use xlink:href="#SVGID_1_"  style="overflow:visible;"/>
		</clipPath>
		<g style="clip-path:url(#SVGID_00000033366607111290795680000002506495304656835755_);">
			<path style="fill:#9FDAFE;" d="M224.209,505.771c3.012-4.843-9.609-6.042-13.051-7.182c-8.082-2.676-16.073-5.631-23.943-8.876
				c-13.936-5.747-27.499-12.407-40.524-20c-22.255-12.974-42.9-28.685-61.216-46.805c-35.388-35.01-61.504-78.613-76.796-125.934
				c-3.847-11.905-7.049-24.044-9.346-36.346c-0.596-3.191,0.163-13.599-4.826-11.586c4.122,43.062,23.194,87.014,46.103,123.05
				c-3.771,1.215-7.541,2.431-11.312,3.646c-2.661,0.858-9.67,4.674-12.407,3.999c-1.794-0.442-5.644-9.591-6.566-11.342
				c-2.484-4.717-4.853-9.495-7.099-14.33c-4.395-9.457-8.332-19.127-11.8-28.961c-4.849-13.753-8.83-27.845-11.647-42.158
				c-0.644-3.272-0.149-16.002-5.272-13.905c3.71,38.797,19.938,78.372,39.221,111.716c-8.603,2.773-17.206,5.546-25.809,8.319
				c-2.145,0.691-8.162,3.946-10.381,3.346c-1.976-0.534-5.253-10.388-6.075-12.222c-2.263-5.047-4.398-10.15-6.403-15.305
				c-6.245-16.057-11.289-32.622-14.785-49.498c-0.905-4.367-1.72-8.76-2.34-13.177c-0.382-2.723,0.187-4.355-3.428-3.18
				c3.102,32.46,15.495,65.507,29.903,94.39c-4.164,1.342-8.328,2.685-12.492,4.027c-3.095,0.998-9.065,0.972-6.452,5.232
				c4.472-1.442,8.944-2.883,13.416-4.325c1.508-0.486,4.674-2.268,6.206-2.001c2.09,0.365,4.505,7.038,5.773,9.325
				c11.165,20.145,24.524,39.067,39.873,56.243c1.238,1.386,7.474,6.71,7.38,8.163c-0.032,0.491-1.427,1.296-1.714,1.714
				c-2.156,3.135-5.869,5.869-8.555,8.555c-8.619,8.619-17.239,17.239-25.858,25.858c-5.93,5.93-11.859,11.859-17.789,17.789
				c2.732,4.365,6.063-1.821,8.451-4.208c6.229-6.229,12.457-12.457,18.686-18.686c9.654-9.654,19.308-19.308,28.962-28.962
				c11.32,11.543,23.559,22.17,36.589,31.74c6.744,4.953,13.693,9.628,20.816,14.02c3.235,1.995,6.506,3.929,9.809,5.807
				c2.775,1.578,9.176,3.713,11.21,6.089c2.703,3.157-0.659,13.825-1.261,18.254c-0.468,3.445-4.532,14.571,1.134,13.952
				c1.365-10.057,2.731-20.115,4.096-30.172c19.698,9.88,40.353,17.813,61.519,23.926c1.679-2.771,0.421-2.581-1.703-3.624
				c-3.329-1.635-7.65-2.338-11.167-3.501c-7.145-2.362-14.218-4.943-21.201-7.75c-7.026-2.825-13.961-5.875-20.783-9.162
				c-4.357-2.099-5.794-1.523-5.908-5.466c-0.203-7.006,2.018-14.863,2.96-21.805c0.725-5.339,1.449-10.677,2.174-16.016
				c26.643,16.33,55.629,28.66,85.628,37.324c3.016-4.856-8.067-5.553-11.46-6.659c-7.451-2.43-14.824-5.097-22.101-8.008
				c-13.208-5.284-26.096-11.375-38.524-18.299c-3.047-1.697-11.862-5.004-13.041-8.05c-0.653-1.689,0.836-6.16,1.072-7.9
				c0.851-6.27,1.702-12.54,2.554-18.81C153.516,479.607,188.131,495.352,224.209,505.771z M42.299,374.699
				c5.731,8.821,11.909,17.351,18.511,25.541c3.413,4.234,6.937,8.377,10.573,12.421c1.437,1.598,6.897,5.97,6.546,7.618
				c-0.545,2.561-7.328,7.328-9.108,9.108c-2.8,2.8-5.599,5.599-8.399,8.399c-16.131-16.741-30.309-35.352-42.208-55.323
				C26.243,379.875,34.271,377.287,42.299,374.699z M-17.055,403.263c-1.464-2.663-2.888-5.349-4.275-8.053
				c9.424-3.038,18.848-6.075,28.272-9.113c1.949-0.628,4.291-1.869,6.326-2.039c2.959-0.248,0.452-1.559,3.301,1.478
				c3.677,3.92,6.3,10.12,9.328,14.575c3.223,4.741,6.577,9.394,10.058,13.948c3.466,4.534,7.059,8.971,10.775,13.303
				c1.317,1.535,11.674,11.032,11.478,12.639c-0.231,1.888-5.561,5.561-6.918,6.918c-6.956,6.956-13.911,13.911-20.867,20.867
				C11.84,448.5-4.154,426.731-17.055,403.263z M110.293,527.2c-15.458-8.039-30.271-17.325-44.185-27.814
				c-6.402-4.826-12.612-9.906-18.611-15.224c-2.745-2.433-5.444-4.915-8.098-7.447c-1.002-0.955-6.949-5.604-6.839-6.822
				c0.095-1.051,3.763-3.763,4.48-4.48c3.122-3.122,6.245-6.245,9.367-9.367c4.63-4.63,9.261-9.261,13.891-13.891
				c10.764,10.976,22.357,21.131,34.681,30.322c5.852,4.364,13.387,7.941,18.668,12.89c2.426,2.274,2.127,1.473,1.664,4.883
				C113.637,502.567,111.965,514.884,110.293,527.2z M116.247,483.342c-10.114-6.435-19.859-13.452-29.154-21.023
				c-4.382-3.569-8.664-7.262-12.839-11.071c-2.76-2.519-9.786-7.019-10.934-10.498c-0.972-2.948,8.959-11.421,14.342-16.183
				c1.505-1.332,3.775-1.246,5.199,0.172c6.845,6.815,14.013,13.304,21.486,19.425c4.262,3.491,9.553,6.556,13.466,10.413
				c2.397,2.362,1.567,0.887,1.856,3.556c0.467,4.318-1.36,10.017-1.942,14.303C117.234,476.071,116.74,479.707,116.247,483.342z"/>
			<path style="fill:#9FDAFE;" d="M627.291,458.044c0.851,6.27,1.702,12.54,2.554,18.81c0.236,1.74,1.726,6.211,1.072,7.9
				c-1.179,3.047-9.995,6.353-13.041,8.05c-12.429,6.924-25.316,13.016-38.524,18.299c-7.276,2.911-14.65,5.578-22.101,8.008
				c-3.393,1.107-14.477,1.804-11.46,6.659c29.999-8.664,58.985-20.994,85.628-37.324c0.725,5.339,1.449,10.677,2.174,16.016
				c0.942,6.942,3.163,14.798,2.96,21.805c-0.114,3.943-1.551,3.367-5.908,5.466c-6.822,3.286-13.757,6.337-20.783,9.162
				c-6.983,2.807-14.055,5.388-21.201,7.75c-3.518,1.163-7.838,1.866-11.167,3.501c-2.124,1.043-3.382,0.853-1.703,3.624
				c21.167-6.113,41.821-14.045,61.519-23.926c1.365,10.057,2.731,20.115,4.096,30.172c5.665,0.62,1.601-10.507,1.134-13.952
				c-0.601-4.428-3.964-15.096-1.261-18.254c2.035-2.376,8.435-4.511,11.21-6.089c3.303-1.878,6.575-3.813,9.809-5.807
				c7.122-4.392,14.072-9.067,20.815-14.02c13.03-9.571,25.269-20.197,36.589-31.74c9.654,9.654,19.308,19.308,28.962,28.962
				c6.229,6.229,12.458,12.457,18.686,18.686c2.388,2.388,5.718,8.574,8.451,4.208c-5.93-5.93-11.859-11.859-17.789-17.789
				c-8.619-8.619-17.239-17.239-25.858-25.858c-2.686-2.686-6.399-5.42-8.555-8.555c-0.287-0.418-1.682-1.223-1.714-1.714
				c-0.095-1.453,6.141-6.777,7.38-8.163c15.349-17.176,28.708-36.099,39.873-56.243c1.267-2.287,3.683-8.96,5.773-9.325
				c1.532-0.268,4.699,1.515,6.206,2.001c4.472,1.442,8.944,2.883,13.416,4.325c2.613-4.259-3.358-4.234-6.452-5.232
				c-4.164-1.342-8.328-2.685-12.492-4.027c14.408-28.883,26.801-61.929,29.903-94.39c-3.615-1.176-3.046,0.457-3.428,3.18
				c-0.62,4.417-1.435,8.81-2.34,13.177c-3.496,16.876-8.539,33.441-14.785,49.498c-2.005,5.155-4.14,10.258-6.403,15.305
				c-0.822,1.834-4.1,11.688-6.075,12.222c-2.219,0.599-8.236-2.655-10.381-3.346c-8.603-2.773-17.206-5.546-25.809-8.319
				c19.283-33.343,35.511-72.919,39.221-111.716c-5.122-2.097-4.628,10.633-5.272,13.905c-2.817,14.313-6.798,28.405-11.647,42.158
				c-3.467,9.834-7.405,19.504-11.8,28.961c-2.247,4.835-4.615,9.613-7.099,14.33c-0.922,1.751-4.772,10.9-6.566,11.342
				c-2.737,0.674-9.746-3.142-12.407-3.999c-3.771-1.215-7.541-2.431-11.312-3.646c22.909-36.036,41.982-79.988,46.103-123.05
				c-4.989-2.013-4.231,8.396-4.826,11.586c-2.296,12.302-5.499,24.441-9.346,36.346c-15.292,47.321-41.408,90.924-76.796,125.934
				c-18.316,18.121-38.962,33.832-61.216,46.805c-13.025,7.593-26.588,14.253-40.524,20c-7.871,3.246-15.861,6.201-23.943,8.876
				c-3.441,1.139-16.063,2.338-13.051,7.182C561.87,495.352,596.484,479.607,627.291,458.044z M731.785,382.462
				c-11.899,19.971-26.077,38.582-42.208,55.323c-2.8-2.8-5.599-5.599-8.399-8.399c-1.78-1.78-8.563-6.547-9.108-9.108
				c-0.351-1.648,5.109-6.02,6.546-7.618c3.636-4.044,7.16-8.188,10.573-12.421c6.602-8.19,12.78-16.72,18.511-25.541
				C715.729,377.287,723.757,379.875,731.785,382.462z M719.577,467.786c-6.956-6.956-13.911-13.911-20.867-20.867
				c-1.357-1.357-6.687-5.03-6.918-6.918c-0.196-1.607,10.161-11.104,11.478-12.639c3.716-4.332,7.309-8.769,10.775-13.303
				c3.482-4.554,6.836-9.207,10.058-13.948c3.028-4.455,5.651-10.655,9.328-14.575c2.849-3.038,0.342-1.726,3.301-1.478
				c2.035,0.171,4.377,1.411,6.326,2.039c9.424,3.038,18.848,6.075,28.272,9.113c-1.387,2.705-2.811,5.39-4.275,8.053
				C754.154,426.731,738.16,448.5,719.577,467.786z M634.691,490.251c-0.463-3.41-0.763-2.61,1.664-4.883
				c5.281-4.949,12.816-8.526,18.668-12.89c12.324-9.191,23.917-19.346,34.681-30.322c4.63,4.63,9.261,9.261,13.891,13.891
				c3.122,3.122,6.245,6.245,9.367,9.367c0.716,0.716,4.385,3.429,4.48,4.48c0.11,1.218-5.837,5.867-6.839,6.822
				c-2.654,2.532-5.354,5.014-8.098,7.447c-5.999,5.318-12.209,10.398-18.611,15.224c-13.914,10.489-28.728,19.775-44.185,27.814
				C638.035,514.884,636.363,502.567,634.691,490.251z M632.273,472.436c-0.582-4.286-2.409-9.985-1.942-14.303
				c0.289-2.669-0.541-1.194,1.856-3.556c3.914-3.856,9.204-6.921,13.466-10.413c7.473-6.121,14.641-12.61,21.486-19.425
				c1.424-1.418,3.694-1.504,5.199-0.172c5.383,4.762,15.314,13.235,14.342,16.183c-1.148,3.479-8.174,7.979-10.934,10.498
				c-4.175,3.81-8.457,7.502-12.839,11.071c-9.295,7.571-19.039,14.589-29.154,21.023
				C633.26,479.707,632.766,476.071,632.273,472.436z"/>
		</g>
	</g>
	<g>
		<g>
			<g>
				<g>
					<g>
						<g>
							<polygon style="fill:#FFFFFF;" points="307.028,308.73 284.688,308.73 287.378,277.07 287.678,273.57 288.118,268.43 
								301.008,268.43 301.778,273.57 302.508,278.47 							"/>
							<g style="opacity:0.1;">
								<path style="fill:#424242;" d="M396.305,156.662c-5.156,6.966-13.584,12.929-21.365,16.026
									c-7.607,3.036-14.925,0.82-22.717,0.147c-3.26-0.282-12.463-1.09-14.174,2.865c-1.7,3.93,4.335,8.105,6.902,9.684
									c4.694,2.877,12.07,4.224,7.411,11.741c-3.676,5.926-12.567,5.277-18.197,5.289c-7.642,0.025-36.799-3.195-28.718,14.153
									c3.075,6.599,11.619,9.256,14.162,15.904c2.428,6.366-3.041,10.345-8.151,11.925c-5.075,1.555-9.087-1.199-15.113,4.266
									c-2.385,2.163-1.466,10.083-0.749,13.645c-7.311-7.014-12.139-14.435-9.758-18.793c2.867-5.277,11.7-6.697,9.272-14.508
									c-3.26-10.468-29.573-8.509-21.469-26.139c4.197-9.146,35.666-7.762,23.353-22.527c-4.902-5.877-16.532-5.656-23.168-6.33
									c-12.648-1.273-25.388,2.204-37.909-0.22c-12.081-2.338-22.475-8.901-23.134-22.993
									c-0.775-16.54,9.862-27.253,24.602-29.334c12.636-1.775,26.66,3.391,36.625,11.484c7.052,5.73,11.919,11.227,21.249,12.525
									c4.301,0.6,13.642,2.081,15.526-3.575c2.509-7.542-7.942-14.594-12.833-17.312c-5.804-3.22-11.099-8.803-7.7-16.173
									c5.087-11.031,23.411-13.443,33.411-13.957c22.937-1.175,48.51,9.452,66.164,24.572
									C400.895,128.49,405.716,143.966,396.305,156.662z"/>
							</g>
							<path style="fill:#EAEAEA;" d="M302.508,278.47c-0.33,0.22-0.68,0.42-1.05,0.59c-2.18,1-4.99,1-7.31,0.67
								c-1.78-0.25-3.68-0.62-5.27-1.5c-0.55-0.31-1.05-0.7-1.5-1.16l0.3-3.5l0.44-5.14h12.89l0.77,5.14L302.508,278.47z"/>
							<g>
								<polygon style="fill:#F46C7A;" points="301.778,273.57 287.678,273.57 287.898,271 288.118,268.43 301.008,268.43 
									301.398,271 								"/>
							</g>
							<polygon style="opacity:0.4;fill:#FFFFFF;" points="301.398,271 287.898,271 288.118,268.43 301.008,268.43 							"/>
						</g>
						<rect x="133.578" y="219.32" style="fill:#FFFFFF;" width="40.8" height="92.41"/>
						<path style="fill:#EAEAEA;" d="M174.378,272.38v3.09c-1.02,0.43-2.07,0.83-3.11,1.22c-5.03,1.95-9.99,2.94-15.6,3.26
							c-3.51,0.2-7.27,0.47-10.5-0.74c-1.94-0.71-3.93-1.34-5.93-1.94c-2.09-0.64-3.96-1.59-5.66-2.69v-2.2H174.378z"/>
						<path style="fill:#EAEAEA;" d="M174.378,219.32v0.59c-2.9,2.28-6.16,3.97-10.07,4.54c-4.79,0.71-9.68,0.46-14.49,0.11
							c-3.83-0.28-7.88-0.45-11.42-2.13c-1.72-0.81-3.36-1.82-4.75-3.11H174.378z"/>
						<polygon style="fill:#EAEAEA;" points="174.375,219.322 205.274,219.322 205.274,232.4 174.375,252.17 						"/>
						<path style="fill:#CCCCCC;" d="M174.375,219.321v32.85l10.49-6.71C183.035,233.991,174.375,219.321,174.375,219.321z"/>
						<g>
							<polygon style="fill:#F46C7A;" points="177.808,208.54 176.568,212.44 174.378,219.32 133.578,219.32 131.388,212.44 
								130.148,208.54 							"/>
						</g>
						<polygon style="opacity:0.4;fill:#FFFFFF;" points="177.808,208.54 176.568,212.44 131.388,212.44 130.148,208.54 						"/>
						<g>
							<rect x="220.668" y="259.57" style="fill:#EFA460;" width="46.29" height="26.02"/>
						</g>
						<g>
							<g>
								<rect x="174.378" y="259.57" style="fill:#F2C96D;" width="46.29" height="26.02"/>
							</g>
						</g>
						<rect x="174.378" y="259.57" style="opacity:0.4;fill:#FFFFFF;" width="92.58" height="4.64"/>
						<g>
							<g>
								<path style="fill:#F2C96D;" d="M158.246,237.26h7.047v-4.077c0-1.64-1.33-2.97-2.97-2.97h-1.107
									c-1.64,0-2.97,1.33-2.97,2.97V237.26z"/>
								<path style="fill:#F2C96D;" d="M150.455,250h7.047v-4.077c0-1.64-1.33-2.97-2.97-2.97h-1.107c-1.64,0-2.97,1.33-2.97,2.97
									V250z"/>
								<path style="fill:#F2C96D;" d="M143.932,237.26h7.047v-4.077c0-1.64-1.33-2.97-2.97-2.97h-1.107
									c-1.64,0-2.97,1.33-2.97,2.97V237.26z"/>
							</g>
						</g>
						<g>
							<path style="fill:#FFC1BB;" d="M370.904,354.254"/>
							<g>
								<path style="fill:#424242;" d="M388.238,291.39c0,2.04-0.05,4.04-0.14,6c-0.62,13.89-3.35,25.93-6.92,35.8
									c-4.35,12.11-9.93,20.94-14.34,25.88c-3.91,4.38-9.53,6.84-15.4,6.84h-222.36c-6.44,0-11.65-5.22-11.65-11.66
									c0-8.25-2.44-15.01-5.46-21.41c-4.11-8.74-9.29-16.84-10.8-27.26c-0.28-1.91-0.43-3.91-0.43-6h47.93l9.58,12.24h114.37
									c21.79,0,11.85-20.43,28.05-20.43C316.858,291.39,388.238,291.39,388.238,291.39z"/>
							</g>
							<path style="opacity:0.4;fill:#FFFFFF;" d="M388.238,291.39c0,2.04-0.05,4.04-0.14,6h-87.43c-3.34,0-3.86,0.69-5.93,5.47
								c-2.42,5.59-6.48,14.96-22.12,14.96h-117.29l-9.58-12.24h-44.58c-0.28-1.91-0.43-3.91-0.43-6h47.93l9.58,12.24h114.37
								c21.79,0,11.85-20.43,28.05-20.43C316.858,291.39,388.238,291.39,388.238,291.39z"/>
						</g>
						<polygon style="fill:#FFFFFF;" points="353.588,291.39 333.208,291.39 335.378,274.81 336.098,269.28 339.468,243.46 
							340.098,238.6 346.698,238.6 347.428,244.23 350.698,269.28 351.418,274.81 						"/>
						<polygon style="fill:#EAEAEA;" points="351.418,274.81 335.378,274.81 336.098,269.28 350.698,269.28 						"/>
						<path style="fill:#EAEAEA;" d="M347.428,244.23c-0.23,0.08-0.46,0.14-0.7,0.19c-1.67,0.34-3.86,0.04-5.5-0.34
							c-0.59-0.14-1.18-0.35-1.76-0.62l0.63-4.86h6.6L347.428,244.23z"/>
						<g>
							<polygon style="fill:#F46C7A;" points="350.723,269.464 336.071,269.464 337.005,262.307 349.789,262.307 							"/>
						</g>
						<path style="fill:#FFFFFF;" d="M350.728,227.04v5.02c0,4.05-3.28,7.33-7.33,7.33c-4.05,0-7.33-3.28-7.33-7.33v-5.02H350.728z"
							/>
						<g>
							<rect x="336.068" y="227.04" style="fill:#F46C7A;" width="14.66" height="5.02"/>
						</g>
						<rect x="336.068" y="227.04" style="opacity:0.4;fill:#FFFFFF;" width="14.66" height="2.51"/>
						<path style="fill:#FFC1BB;" d="M109.358,299.421"/>
						<g>
							<rect x="133.582" y="267.254" style="fill:#F46C7A;" width="40.793" height="6.701"/>
						</g>
						<polygon style="fill:#EAEAEA;" points="133.578,219.32 133.578,252.17 123.088,245.46 102.688,232.4 102.688,219.32 						"/>
						<g style="opacity:0.15;">
							<ellipse style="fill:#424242;" cx="247.986" cy="366.561" rx="130.325" ry="11.269"/>
						</g>
						<path style="fill:#CCCCCC;" d="M133.578,219.32v32.85l-10.49-6.71C124.918,233.99,133.578,219.32,133.578,219.32z"/>
						<g>
							<path style="fill:#F46C7A;" d="M381.178,333.19c-2.69,7.49-5.85,13.72-8.91,18.56c-1.9,2.98-3.75,5.43-5.43,7.32
								c-3.91,4.38-9.53,6.84-15.4,6.84h-222.36c-6.44,0-11.65-5.22-11.65-11.66c0-0.85-0.03-1.68-0.08-2.5
								c-0.43-7.14-2.67-13.17-5.38-18.91h268.48C380.448,332.84,380.708,332.96,381.178,333.19z"/>
						</g>
						<path style="opacity:0.15;fill:#FFFFFF;" d="M363.525,338.636c0,0-88.779,0-91.478,0s-5.7,2.365-2.516,4.748
							c2.487,1.863,6.256,1.343,9.141,1.481c6.104,0.292,12.213,0.004,18.319-0.05c12.881-0.115,25.725-0.456,38.566-0.458
							c8.803-0.001,17.893,1.234,26.659,0.237c1.773-0.202,5.475-0.576,6.698-2.235
							C371.117,339.373,365.993,338.636,363.525,338.636z"/>
						<g>
							<path style="fill:#CC5068;" d="M372.268,351.75c-1.9,2.98-3.75,5.43-5.43,7.32c-3.91,4.38-9.53,6.84-15.4,6.84h-222.36
								c-6.44,0-11.65-5.22-11.65-11.66c0-0.85-0.03-1.68-0.08-2.5H372.268z"/>
						</g>
						<g>
							<rect x="174.375" y="285.792" style="fill:#EFA460;" width="46.29" height="26.025"/>
						</g>
						<g>
							<g>
								<rect x="220.665" y="285.792" style="fill:#F2C96D;" width="46.29" height="26.025"/>
							</g>
						</g>
						<rect x="174.378" y="285.832" style="opacity:0.4;fill:#FFFFFF;" width="92.58" height="4.64"/>
					</g>
				</g>
				<g>
					<path d="M370.992,290.387c-5.976-16.478-11.953-32.956-17.929-49.434c-0.658-1.815-1.938-4.098-1.88-5.978
						c0.071-2.318,1.301-5.385,0.541-7.763c-0.529-1.653-2.184-1.176-3.715-1.176c-2.767,0-5.534,0-8.3,0
						c-1.3,0-3.839-0.541-4.569,0.748c-0.726,1.282-0.195,5.069,0.044,6.566c0.261,1.643,0.548,1.718,0.187,3.082
						c-0.866,3.276-2.359,6.504-3.513,9.687c-1.867,5.147-3.734,10.294-5.601,15.442c-3.243,8.941-6.485,17.881-9.728,26.822
						c-0.145,0.399-0.367,1.707-0.717,1.977c-0.702,0.542-3.85,0.027-4.718,0.027c-1.009,0-4.987,0.637-5.793-0.009
						c-0.463-0.371-0.466-3.117-0.55-3.681c-0.786-5.26-1.572-10.52-2.358-15.78c-0.08-0.535-0.088-3.124-0.535-3.487
						c-0.711-0.577-4.256,0-5.15,0c-2.66,0-5.32,0-7.98,0c-1.291,0-1.162-0.232-1.573,0.553c-0.518,0.989-0.272,3.2-0.366,4.299
						c-0.199,2.338-0.398,4.675-0.597,7.013c-0.489,5.743-0.978,11.486-1.467,17.228c-0.191,2.244-0.382,4.488-0.573,6.732
						c-0.093,1.095,0.077,2.731-0.32,3.764c-0.714,1.854-4.036,2.83-5.825,3.249c-1.831,0.428-3.704,0.528-5.577,0.548
						c-1.064,0.011-2.878,0.376-3.842,0c-0.563-0.22-0.387,0.126-0.63-0.25c-0.216-0.334,0-1.601,0-1.979c0-2.335,0-4.671,0-7.006
						c0-7.207,0-14.408,0-21.61c0-5.515,0-11.03,0-16.545c0-2.29,0.732-4.743-2.028-4.859c-9.547-0.403-19.197,0-28.752,0
						c-15.779,0-31.559,0-47.338,0c-4.269,0-8.539,0-12.808,0c-0.533,0-1.378,0.134-1.652-0.159
						c-0.35-0.375-0.275-5.185,0.009-5.698c0.319-0.575,1.878-1.202,2.411-1.543c1.863-1.192,3.727-2.385,5.59-3.577
						c4.678-2.993,9.355-5.986,14.033-8.979c1.959-1.254,3.919-2.507,5.878-3.761c0.684-0.438,2.46-1.14,2.894-1.852
						c0.435-0.713,0.083-2.595,0.083-3.448c0-2.69,0-5.381,0-8.071c0-0.771,0.306-2.122-0.211-2.509
						c-0.653-0.49-1.401-0.65-2.2-0.65c-5.392,0-12.937,0-18.329,0c-3.264,0-6.528,0-9.791,0c0.793-2.492,1.585-4.983,2.378-7.475
						c0.474-1.49,1.262-2.818-0.62-3.307c-1.29-0.335-3.118,0-4.439,0c-2.592,0-5.185,0-7.777,0c-11.354,0-22.791-0.415-34.138,0
						c-1.801,0.066-2.072,0.742-1.568,2.499c0.798,2.781,1.758,5.525,2.635,8.282c-8.791,0-17.582,0-26.373,0
						c-0.672,0-3.489-0.443-4.038,0c-0.437,0.353-0.12,2.774-0.12,3.394c0,2.69,0,5.381,0,8.071c0,0.898-0.308,2.526,0.147,3.253
						c0.466,0.744,2.253,1.442,2.978,1.906c1.91,1.222,3.82,2.444,5.73,3.666c4.815,3.081,9.631,6.162,14.446,9.243
						c1.769,1.132,3.538,2.264,5.308,3.396c0.514,0.329,1.966,0.905,2.281,1.46c0.219,0.385,0.009,1.45,0.009,1.886
						c0,1.728,0,3.455,0,5.183c0,10.717,0,21.433,0,32.15c0,0.954,0.663,5.992-0.05,6.65c-0.389,0.359-2.84,0-3.332,0
						c-2.337,0-4.673,0-7.01,0c-5.631,0-11.262,0-16.893,0c-1.294,0-5.432-0.098-5.558,0c-0.616,0.481,0.197,5.182,0.281,5.905
						c1.088,9.352,5.494,17.542,9.615,25.84c2.039,4.105,3.972,8.288,5.215,12.713c0.668,2.377,1.14,4.807,1.383,7.265
						c0.227,2.307-0.002,4.687,0.55,6.951c1.817,7.444,8.462,9.652,15.163,9.652c4.919,0,9.838,0,14.757,0
						c18.454,0,36.908,0,55.362,0c23.053,0,46.106,0,69.159,0c19.406,0,38.812,0,58.218,0c5.676,0,11.352,0,17.028,0
						c4.458,0,8.767,0.157,13.039-1.546c6.69-2.667,11.013-8.688,14.615-14.649c3.965-6.563,7.003-13.681,9.325-20.98
						c2.901-9.119,4.662-18.589,5.395-28.127c0.194-2.533,0.313-5.071,0.362-7.611c0.01-0.546,0.359-3.241-0.117-3.607
						c-0.821-0.631-4.703,0-5.696,0C379.261,290.387,375.126,290.387,370.992,290.387z M368.865,290.387c-2.124,0-4.248,0-6.372,0
						c-1.432,0-2.864,0-4.297,0c-0.717,0-2.761,0.365-3.401,0c-1.098-0.626-1.029-5.34-1.208-6.705
						c-1.547-11.863-3.095-23.727-4.642-35.59c-0.298-2.283-0.596-4.566-0.893-6.85c-0.329-2.521-0.195-1.63,1.633-3.739
						c5.589,15.41,11.178,30.82,16.767,46.229C367.256,285.95,368.06,288.168,368.865,290.387z M337.158,233.061
						c4.159,0,8.319,0,12.478,0C348.534,239.957,338.262,239.966,337.158,233.061z M343.397,240.387c0.83,0,1.685-0.129,2.477-0.376
						c0.926,7.099,1.852,14.198,2.778,21.297c-3.503,0-7.007,0-10.51,0c0.926-7.099,1.852-14.198,2.778-21.297
						C341.712,240.258,342.567,240.387,343.397,240.387z M337.88,263.308c3.032,0,6.065,0,9.097,0c1.298,0,1.538-0.284,2.015,0.609
						c0.591,1.107,0.427,3.277,0.593,4.547c-4.126,0-8.252,0-12.377,0C337.432,266.745,337.656,265.026,337.88,263.308z
						 M336.947,270.464c2.961,0,5.922,0,8.883,0c0.698,0,3.314-0.442,3.895,0c0.305,0.232,0.278,1.196,0.335,1.636
						c0.795,6.096,1.59,12.191,2.385,18.287c-6.032,0-12.065,0-18.097,0C335.214,283.746,336.081,277.105,336.947,270.464z
						 M349.723,228.037c0,0.708,0.29,2.631-0.126,3.024c-0.421,0.397-3.184,0-3.749,0c-1.887,0-3.774,0-5.661,0
						c-0.476,0-2.758,0.337-3.116,0c-0.22-0.207-0.073-2.892,0.079-3.024c0.445-0.385,2.968,0,3.536,0
						C343.699,228.037,346.711,228.037,349.723,228.037z M337.109,237.502c1.58,1.824,1.971,1.142,1.691,3.288
						c-0.236,1.812-0.473,3.624-0.709,5.435c-0.758,5.809-1.515,11.617-2.273,17.426c-0.791,6.067-1.583,12.134-2.374,18.201
						c-0.263,2.017-0.526,4.033-0.789,6.05c-0.05,0.386-0.011,2.193-0.323,2.476c-0.237,0.215-1.625,0.008-1.948,0.008
						c-1.659,0-3.318,0-4.978,0c-2.493,0-4.986,0-7.478,0c5.589-15.41,11.178-30.82,16.768-46.23
						C335.5,241.938,336.305,239.72,337.109,237.502z M300.146,269.43c0.156,1.047,0.313,2.094,0.469,3.141
						c-3.949,0-7.897,0-11.846,0c0.053-0.618-0.101-2.763,0.304-3.141c0.35-0.327,2.636,0,3.097,0
						C294.829,269.43,297.488,269.43,300.146,269.43z M288.599,274.57c2.515,0,5.031,0,7.546,0c1.521,0,4.185-0.617,4.857,0.592
						c0.442,0.795,0.367,2.457,0.5,3.346c0.253,1.69,0.505,3.38,0.758,5.07c0.339,2.27,0.678,4.539,1.017,6.809
						c-3.778,0-7.64-0.015-10.639,2.646c-3.41,3.026-4.25,7.893-6.6,11.621C286.892,294.626,287.746,284.598,288.599,274.57z
						 M175.375,310.816c0-4.648,0-9.297,0-13.945c0-1.776-0.929-9.327,0.442-10.079c0.919-0.504,3.576,0,4.601,0
						c2.709,0,5.418,0,8.127,0c6.491,0,12.981,0,19.472,0c2.499,0,4.997,0,7.496,0c0.661,0,3.42-0.435,3.965,0
						c0.443,0.354,0.187,1.999,0.187,2.681c0,2.926,0,5.851,0,8.777c0,2.972,0,5.944,0,8.916c0,0.527,0.359,3.297-0.037,3.65
						c-0.399,0.356-2.793,0-3.295,0c-2.444,0-4.888,0-7.332,0C197.792,310.816,186.584,310.816,175.375,310.816z M173.375,259.568
						c0,1.364,0.633,6.094-0.26,6.686c-1.06,0.702-4.984,0-6.226,0c-7.689,0-15.379,0-23.068,0c-2.656,0-5.487,0.28-8.13,0
						c-1.357-0.143-1.015,0.191-1.109-1.207c-0.409-6.085,0-12.339,0-18.435c0-7.378,0-14.756,0-22.135c0-0.562-0.432-3.699,0-4.146
						c0.434-0.448,3.484-0.009,4.106-0.009c7.558,0,15.115,0,22.673,0c3.18,0,6.361,0,9.541,0c1,0,2.064-0.28,2.472,0.363
						c0.305,0.48,0,2.1,0,2.648c0,1.699,0,3.397,0,5.096c0,4.394,0,8.787,0,13.181C173.375,247.596,173.375,253.582,173.375,259.568
						z M134.582,268.254c12.415,0,24.83,0,37.244,0c0.244,0,1.312-0.166,1.506,0c0.272,0.232,0.238,3.563,0.042,4.066
						c-0.392,1.009,0.247,0.313-0.653,0.636c-0.782,0.28-2.28,0-3.099,0c-7.676,0-15.352,0-23.027,0c-3.449,0-6.898,0-10.347,0
						c-0.21,0-1.486,0.171-1.667,0C134.065,272.465,134.582,269.04,134.582,268.254z M221.665,286.792c9.674,0,19.347,0,29.021,0
						c4.588,0,9.65-0.61,14.204,0c1.245,0.167,0.769-0.294,1.065,0.776c0.564,2.036,0,5.046,0,7.152c0,3.151,0,6.301,0,9.452
						c0,1.243,0.703,5.239,0,6.311c-0.694,1.058-6.238,0.333-7.668,0.333c-11.478,0-22.957,0-34.435,0
						c-0.777,0-1.833,0.21-2.187-0.262c-0.296-0.395,0-2.118,0-2.602c0-1.515,0-3.029,0-4.544
						C221.665,297.87,221.665,292.331,221.665,286.792z M265.955,284.594c-9.674,0-19.347,0-29.021,0c-4.588,0-9.65,0.61-14.204,0
						c-1.245-0.167-0.769,0.294-1.065-0.776c-0.564-2.036,0-5.046,0-7.152c0-3.151,0-6.302,0-9.452c0-1.243-0.703-5.239,0-6.311
						c0.694-1.058,6.238-0.333,7.668-0.333c11.478,0,22.957,0,34.435,0c0.777,0,1.833-0.21,2.187,0.262c0.296,0.395,0,2.118,0,2.602
						c0,1.515,0,3.029,0,4.544C265.955,273.515,265.955,279.054,265.955,284.594z M219.665,260.568c0,4.649,0,9.297,0,13.946
						c0,1.776,0.929,9.328-0.442,10.08c-0.919,0.504-3.576,0-4.601,0c-2.709,0-5.418,0-8.127,0c-6.491,0-12.981,0-19.472,0
						c-2.499,0-4.997,0-7.496,0c-0.661,0-3.42,0.435-3.965,0c-0.443-0.354-0.187-1.999-0.187-2.681c0-2.926,0-5.852,0-8.777
						c0-2.972,0-5.944,0-8.916c0-0.527-0.359-3.297,0.037-3.651c0.399-0.356,2.793,0,3.295,0c2.444,0,4.888,0,7.332,0
						C197.248,260.568,208.457,260.568,219.665,260.568z M204.274,231.852c-9.633,6.163-19.266,12.327-28.899,18.49
						c0-4.356,0-8.713,0-13.069c0-3.379,0-6.758,0-10.137c0-1.644-0.598-4.637,0-6.18c0.368-0.949,0.463-0.634,1.842-0.634
						c2.565,0,5.13,0,7.695,0c5.933,0,11.867,0,17.8,0c2.206,0,1.562,0.559,1.562,2.825
						C204.274,226.049,204.274,228.951,204.274,231.852z M176.438,209.541c-0.604,1.897-1.207,3.794-1.81,5.691
						c-0.304,0.955-0.491,2.679-1.292,3.091c-0.739,0.38-2.723,0-3.537,0c-2.227,0-4.455,0-6.682,0c-5.409,0-10.818,0-16.227,0
						c-2.414,0-4.828,0-7.241,0c-1.375,0-3.089,0.279-4.44,0c-1.306-0.269-0.984-0.285-1.498-1.901
						c-0.73-2.294-1.459-4.587-2.189-6.881C146.493,209.541,161.465,209.541,176.438,209.541z M103.684,231.852
						c0-2.561,0-5.123,0-7.684c0-1.266-0.506-3.385,0.487-3.845c1.477-0.685,4.916,0,6.516,0c3.22,0,6.441,0,9.661,0
						c3.028,0,6.057,0,9.085,0c0.549,0,2.786-0.319,3.149,0.054c0.506,0.52,0,4.045,0,4.743c0,3.127,0,6.253,0,9.38
						c0,5.281,0,10.562,0,15.844C122.949,244.179,113.317,238.016,103.684,231.852z M134.582,274.955c10.624,0,21.248,0,31.871,0
						c1.825,0,4.318-0.446,6.1,0c0.164,0.041,0.7-0.114,0.821,0c0.31,0.292,0,2.494,0,2.923c0,3.941,0,7.883,0,11.824
						c0,6.24,0,12.48,0,18.72c0,1.681,0.496,2.094-0.889,2.394c-2.759,0.597-6.292,0-9.117,0c-1.412,0-3.741,0.456-4.876-0.312
						c-0.739-0.5-1.396-1.781-1.943-2.479c-1.096-1.399-2.193-2.799-3.289-4.198c-1-1.276-2.627-4.497-4.103-5.237
						c-1.405-0.704-4.928-0.01-6.475-0.01c-1.801,0-3.602,0-5.402,0c-0.383,0-2.412,0.283-2.699,0c-0.624-0.614,0-5.113,0-5.962
						C134.582,286.731,134.582,280.843,134.582,274.955z M366.092,358.404c-4.925,5.517-11.494,6.502-18.347,6.502
						c-5.412,0-10.825,0-16.237,0c-19.555,0-39.11,0-58.665,0c-23.68,0-47.36,0-71.04,0c-18.786,0-37.572,0-56.358,0
						c-4.739,0-9.479,0-14.218,0c-0.712,0-1.43,0.024-2.142,0c-3.455-0.116-6.652-1.629-8.685-4.481
						c-2.706-3.795-1.814-8.616-2.531-12.979c-0.776-4.725-2.379-9.256-4.344-13.609c8.845,0,17.69,0,26.535,0
						c21.236,0,42.473,0,63.709,0c25.59,0,51.18,0,76.77,0c22.203,0,44.406,0,66.61,0c7.295,0,14.59,0,21.885,0
						c2.29,0,4.579,0,6.869,0c0.787,0,2.885-0.395,3.587,0c0.089,0.05,0.334,0,0.446,0
						C376.702,342.607,372.36,351.383,366.092,358.404z M380.444,332.429c0.202-0.998-1.153-0.591-1.847-0.591
						c-1.898,0-3.795,0-5.693,0c-7.06,0-14.121,0-21.181,0c-22.896,0-45.791,0-68.687,0c-27.201,0-54.401,0-81.602,0
						c-21.892,0-43.783,0-65.675,0c-6.176,0-12.352,0-18.528,0c-1.147,0-2.981,0.36-4.081,0c-0.145-0.047-0.421,0.078-0.551,0
						c-0.594-0.358-1.43-2.921-1.72-3.498c-0.55-1.097-1.108-2.19-1.659-3.287c-1.325-2.637-2.625-5.289-3.746-8.021
						c-2.153-5.245-3.581-10.762-3.721-16.452c10.205,0,20.411,0,30.616,0c4.804,0,10.018-0.578,14.793,0
						c1.231,0.149,1.038,0.029,1.926,1.163c1.96,2.502,3.921,5.004,5.881,7.506c0.847,1.081,1.897,3.161,3.166,3.567
						c2.232,0.716,5.876,0,8.212,0c3.381,0,6.761,0,10.142,0c12.173,0,24.346,0,36.519,0c17.935,0,35.871,0,53.806,0
						c6.059,0,12.903,0.603,17.884-3.519c5.261-4.354,5.243-14.206,12.188-16.408c2.416-0.766,5.21-0.502,7.72-0.502
						c3.24,0,6.479,0,9.719,0c4.152,0,8.305,0,12.458,0c18.056,0,36.111,0,54.167,0c2.093,0,4.187,0,6.28,0
						C387.13,305.972,384.973,319.603,380.444,332.429z"/>
					<ellipse cx="197.52" cy="298.804" rx="1" ry="7.973"/>
					<ellipse cx="209.093" cy="298.804" rx="1" ry="7.973"/>
					<ellipse cx="185.948" cy="298.804" rx="1" ry="7.973"/>
					<ellipse cx="243.81" cy="298.804" rx="1" ry="7.973"/>
					<ellipse cx="255.382" cy="298.804" rx="1" ry="7.973"/>
					<ellipse cx="232.238" cy="298.804" rx="1" ry="7.973"/>
					<ellipse cx="243.81" cy="272.581" rx="1" ry="7.974"/>
					<ellipse cx="255.382" cy="272.581" rx="1" ry="7.974"/>
					<ellipse cx="232.238" cy="272.581" rx="1" ry="7.974"/>
					<ellipse cx="197.52" cy="272.581" rx="1" ry="7.974"/>
					<ellipse cx="209.093" cy="272.581" rx="1" ry="7.974"/>
					<ellipse cx="185.948" cy="272.581" rx="1" ry="7.974"/>
					<path d="M166.293,233.184c0-4.481-6.84-5.46-8.652-1.693c-0.515,1.071-0.991,6.187-0.231,6.77c0.493,0.379,2.948,0,3.549,0
						c1.359,0,3.062,0.275,4.393,0c1.174-0.242,0.869,0.214,0.941-1.243C166.356,235.746,166.293,234.457,166.293,233.184z
						 M164.293,236.26c-1.207,0-3.352,0.44-4.451,0c-0.926-0.371-0.285,0.273-0.596-0.798c-0.143-0.49-0.111-1.716,0-2.226
						c0.405-1.859,2.904-2.979,4.453-1.429C164.715,232.823,164.293,234.95,164.293,236.26z"/>
					<path d="M149.456,245.923c0,1.199,0,2.398,0,3.597c0,1.435-0.272,1.182,0.781,1.48c1.209,0.343,3.028,0,4.283,0
						c0.632,0,3.337,0.413,3.818,0c0.697-0.598,0.336-5.331-0.084-6.46C156.723,240.43,149.456,241.306,149.456,245.923z
						 M151.456,245.923c0-2.173,3.523-2.707,4.666-1.163c0.403,0.544,0.815,3.819,0.344,4.24c-0.348,0.311-4.194,0.204-4.572,0
						C151.085,248.565,151.456,247.048,151.456,245.923z"/>
					<path d="M151.979,233.184c0-4.481-6.84-5.46-8.652-1.693c-0.515,1.071-0.991,6.187-0.231,6.77c0.493,0.379,2.948,0,3.549,0
						c1.359,0,3.062,0.275,4.393,0c1.174-0.242,0.869,0.214,0.941-1.243C152.042,235.746,151.979,234.457,151.979,233.184z
						 M149.979,236.26c-1.207,0-3.352,0.44-4.451,0c-0.926-0.371-0.285,0.273-0.596-0.798c-0.143-0.49-0.111-1.716,0-2.226
						c0.405-1.859,2.904-2.979,4.453-1.429C150.401,232.823,149.979,234.95,149.979,236.26z"/>
					<path d="M162.466,343.151c15.807,0,31.614,0,47.421,0c1.158,0,2.499,0.187,3.644,0c1.152-0.188,0.807,0.388,1.084-0.759
						c0.521-2.16-2.994-1.241-4.395-1.241c-9.44,0-18.879,0-28.319,0c-4.845,0-9.691,0-14.536,0c-1.205,0-2.892-0.311-4.062,0
						C162.059,341.482,162.466,341.337,162.466,343.151z"/>
					<path d="M162.466,352.753c15.807,0,31.614,0,47.421,0c1.158,0,2.499,0.187,3.644,0c1.152-0.188,0.807,0.388,1.084-0.759
						c0.521-2.16-2.994-1.241-4.395-1.241c-9.44,0-18.879,0-28.319,0c-4.845,0-9.691,0-14.536,0c-1.205,0-2.892-0.311-4.062,0
						C162.059,351.084,162.466,350.939,162.466,352.753z"/>
				</g>
			</g>
			<g>
				<defs>
					<path id="SVGID_00000043425496999919248160000016492454995077157041_" d="M322.565,355.78V500H41.109V270.646h67.658v27.934
						h-3.469c-1.29,0-5.43-0.1-5.56,0c-0.61,0.48,0.2,5.18,0.28,5.91c1.09,9.35,5.5,17.54,9.62,25.84c2.04,4.1,3.97,8.28,5.21,12.71
						c0.67,2.38,1.14,4.828,1.39,7.278c0,0,2.907-1.894,5.342-2.156c2.544-0.273,4.939-0.144,8.178,0.597s11.185,2.973,14.86,4.172
						s12.55,3.986,12.55,3.986L322.565,355.78z"/>
				</defs>
				<clipPath id="SVGID_00000133501688025486351210000005325521445764529051_">
					<use xlink:href="#SVGID_00000043425496999919248160000016492454995077157041_"  style="overflow:visible;"/>
				</clipPath>
				<g style="clip-path:url(#SVGID_00000133501688025486351210000005325521445764529051_);">
					<g>
						<path style="fill:#FFC1BB;" d="M316.438,500h-70.41c-1.29-14.01-5.9-52.33-11.19-56.93c-6.23-5.45-66.03-12.63-82.06-18.94
							c-16.81-6.63-46.46-38.14-58.49-54.79c-12.02-16.63-39.45-53.27-39.45-53.27c-3.47-3.85-3.16-9.78,0.7-13.27
							c1.67-1.5,3.73-2.3,5.81-2.39c0.02-3.12,1.3-6.24,3.82-8.53c4.69-4.21,11.85-3.89,16.15,0.68l-0.01,0.02l0.11,0.09
							c-0.04-0.04-0.07-0.07-0.1-0.11c0.56-2.21,1.85-4.25,3.82-5.7c4.51-3.32,10.82-2.36,14.12,2.13l7.97,9.59l49.64,59.7
							c13.86,4,29.58,7.21,44.38,4.15c22.02-4.57,42.94-6.39,60.08,4.48c8.16,5.17,15.45,13.22,21.6,25.22
							c5.15,10.06,10.02,22.66,14.38,35.76C306.938,456.79,314.128,488.13,316.438,500z"/>
						<path style="opacity:0.2;fill:#FFFFFF;" d="M116.29,369.107c0.422,1.046,1.61,2.314,2.381,3.145
							c1.103,1.19,2.165,2.075,3.437,3.058c2.513,1.941,4.551,4.975,7.774,5.86c1.082,0.297,1.562-0.133,2.176-1.023
							c0.791-1.147,1.252-2.432,1.903-3.643c0.804-1.496,1.69-2.861,2.38-4.429c0.735-1.669,1.913-4.415,1.444-6.259
							c-0.63-2.478-3.488-4.715-5.836-5.374c-2.747-0.772-5.993-0.682-8.409,0.895c-1.333,0.87-2.736,1.657-3.843,2.81
							C118.516,365.377,116.663,367.558,116.29,369.107z"/>
						<path style="opacity:0.2;fill:#FFFFFF;" d="M187.721,372.145c0.837-1.491,2.465-2.366,4.174-2.439
							c2.826-0.122,5.855-0.987,8.547-1.233c5.384-0.492,10.732-1.238,16.122-1.752c10.364-0.989,21.097-1.342,31.011,2.323
							c2.956,1.093,9.62,2.878,10.757,6.243c1.098,3.251-3.255,3.961-5.513,4.273c-4.449,0.616-8.455-0.648-12.832-1.313
							c-6.935-1.054-13.898-2.216-20.912-2.68c-7.833-0.519-15.988,0.045-23.829,0.391c-2.248,0.099-4.325,0.345-6.294-0.97
							C187.448,373.98,187.104,373.244,187.721,372.145z"/>
						<path style="opacity:0.2;fill:#FFFFFF;" d="M125.261,353.13c-0.583-0.36-1.784-0.321-2.442-0.238
							c-1.042,0.131-1.99,0.523-2.922,0.881c-1.683,0.648-3.972,2.415-4.195,3.996c-0.226,1.601,2.313,1.373,3.544,1.25
							c2.184-0.219,4.404-0.989,6.039-2.116c0.593-0.409,0.912-0.961,1.1-1.577C126.678,354.362,126.253,353.878,125.261,353.13z"/>
						<path style="opacity:0.2;fill:#FFFFFF;" d="M60.262,313.405c1.167-7.528,9.964,4.425,11.499,6.539
							c6.283,8.657,12.207,17.56,18.35,26.359c1.396,1.999,2.628,4.058,3.981,6.09c0.787,1.182,3.858,4.554,3.463,6.151
							c-0.693,2.809-6.462-3.606-7.552-4.662c-3.159-3.06-5.553-6.933-8.281-10.348c-3.091-3.869-6.397-7.54-9.338-11.55
							C68.012,326.024,61.862,320.758,60.262,313.405z"/>
						<path style="fill:#F7AEAA;" d="M61.348,300.41c0,0,4.503-0.268,7.515,3.219c3.011,3.487,44.663,50.56,44.663,50.56
							s2.546-3.011,6.559-4.121s9.164-0.693,9.164-0.693s-36.612-43.527-40.812-48.202s-7.119-8.613-7.119-8.613
							s-6.979-6.117-13.481-2.477C61.334,293.723,61.348,300.41,61.348,300.41z"/>
						<path style="fill:#F7AEAA;" d="M316.438,500h-46.81c3.85-7.41,7.66-14.86,11.03-22.49c3.98-9.02,6.75-18.38,9.69-27.74
							c2.28-7.25,5.03-14.4,6.93-21.77c0.01-0.04,0.02-0.07,0.03-0.11C306.938,456.79,314.128,488.13,316.438,500z"/>
						<path style="fill:#F7AEAA;" d="M116.793,370.322c0,0-0.193,12.893,16.001,21.44c16.194,8.547,37.09,14.577,51.982,10.737
							c0,0-34.374-11.76-42.554-15.498C134.041,383.264,122.234,377.371,116.793,370.322z"/>
					</g>
					<path d="M317.388,499.67c-0.76-3.97-1.65-7.9-2.52-11.84c-6.81-29.87-14.79-60.14-27.28-88.2
						c-6.54-14.71-15.47-28.85-30.39-36.15c-15.85-7.76-34.12-6.16-50.93-3.05c-8.78,1.63-17.1,2.53-26.02,1.49
						c-4.28-0.5-8.53-1.28-12.72-2.26c-3.02-0.69-8.13-1.14-10.63-2.92c-2.21-1.57-4.09-4.96-5.8-7.04
						c-2.77-3.36-5.53-6.71-8.3-10.07c-7.16-8.7-14.37-17.36-21.56-26.04c-5.45-6.58-10.91-13.17-16.36-19.75
						c-1.53-1.84-2.99-3.75-4.59-5.53c-5.45-6.11-16.33-6.47-19.5,2.39c-5.14-4.28-13.04-3.63-17.42,1.4
						c-0.68,0.77-1.3,1.7-1.76,2.63c-0.46,0.94-0.7,4.2-1.24,4.78c-1.1,1.16-4.21,1.31-5.68,2.68c-6.46,5.99-2.03,12.83,1.94,18.23
						c6.61,8.97,13.21,17.93,19.81,26.9c8.62,11.71,16.96,23.77,26.4,34.82c9.73,11.4,20.3,22.31,31.92,31.79
						c4.36,3.56,8.94,7.01,13.94,9.63c6.59,3.45,14.14,4.87,21.36,6.38c17.94,3.76,36.22,6.16,54.01,10.55
						c3.04,0.75,7.8,1.33,10.13,3.62c3.1,3.02,3.77,9.57,4.64,13.5c3.06,13.85,4.84,28.12,6.16,42.23V500h2.31
						c-0.22-1.79-0.6-3.58-0.68-4.42c-0.75-7.45-1.67-14.9-2.76-22.31c-1-6.75-2.08-13.53-3.75-20.15
						c-0.98-3.89-1.86-9.08-5.39-11.55c-4.19-2.94-11.19-3.68-16.09-4.75c-4.62-1-9.26-1.89-13.91-2.76
						c-6.72-1.26-13.45-2.49-20.18-3.76c-13.27-2.5-27.79-4.16-39.3-11.71c-12.06-7.92-22.56-18.5-32.34-29.03
						c-11.59-12.49-21.51-26.3-31.67-39.95c-6.73-9.03-13.46-18.06-20.19-27.1c-2.41-3.24-7.11-7.89-7.45-12.1
						c-0.79-9.47,9.97-10.91,15.2-5.38c8.79,9.29,17,19.2,25.48,28.78c4.51,5.09,9.02,10.18,13.53,15.28
						c1.07,1.22,3.01,2.75,3.73,4.22c1.14,2.3-0.51,3.35-0.56,6.41c-0.16,12.16,13.75,20.66,23.21,25.2
						c11.8,5.65,24.25,10.06,36.65,14.19c3.36,1.12,6.73,2.2,10.11,3.26c0.78,0.25,7.85,3.25,7.3,0.87
						c-0.58-2.56-15.89-6.08-18.64-7.07c-11.62-4.18-23.27-8.49-34.37-13.94c-0.802-0.393-1.667-0.831-2.572-1.308
						c1.919-2.974,3.57-6,5.179-9.204c0.424-0.911,0.796-1.87,1.071-2.904c0.262-1.033,0.454-2.16,0.26-3.393
						c-0.105-0.607-0.276-1.243-0.616-1.809c-0.312-0.576-0.65-0.982-1.048-1.422c-0.785-0.856-1.762-1.481-2.746-1.948
						c-0.991-0.456-2.004-0.765-2.998-0.99c-0.506-0.115-0.974-0.21-1.5-0.292c-0.54-0.088-1.089-0.129-1.636-0.133
						c-2.203-0.023-4.349,0.695-6.128,1.845c-0.879,0.565-1.73,1.269-2.428,1.985c-0.708,0.715-1.382,1.446-2.001,2.242
						c-0.619,0.796-1.206,1.628-1.697,2.583c-0.04,0.077-0.072,0.165-0.11,0.244c-1.789-2.81-2.724-5.901-2.178-9.226
						c2.43-14.8,26.97-3.55,34.69-1.16c14.22,4.41,29.11,8.35,44.14,7.27c13.99-1,27.24-5.39,41.47-4.66
						c14.85,0.76,28.36,6.65,38.07,18.08c7.34,8.63,12.11,19.08,16.34,29.51c10.53,25.99,17.94,53.41,24.12,80.73
						c0.73,3.26,1.46,6.53,2.11,9.81c0.09,0.45,0.15,1.14,0.23,1.92h2.19C317.418,499.85,317.398,499.73,317.388,499.67z
						 M117.818,369.58c0.116-0.333,0.271-0.695,0.489-1.057c0.427-0.726,0.984-1.441,1.581-2.122
						c0.602-0.678,1.236-1.35,1.902-1.968c0.662-0.631,1.319-1.126,2.063-1.576c1.473-0.861,3.115-1.355,4.753-1.331
						c0.409,0.008,0.818,0.042,1.221,0.114c0.418,0.069,0.889,0.169,1.315,0.272c0.87,0.206,1.694,0.476,2.439,0.829
						c0.741,0.358,1.383,0.812,1.91,1.357c0.249,0.261,0.528,0.601,0.665,0.871c0.168,0.249,0.247,0.56,0.314,0.888
						c0.237,1.367-0.342,3.141-1.047,4.784c-0.718,1.668-1.603,3.416-2.437,5.105c-0.692,1.414-1.413,2.808-2.151,4.183
						c-4.522-2.528-9.648-5.963-13.058-10.117C117.79,369.735,117.794,369.669,117.818,369.58z M121.208,348.22
						c-2.82,0.42-5.76,2.29-7.6,4.41c-7.95-8.99-15.91-17.98-23.87-26.97c-5.05-5.7-10.1-11.4-15.14-17.1
						c-3.35-3.79-6.61-8.79-12.15-9.13c1.51-11.33,14.03-11.07,19.96-4.03c5.11,6.06,10.18,12.14,15.27,18.21
						c9.68,11.54,19.35,23.08,29.03,34.61C124.898,348,123.018,347.91,121.208,348.22z M129.758,348.76
						c-6.8-8.12-13.61-16.24-20.42-24.36c-5.08-6.05-10.15-12.11-15.23-18.16c-3.2-3.81-8.08-7.98-10.4-12.4
						c-1.02-1.95-1.32-0.42-0.59-2.79c2.18-7.11,11.61-5.14,15.24-1.22c3.15,3.39,5.99,7.17,8.95,10.73
						c7.67,9.19,15.34,18.39,23.01,27.58c7.7,9.23,15.42,18.43,23.15,27.64C145.608,353.36,137.818,350.44,129.758,348.76z"/>
				</g>
			</g>
		</g>
		<g>
			<ellipse style="opacity:0.15;fill:#424242;" cx="560.412" cy="366.561" rx="90.199" ry="11.269"/>
			<g>
				<g>
					<g>
						<g>
							<path style="fill:#F2C96D;" d="M629.638,265.82v88.51h-84.06v-88.51c0-2.29,1.86-4.14,4.14-4.14h75.77
								C627.778,261.68,629.638,263.53,629.638,265.82z"/>
						</g>
					</g>
					<rect x="545.578" y="329.47" style="fill:#EFA460;" width="84.06" height="12.71"/>
					<rect x="545.578" y="302.61" style="fill:#EFA460;" width="84.06" height="12.86"/>
					<g style="opacity:0.2;">
						<path style="fill:#FFFFFF;" d="M629.638,265.82v5.48c0-2.29-1.86-4.14-4.15-4.14h-75.77c-2.28,0-4.14,1.85-4.14,4.14v-5.48
							c0-2.29,1.86-4.14,4.14-4.14h75.77C627.778,261.68,629.638,263.53,629.638,265.82z"/>
					</g>
					<rect x="545.578" y="275.98" style="fill:#EFA460;" width="84.06" height="13.62"/>
					<path style="opacity:0.2;fill:#FFFFFF;" d="M553.259,289.629c0.179-5.625,0.417-11.662,3.381-16.623
						c1.524-2.552,4.414-3.361,6.424-0.774c3.743,4.818,4.075,13.264,3.926,19.03c-0.211,8.179,0.439,16.271,0.518,24.444
						c0.066,6.821,0.581,14.108-2.116,20.536c-0.842,2.007-3.326,5.779-6.026,4.558c-2.601-1.176-4.336-6.644-4.845-9.05
						C553.828,328.47,553.087,295.043,553.259,289.629z"/>
					<path d="M625.491,260.679c-24.508,0-49.017,0-73.525,0c-4.029,0-7.11,1.231-7.389,5.88c-0.251,4.176,0,8.446,0,12.628
						c0,15.876,0,31.752,0,47.628c0,6.668,0,13.335,0,20.003c0,1.93-1.048,7.499,1,8.513c1.948,0.965,6.791,0,8.905,0
						c7.055,0,14.111,0,21.166,0c15.293,0,30.586,0,45.878,0c1.794,0,7.766,1.038,8.964-0.646c1.129-1.587,0.146-6.814,0.146-8.617
						c0-15.175,0-30.35,0-45.525c0-11.317,0.754-22.922,0-34.219C630.441,263.387,628.826,260.679,625.491,260.679z
						 M628.637,303.692c0,3.03,0.713,6.957,0,9.871c-0.45,1.837,0.303,1.052-1.551,1.334c-5.218,0.793-11.191,0-16.457,0
						c-17.024,0-34.048,0-51.072,0c-2.878,0-5.756,0-8.635,0c-0.729,0-3.554,0.468-4.166,0c-1.087-0.831-0.49-10.711,0.443-11.205
						c1.072-0.568,4.036,0,5.226,0c3.136,0,6.272,0,9.408,0c8.452,0,16.904,0,25.356,0
						C601.004,303.692,614.82,303.692,628.637,303.692z M546.577,301.692c0-3.03-0.713-6.958,0-9.872
						c0.45-1.838-0.303-1.052,1.551-1.334c5.218-0.793,11.191,0,16.457,0c17.024,0,34.048,0,51.072,0c2.878,0,5.756,0,8.635,0
						c0.729,0,3.554-0.468,4.166,0c1.088,0.831,0.49,10.712-0.443,11.206c-1.072,0.568-4.036,0-5.226,0c-3.136,0-6.272,0-9.408,0
						c-8.452,0-16.904,0-25.356,0C574.209,301.692,560.393,301.692,546.577,301.692z M628.637,316.897c0,3.03,0.713,6.957,0,9.871
						c-0.45,1.837,0.303,1.052-1.551,1.334c-5.218,0.793-11.191,0-16.457,0c-17.024,0-34.048,0-51.072,0c-2.878,0-5.756,0-8.635,0
						c-0.729,0-3.554,0.468-4.166,0c-1.087-0.831-0.49-10.711,0.443-11.205c1.072-0.568,4.036,0,5.226,0c3.136,0,6.272,0,9.408,0
						c8.452,0,16.904,0,25.356,0C601.004,316.897,614.82,316.897,628.637,316.897z M628.637,288.486c-26.452,0-52.903,0-79.355,0
						c-0.436,0-2.398,0.275-2.705-0.037c-0.727-0.739-0.377-9.018,0-10.103c0.539-1.55-0.205-0.766,1.551-1.065
						c2.038-0.346,4.445,0,6.508,0c16.564,0,33.127,0,49.691,0c7.202,0,14.403,0,21.605,0c0.924,0,2.243-0.218,2.705,0.286
						c0.655,0.715,0,5.133,0,6.113C628.637,285.282,628.637,286.884,628.637,288.486z M546.577,330.103c26.452,0,52.903,0,79.355,0
						c0.436,0,2.398-0.275,2.705,0.037c0.728,0.739,0.377,9.019,0,10.104c-0.539,1.55,0.205,0.767-1.551,1.065
						c-2.038,0.346-4.445,0-6.508,0c-16.564,0-33.127,0-49.691,0c-7.202,0-14.403,0-21.605,0c-0.924,0-2.243,0.218-2.705-0.286
						c-0.655-0.715,0-5.133,0-6.114C546.577,333.307,546.577,331.705,546.577,330.103z M549.723,262.679c11.515,0,23.03,0,34.545,0
						c8.472,0,16.944,0,25.416,0c4.92,0,10.048-0.42,14.954,0c2.423,0.207,3.713,1.076,3.999,3.716
						c0.141,1.299,0.799,8.154-0.028,8.886c-0.39,0.345-2.694,0-3.186,0c-2.543,0-5.087,0-7.63,0c-16.398,0-32.795,0-49.193,0
						c-6.644,0-13.288,0-19.932,0c-1.967,0-1.536,0.341-2.091-1.052c-0.656-1.645-0.035-4.949,0-6.756
						C546.619,265.338,546.818,262.679,549.723,262.679z M546.577,353.331c0-1.393,0-2.786,0-4.179c0-0.957-0.609-4.72,0-5.499
						c0.409-0.523,1.142-0.344,2.091-0.344c5.783,0,11.566,0,17.348,0c16.755,0,33.511,0,50.266,0c2.737,0,5.474,0,8.21,0
						c0.643,0,3.452-0.43,3.965,0c0.897,0.752,0.179,6.118,0.179,7.424c0,2.391,0.473,2.056-1.088,2.598
						c-1.507,0.524-4.118,0-5.706,0c-3.158,0-6.317,0-9.475,0c-8.533,0-17.066,0-25.599,0
						C573.372,353.331,559.975,353.331,546.577,353.331z"/>
				</g>
				<g>
					<g>
						<g>
							<circle style="fill:#EFA460;" cx="520.435" cy="331.634" r="42.03"/>
							<path style="fill:#ED8962;" d="M562.468,331.63c0,23.22-18.82,42.03-42.03,42.03c-23.22,0-42.03-18.81-42.03-42.03
								c0-0.73,0.02-1.45,0.05-2.16c1.15,22.19,19.5,39.83,41.98,39.83c22.47,0,40.83-17.64,41.98-39.83
								C562.448,330.18,562.468,330.9,562.468,331.63z"/>
							<circle style="fill:#F2C96D;" cx="520.435" cy="331.634" r="34.676"/>
							<path style="opacity:0.2;fill:#FFFFFF;" d="M507.169,307.767c-5.785,3.012-9.963,8.753-11.544,15.029
								c-1.617,6.419,0.719,12.69,7.9,13.198c6.933,0.49,12.918-3.932,16.61-9.563c3.129-4.771,5.059-12.221,1.754-17.34
								C520.422,306.819,515.543,303.811,507.169,307.767z"/>
							<path style="opacity:0.3;fill:#FFFFFF;" d="M494.658,301.955c-2.657,1.384-4.577,4.021-5.303,6.904
								c-0.743,2.949,0.33,5.83,3.629,6.063c3.185,0.225,5.934-1.806,7.63-4.393c1.437-2.192,2.324-5.614,0.806-7.966
								C500.746,301.52,498.505,300.138,494.658,301.955z"/>
							<path style="fill:#EFA460;" d="M520.435,308.005L520.435,308.005c-2.799,0-5.067,2.269-5.067,5.067v37.123
								c0,2.799,2.269,5.067,5.067,5.067l0,0c2.799,0,5.067-2.269,5.067-5.067v-37.123
								C525.502,310.274,523.234,308.005,520.435,308.005z"/>
						</g>
					</g>
					<g>
						<g>
							<g>
								<path d="M520.435,374.664c-17.77,0-34.124-11.384-40.334-28.031c-6.288-16.856-1.104-36.315,12.626-47.897
									c13.75-11.599,33.879-13.356,49.409-4.249c15.446,9.057,23.844,27.24,20.635,44.871
									C559.099,359.533,540.932,374.664,520.435,374.664z M520.435,290.604c-37.513,0-55.045,48.445-26.296,72.504
									c28.919,24.2,73.661-2.144,66.601-39.172C557.103,304.851,539.854,290.604,520.435,290.604z"/>
							</g>
							<g>
								<path d="M520.435,367.31c-32.478,0-47.805-41.814-23.095-62.847c25.154-21.411,64.349,1.636,58.11,33.983
									C552.26,354.986,537.267,367.31,520.435,367.31z M520.435,297.958c-30.726,0-45.153,39.626-21.685,59.422
									c23.608,19.914,60.344-1.433,54.817-31.792C550.694,309.802,536.472,297.958,520.435,297.958z"/>
							</g>
							<g>
								<path d="M520.435,356.263c-9.292,0-6.067-19.126-6.067-24.629s-3.225-24.629,6.067-24.629
									c9.292,0,6.067,19.126,6.067,24.629S529.728,356.263,520.435,356.263z M520.435,309.005c-6.838,0-4.067,18.664-4.067,22.629
									c0,3.902-2.791,22.629,4.067,22.629c6.858,0,4.067-18.763,4.067-22.629C524.503,327.716,527.262,309.005,520.435,309.005z"
									/>
							</g>
						</g>
					</g>
				</g>
				<g>
					<g>
						<g>
							
								<ellipse transform="matrix(0.9254 -0.3789 0.3789 0.9254 -88.512 240.1942)" style="fill:#EFA460;" cx="566.006" cy="344.98" rx="36.968" ry="36.968"/>
							
								<ellipse transform="matrix(0.9255 -0.3787 0.3787 0.9255 -88.4877 240.0426)" style="fill:#F2C96D;" cx="566.006" cy="344.98" rx="30.499" ry="30.499"/>
							<path style="fill:#EFA460;" d="M555.887,326.827L555.887,326.827c-2.15,1.198-2.921,3.913-1.723,6.063l15.898,28.519
								c1.198,2.15,3.913,2.921,6.063,1.723l0,0c2.15-1.198,2.921-3.913,1.723-6.063L561.95,328.55
								C560.751,326.4,558.037,325.629,555.887,326.827z"/>
							<path style="opacity:0.2;fill:#FFFFFF;" d="M551.715,323.769c-3.096,2.094-5.334,5.226-6.643,8.727
								c-0.406,1.086-0.761,2.204-0.942,3.497c-0.523,3.722-1.008,6.952-0.066,10.658c1.479,5.817,6.156,10.325,12.507,8.814
								c6.784-1.614,10.576-8.194,11.687-14.518c1.041-5.926,0.547-13.779-4.832-17.559
								C559.367,320.536,555.287,321.354,551.715,323.769z"/>
						</g>
					</g>
					<g>
						<g>
							<g>
								<path d="M566.07,382.94c-34.873,0-51.045-45.018-24.265-67.211c25.881-21.448,66.035,0.544,61.867,33.909
									C601.333,368.367,585.022,382.94,566.07,382.94z M565.945,309.018c-33.508,0-48.385,43.816-22.069,64.307
									c24.837,19.338,61.832-1.757,57.797-32.994C599.384,322.608,583.786,309.018,565.945,309.018z"/>
							</g>
							<g>
								<path d="M566.06,376.473c-16.132,0-30.07-12.66-31.453-28.788c-1.498-17.464,12.126-33.188,29.636-34.157
									c17.143-0.948,32.266,12.52,33.216,29.689C598.441,360.999,583.926,376.473,566.06,376.473z M565.963,315.467
									c-16.647,0-30.267,14.424-29.433,31.018c0.765,15.21,13.489,27.51,28.638,27.965c15.165,0.455,28.426-11.124,30.145-26.181
									C597.285,330.988,583.317,315.467,565.963,315.467z"/>
							</g>
							<g>
								<path d="M573.962,364.699c-3.882,0-5.286-3.723-6.864-6.552c-2.313-4.15-4.626-8.299-6.939-12.449
									c-2.209-3.962-13.47-19.103-2.728-20.355c6.54-0.762,11.727,14.084,14.153,18.435
									C573.617,347.427,585.964,364.699,573.962,364.699z M556.373,327.701c-5.127,2.859,4.981,16.033,6.613,18.961
									c1.642,2.946,7.518,18.461,12.652,15.597c5.118-2.856-4.972-16.021-6.612-18.962
									C567.396,340.374,561.489,324.858,556.373,327.701z"/>
							</g>
						</g>
					</g>
				</g>
			</g>
			<g>
				<defs>
					<path id="SVGID_00000126311598490310626320000014194798312769880243_" d="M630.638,310.752v35.318
						c0,0.622,0.123,1.727,0.229,2.875c0,0-3.505-1.583-8.01-0.726c-4.505,0.857-12.613,3.04-12.613,3.04s-11.108,3.631-14.147,4.52
						s-2.914,0.555-2.914,0.555H430.588V499.67h278.303V277.127H638.31L630.638,310.752z"/>
				</defs>
				<clipPath id="SVGID_00000089572589112097315930000005609262691911844252_">
					<use xlink:href="#SVGID_00000126311598490310626320000014194798312769880243_"  style="overflow:visible;"/>
				</clipPath>
				<g style="clip-path:url(#SVGID_00000089572589112097315930000005609262691911844252_);">
					<g>
						<path style="fill:#FFC1BB;" d="M694.728,316.07c0,0-27.43,36.64-39.45,53.27c-12.03,16.65-41.68,48.16-58.49,54.79
							c-16.03,6.31-75.83,13.49-82.06,18.94c-5.29,4.6-9.9,42.92-11.19,56.93h-70.41c2.31-11.87,9.5-43.21,19.13-72.11
							c4.36-13.1,9.23-25.7,14.38-35.76c19.05-37.2,49.18-36.44,81.68-29.7c14.8,3.06,30.52-0.15,44.38-4.15l2.45-2.95l35.49-42.68
							l19.67-23.66c3.3-4.49,9.61-5.45,14.12-2.13c1.97,1.45,3.26,3.49,3.82,5.7c-0.03,0.04-0.06,0.07-0.1,0.11l0.11-0.09
							l-0.01-0.02c4.3-4.57,11.46-4.89,16.15-0.68c2.52,2.29,3.8,5.41,3.82,8.53c2.08,0.09,4.14,0.89,5.81,2.39
							C697.888,306.29,698.198,312.22,694.728,316.07z"/>
						<path style="fill:#F7AEAA;" d="M629.849,337.983v11.891c0,0,3.274,0.337,5.945,4.456c0,0,42.41-47.772,44.335-49.81
							c1.925-2.038,3.996-4.247,8.323-3.85c0,0-0.736-7.757-5.549-10.079c-4.813-2.322-11.324-1.869-15.571,3.001
							S629.849,337.983,629.849,337.983z"/>
						<path style="opacity:0.2;fill:#FFFFFF;" d="M619.564,381.012c-0.988-2.839-3.487-5.228-4.547-8.168
							c-1.054-2.923-3.19-6.645-1.039-9.614c2.449-3.381,8.613-4.019,12.062-2.143c1.493,0.812,2.589,2.314,3.807,3.425
							c0.993,0.905,2.407,2.414,3.034,3.62c1.024,1.972-1.668,3.937-3.089,5.04c-1.767,1.37-3.652,2.581-5.489,3.853
							C622.451,378.307,620.657,379.695,619.564,381.012z"/>
						<path style="fill:#F7AEAA;" d="M433.127,500h46.81c-3.85-7.41-7.66-14.86-11.03-22.49c-3.98-9.02-6.75-18.38-9.69-27.74
							c-2.28-7.25-5.03-14.4-6.93-21.77c-0.01-0.04-0.02-0.07-0.03-0.11C442.627,456.79,435.437,488.13,433.127,500z"/>
						<path style="fill:#F7AEAA;" d="M632.772,370.322c0,0,0.193,12.893-16.001,21.44c-16.194,8.547-37.089,14.577-51.982,10.737
							c0,0,34.374-11.76,42.554-15.498C615.524,383.264,627.331,377.371,632.772,370.322z"/>
					</g>
					<path d="M694.877,302.19c-1.47-1.37-4.58-1.52-5.68-2.68c-0.54-0.58-0.78-3.84-1.24-4.78c-0.46-0.93-1.08-1.86-1.76-2.63
						c-4.38-5.03-12.28-5.68-17.42-1.4c-3.17-8.86-14.05-8.5-19.5-2.39c-1.6,1.78-3.06,3.69-4.59,5.53
						c-5.45,6.58-10.91,13.17-16.36,19.75c-7.19,8.68-14.4,17.34-21.56,26.04c-2.77,3.36-5.53,6.71-8.3,10.07
						c-1.71,2.08-3.59,5.47-5.8,7.04c-2.5,1.78-7.61,2.23-10.63,2.92c-4.19,0.98-8.44,1.76-12.72,2.26
						c-8.92,1.04-17.24,0.14-26.02-1.49c-16.81-3.11-35.08-4.71-50.93,3.05c-14.92,7.3-23.85,21.44-30.39,36.15
						c-12.49,28.06-20.47,58.33-27.28,88.2c-0.87,3.94-1.76,7.87-2.52,11.84c-0.01,0.06-0.03,0.18-0.06,0.33h2.19
						c0.08-0.78,0.14-1.47,0.23-1.92c0.65-3.28,1.38-6.55,2.11-9.81c6.18-27.32,13.59-54.74,24.12-80.73
						c4.23-10.43,9-20.88,16.34-29.51c9.71-11.43,23.22-17.32,38.07-18.08c14.23-0.73,27.48,3.66,41.47,4.66
						c15.03,1.08,29.92-2.86,44.14-7.27c7.72-2.39,32.26-13.64,34.69,1.16c0.512,3.124-0.277,6.042-1.857,8.714
						c-0.459-0.839-0.981-1.599-1.538-2.316c-0.619-0.796-1.292-1.528-2.001-2.242c-0.698-0.716-1.549-1.42-2.428-1.985
						c-1.778-1.15-3.925-1.867-6.128-1.845c-0.548,0.004-1.096,0.045-1.636,0.133c-0.527,0.082-0.994,0.177-1.5,0.292
						c-0.994,0.225-2.007,0.534-2.998,0.99c-0.984,0.467-1.961,1.092-2.746,1.948c-0.398,0.44-0.736,0.846-1.048,1.422
						c-0.34,0.567-0.511,1.202-0.616,1.809c-0.194,1.233-0.003,2.36,0.26,3.393c0.275,1.034,0.648,1.993,1.071,2.904
						c1.567,3.12,3.174,6.07,5.029,8.97c-1.065,0.569-2.082,1.086-3.013,1.542c-11.1,5.45-22.75,9.76-34.37,13.94
						c-2.75,0.99-18.06,4.51-18.64,7.07c-0.55,2.38,6.52-0.62,7.3-0.87c3.38-1.06,6.75-2.14,10.11-3.26
						c12.4-4.13,24.85-8.54,36.65-14.19c9.46-4.54,23.37-13.04,23.21-25.2c-0.05-3.06-1.7-4.11-0.56-6.41
						c0.72-1.47,2.66-3,3.73-4.22c4.51-5.1,9.02-10.19,13.53-15.28c8.48-9.58,16.69-19.49,25.48-28.78
						c5.23-5.53,15.99-4.09,15.2,5.38c-0.34,4.21-5.04,8.86-7.45,12.1c-6.73,9.04-13.46,18.07-20.19,27.1
						c-10.16,13.65-20.08,27.46-31.67,39.95c-9.78,10.53-20.28,21.11-32.34,29.03c-11.51,7.55-26.03,9.21-39.3,11.71
						c-6.73,1.27-13.46,2.5-20.18,3.76c-4.65,0.87-9.29,1.76-13.91,2.76c-4.9,1.07-11.9,1.81-16.09,4.75
						c-3.53,2.47-4.41,7.66-5.39,11.55c-1.67,6.62-2.75,13.4-3.75,20.15c-1.09,7.41-2.01,14.86-2.76,22.31
						c-0.08,0.84-0.46,2.63-0.68,4.42h2.31v-0.16c1.32-14.11,3.1-28.38,6.16-42.23c0.87-3.93,1.54-10.48,4.64-13.5
						c2.33-2.29,7.09-2.87,10.13-3.62c17.79-4.39,36.07-6.79,54.01-10.55c7.22-1.51,14.77-2.93,21.36-6.38
						c5-2.62,9.58-6.07,13.94-9.63c11.62-9.48,22.19-20.39,31.92-31.79c9.44-11.05,17.78-23.11,26.4-34.82
						c6.6-8.97,13.2-17.93,19.81-26.9C696.907,315.02,701.337,308.18,694.877,302.19z M619.183,379.672
						c-0.69-1.293-1.366-2.601-2.015-3.927c-0.834-1.689-1.72-3.437-2.437-5.105c-0.704-1.643-1.284-3.418-1.047-4.784
						c0.067-0.328,0.146-0.639,0.314-0.888c0.138-0.27,0.417-0.61,0.665-0.871c0.526-0.545,1.169-0.999,1.91-1.357
						c0.745-0.352,1.569-0.622,2.439-0.829c0.426-0.103,0.896-0.203,1.315-0.272c0.404-0.072,0.812-0.106,1.221-0.114
						c1.638-0.024,3.28,0.47,4.753,1.331c0.744,0.45,1.401,0.945,2.063,1.576c0.666,0.618,1.299,1.29,1.902,1.968
						c0.597,0.681,1.154,1.396,1.581,2.122c0.153,0.254,0.267,0.504,0.366,0.747C628.923,373.527,623.787,377.059,619.183,379.672z
						 M596.097,355.78c7.73-9.21,15.45-18.41,23.15-27.64c7.67-9.19,15.34-18.39,23.01-27.58c2.96-3.56,5.8-7.34,8.95-10.73
						c3.63-3.92,13.06-5.89,15.24,1.22c0.73,2.37,0.43,0.84-0.59,2.79c-2.32,4.42-7.2,8.59-10.4,12.4
						c-5.08,6.05-10.15,12.11-15.23,18.16c-6.81,8.12-13.62,16.24-20.42,24.36C611.747,350.44,603.957,353.36,596.097,355.78z
						 M674.967,308.56c-5.04,5.7-10.09,11.4-15.14,17.1c-7.96,8.99-15.92,17.98-23.87,26.97c-1.84-2.12-4.78-3.99-7.6-4.41
						c-1.81-0.31-3.69-0.22-5.5,0c9.68-11.53,19.35-23.07,29.03-34.61c5.09-6.07,10.16-12.15,15.27-18.21
						c5.93-7.04,18.45-7.3,19.96,4.03C681.577,299.77,678.317,304.77,674.967,308.56z"/>
				</g>
			</g>
		</g>
	</g>
</g>
</svg>
