<?xml version="1.0" encoding="utf-8"?>
<!-- Generator: Adobe Illustrator 27.5.0, SVG Export Plug-In . SVG Version: 6.00 Build 0)  -->
<svg version="1.1" id="Ñëîé_1" xmlns="http://www.w3.org/2000/svg" xmlns:xlink="http://www.w3.org/1999/xlink" x="0px" y="0px"
	 viewBox="0 0 3000 2000" style="enable-background:new 0 0 3000 2000;" xml:space="preserve">
<rect id="_x31_3" style="fill:#FFFFFF;" width="3000" height="2000"/>
<g>
	<g id="_x31_2">
		<path style="fill:#DCE6FF;" d="M342.325,1532.09c-5.505-13.699-10.952-27.894-16.188-42.189l12.906-3.117
			c5.203,14.203,10.613,28.306,16.082,41.913L342.325,1532.09z M2651.104,1514.399l-13.363-1.34
			c2.219-14.583,4.326-29.269,6.262-43.651l13.384,1.189C2655.445,1485.03,2653.331,1499.767,2651.104,1514.399z M311.273,1447.405
			c-4.713-14.128-9.283-28.519-13.584-42.773l13.077-2.603c4.276,14.168,8.819,28.473,13.503,42.516L311.273,1447.405z
			 M2662.901,1426.724l-13.403-1.029c1.703-14.641,3.281-29.369,4.689-43.774l13.421,0.864
			C2666.196,1397.245,2664.612,1412.028,2662.901,1426.724z M285.386,1361.607c-3.889-14.394-7.589-28.948-10.998-43.259
			l13.219-2.076c3.388,14.222,7.065,28.687,10.93,42.991L285.386,1361.607z M2671.472,1338.787l-13.438-0.691
			c1.14-14.631,2.14-29.39,2.97-43.864l13.449,0.509C2673.62,1309.276,2672.617,1324.095,2671.472,1338.787z M264.739,1274.874
			c-2.994-14.57-5.766-29.262-8.239-43.67l13.335-1.509c2.457,14.311,5.21,28.905,8.184,43.379L264.739,1274.874z M2676.51,1250.655
			l-13.459-0.318c0.526-14.696,0.887-29.47,1.076-43.913l13.464,0.115C2677.401,1221.05,2677.038,1235.892,2676.51,1250.655z
			 M249.744,1187.359c-2.007-14.717-3.755-29.518-5.193-43.992l13.42-0.88c1.429,14.367,3.163,29.059,5.155,43.669L249.744,1187.359
			z M2664.183,1162.509c-0.158-14.707-0.502-29.477-1.023-43.899l13.459-0.32c0.522,14.497,0.868,29.342,1.028,44.123
			L2664.183,1162.509z M241.02,1099.259c-0.893-14.803-1.485-29.665-1.76-44.175l13.463-0.169
			c0.272,14.388,0.86,29.127,1.745,43.809L241.02,1099.259z M2660.996,1074.749c-0.924-14.688-2.061-29.425-3.377-43.803
			l13.426-0.811c1.325,14.461,2.468,29.284,3.398,44.055L2660.996,1074.749z M252.85,1011.09l-13.462-0.225
			c0.375-14.842,1.098-29.71,2.149-44.186l13.441,0.643C253.937,981.661,253.221,996.386,252.85,1011.09z M2652.948,987.231
			c-1.799-14.685-3.836-29.352-6.053-43.594l13.358-1.371c2.233,14.338,4.282,29.103,6.094,43.883L2652.948,987.231z
			 M259.249,923.671l-13.397-1.093c1.829-14.787,4.059-29.566,6.628-43.927l13.324,1.572
			C263.263,894.426,261.057,909.044,259.249,923.671z M2639.356,900.21c-2.801-14.592-5.876-29.13-9.14-43.208l13.231-2.023
			c3.291,14.191,6.391,28.842,9.214,43.547L2639.356,900.21z M1046.975,898.667c-18.709-2.396-32.241-9.312-50.987-21.256
			l8.51-8.473c16.422,10.436,28.283,16.696,43.911,18.856L1046.975,898.667z M1093.689,872.651l-11.991-4.973
			c6.164-9.802,11.612-23.404,16.195-40.428l13.153,2.335C1106.15,847.778,1100.472,861.865,1093.689,872.651z M956.473,846.05
			c-10.726-9.701-22.188-20.864-35.042-34.13l10.581-6.762c12.672,13.078,23.951,24.064,34.48,33.587L956.473,846.05z
			 M274.797,837.082l-13.218-2.083c3.488-14.594,7.435-29.147,11.73-43.254l13.071,2.625
			C282.138,808.298,278.241,822.668,274.797,837.082z M2619.334,814.078c-3.987-14.442-8.288-28.759-12.784-42.554l13.017-2.798
			c4.539,13.929,8.88,28.383,12.903,42.961L2619.334,814.078z M1120.106,785.578l-13.354-1.396
			c2.068-13.052,3.921-27.344,5.665-43.695l13.414,0.944C1124.071,757.934,1122.198,772.375,1120.106,785.578z M888.454,776.691
			c-10.945-12.004-22.296-24.692-32.078-35.642l10.899-6.421c9.762,10.93,21.091,23.592,32,35.556L888.454,776.691z
			 M1874.198,775.791c-10.485,0-20.774-2.544-30.578-7.561l7.179-9.251c14.728,7.55,29.216,7.567,44.86,1.545l5.793,9.87
			C1892.202,773.976,1883.033,775.791,1874.198,775.791z M300.702,752.231l-12.876-3.198c5.35-14.207,11.219-28.337,17.445-41.998
			l12.626,3.795C311.761,724.295,305.976,738.224,300.702,752.231z M1945.48,741.807l-9.892-7.418
			c10.208-8.979,21.152-20.055,33.456-33.862l10.908,6.412C1967.33,721.1,1956.056,732.506,1945.48,741.807z M1805.336,734.288
			c-8.713-10.917-17.348-23.773-26.398-39.302l12.17-4.678c8.792,15.086,17.141,27.526,25.527,38.032L1805.336,734.288z
			 M2591.674,729.447c-5.424-14.168-11.211-28.115-17.202-41.453l12.649-3.747c6.064,13.503,11.922,27.618,17.41,41.954
			L2591.674,729.447z M824.468,705.399c-12.319-13.672-22.584-24.897-32.308-35.324l10.734-6.601
			c9.769,10.476,20.076,21.746,32.44,35.468L824.468,705.399z M1129.882,697.273l-13.436-0.706c1.02-12.811,2.059-27.21,3.174-44.02
			l13.445,0.589C1131.947,669.984,1130.906,684.422,1129.882,697.273z M338.08,670.355l-12.318-4.415
			c7.391-13.595,15.268-26.945,23.637-39.999l11.939,5.055C353.102,643.84,345.353,656.976,338.08,670.355z M2010.797,670.352
			l-11.251-6.008c9.568-11.813,19.452-24.33,29.455-36.974l11.327,5.911C2030.301,645.958,2020.407,658.485,2010.797,670.352z
			 M1757.264,654.181c-6.099-12.423-12.401-25.977-19.266-41.436l12.665-3.71c6.816,15.344,13.066,28.787,19.109,41.097
			L1757.264,654.181z M2554.666,647.362c-7.239-13.694-14.896-26.995-22.759-39.536l11.999-4.961
			c7.995,12.752,15.778,26.272,23.132,40.184L2554.666,647.362z M758.916,635.427c-12.217-12.316-23.589-23.277-34.766-33.511
			l10.073-7.256c11.319,10.364,22.826,21.455,35.178,33.907L758.916,635.427z M1135.867,609.026l-13.448-0.55
			c0.907-14.608,1.808-29.224,2.769-44.097l13.446,0.573C1137.674,579.817,1136.772,594.425,1135.867,609.026z M2069.848,596.35
			l-11.233-6.029c11.249-13.823,21.311-25.782,30.76-36.557l10.966,6.343C2090.984,570.778,2081.01,582.633,2069.848,596.35z
			 M388.04,593.264l-11.348-5.885c10.581-13.457,21.49-25.611,32.424-36.124l10.286,7.056
			C408.851,568.455,398.3,580.215,388.04,593.264z M1720.021,571.018c-6.175-14.695-12.233-29.398-17.344-41.843l12.772-3.46
			c5.105,12.427,11.153,27.107,17.315,41.771L1720.021,571.018z M687.13,570.253c-13.761-10.881-27.293-20.493-40.217-28.57
			l8.211-8.666c13.337,8.334,27.265,18.226,41.399,29.401L687.13,570.253z M2505.765,569.786
			c-9.647-12.785-19.763-24.878-30.066-35.941l10.738-6.596c10.566,11.346,20.932,23.736,30.807,36.823L2505.765,569.786z
			 M457.167,528.563L449,519.869c16.079-9.961,32.813-17.145,49.738-21.351l3.94,10.456
			C487.284,512.8,471.972,519.39,457.167,528.563z M2132.816,525.218l-10.46-6.885c12.626-12.653,24.592-23.541,36.579-33.285
			l9.524,7.728C2156.807,502.25,2145.147,512.862,2132.816,525.218z M1141.651,520.919l-13.44-0.65
			c1.166-15.894,2.323-30.328,3.539-44.126l13.43,0.78C1143.968,490.677,1142.814,505.069,1141.651,520.919z M602.398,518.629
			c-16.801-6.79-33.327-11.124-49.117-12.881l1.828-10.834c17.245,1.919,35.173,6.604,53.288,13.925L602.398,518.629z
			 M2441.063,500.954c-12.962-10.785-26.384-20.305-39.89-28.295l7.928-8.839c14.114,8.349,28.11,18.273,41.598,29.496
			L2441.063,500.954z M1685.502,487.334c-6.698-16.269-12.218-29.534-17.371-41.747l12.736-3.545
			c5.166,12.239,10.696,25.529,17.404,41.824L1685.502,487.334z M2208.756,464.865l-7.717-8.96
			c16.559-9.408,33.283-16.376,49.711-20.709l4.158,10.4C2239.751,449.594,2224.223,456.078,2208.756,464.865z M2355.666,451.469
			c-16.676-5.712-33.555-9.247-50.17-10.508l1.251-10.887c17.987,1.365,36.205,5.173,54.15,11.32L2355.666,451.469z
			 M1149.487,433.023l-13.411-0.967c1.678-15.342,3.503-30.159,5.425-44.039l13.38,1.223
			C1152.97,403.035,1151.156,417.766,1149.487,433.023z M1650.217,403.998c-6.506-14.748-12.637-28.229-18.744-41.213l12.578-3.902
			c6.141,13.056,12.303,26.606,18.841,41.427L1650.217,403.998z M1161.736,345.638l-13.326-1.564
			c2.723-15.309,5.717-30.032,8.897-43.759l13.232,2.021C1167.394,315.913,1164.432,330.481,1161.736,345.638z M1611.471,321.958
			c-7.235-14.133-14.526-27.655-21.676-40.19l12.218-4.595c7.223,12.665,14.589,26.321,21.892,40.587L1611.471,321.958z
			 M1181.973,259.548l-13.063-2.65c4.696-15.269,9.874-29.651,15.388-42.748l12.74,3.538
			C1191.646,230.493,1186.577,244.577,1181.973,259.548z M1565.883,242.525c-8.855-13.545-17.902-26.26-26.887-37.793l11.378-5.847
			c9.166,11.766,18.385,24.722,27.402,38.511L1565.883,242.525z M1217.258,177.626l-12.074-4.84
			c8.841-14.548,18.645-27.41,29.14-38.232l10.577,6.766C1234.985,151.545,1225.685,163.76,1217.258,177.626z M1508.137,169.269
			c-11.765-11.977-23.908-22.588-36.091-31.535l9.032-8.11c12.722,9.343,25.367,20.388,37.585,32.827L1508.137,169.269z
			 M1282.465,112.979l-7.259-9.21c15.95-8.29,33.523-13.681,52.231-16.022l2.05,10.807
			C1312.645,100.662,1296.825,105.515,1282.465,112.979z M1429.565,112.973c-15.684-6.867-32.022-11.561-48.56-13.953l2.361-10.765
			c17.949,2.596,35.642,7.674,52.588,15.093L1429.565,112.973z"/>
		<path style="fill:#D4E8FF;" d="M598.901,1591.243c0,0-327.923-654.018-91.938-799.652
			c157.733-97.342,324.922,117.243,524.474,3.723c177.657-101.065,121.179-408.547,404.518-451.047
			c318.564-47.784,388.706,525.712,650.137,447.324c317.229-95.118,632.789,97.973,360.087,800.901L598.901,1591.243z"/>
		<path style="fill:#EEF7FF;" d="M2736.432,1365.77c-111.731-13.45-93.498,108.063-252.763,108.063
			c-145.615,0-192.2-462.742-298.147-330.464c-543.149,678.136-227.752-288.39-659.709-300.672
			c-195.319-5.554-325.47,163.585-373.465,463.052c-69.572,270.729-230.917-206.489-396.96-162.119
			c-105.528,28.2-93.443,330.203-239.057,330.203c-159.264,0-141.032-121.512-252.763-108.063
			c-120.297,14.481-156.228,229.555-156.228,229.555H2892.66C2892.66,1595.325,2856.729,1380.251,2736.432,1365.77z"/>
		<path style="fill:#DCE6FF;" d="M2637.488,1497.302c-102.79-5.743-86.016,46.144-232.535,46.144
			c-133.962,0-130.281-116.286-219.927-141.001c-165.088-45.513-301.189,184.831-365.193,69.227
			c-121.561-306.75-476.102-460.582-639.664,0c-64.004,115.605-213.677-90.675-365.193-69.227
			c-93.264,13.202-85.965,141.001-219.927,141.001c-146.519,0-129.746-51.887-232.535-46.144
			c-110.67,6.184-143.726,98.023-143.726,98.023h2562.427C2781.213,1595.325,2748.158,1503.486,2637.488,1497.302z"/>
		<path style="fill:#CFDDF9;" d="M109.412,1595.325c0,0-19.542,73.543,61.414,91.956c110.732,25.185,760.71,91.356,602.808,141.639
			c-89.136,28.385,45.503,66.928,479.662,81.12s1179.142-41.417,928.615-123.697s770.187-19.869,708.012-191.017H109.412z"/>
	</g>
	<g id="_x31_1">
		<polygon style="fill:#966338;" points="1076.133,1464.692 263.662,1464.692 318.908,1246.34 1020.887,1246.34 		"/>
		<rect x="281.717" y="1464.692" style="fill:#B55A3A;" width="776.362" height="200.297"/>
		<rect x="319.461" y="756.106" style="fill:#B55A3A;" width="16.574" height="490.234"/>
		<rect x="1003.714" y="756.106" style="fill:#B55A3A;" width="16.574" height="490.234"/>
		<polygon style="fill:#966338;" points="1076.133,989.127 263.662,989.127 318.908,770.776 1020.887,770.776 		"/>
		<path style="fill:#F4D4BE;" d="M985.856,989.129c0,26.176-20.209,47.39-45.136,47.39c-24.927,0-45.136-21.214-45.136-47.39
			l-30.695-218.355h77.997l39.269,199.549C984.53,976.091,985.856,982.444,985.856,989.129z"/>
		<path style="fill:#F4D4BE;" d="M474.906,770.774l-28.761,204.632c0,0.011-0.011,0.022-0.011,0.033l-1.922,13.69
			c0,26.176-20.209,47.39-45.136,47.39c-24.927,0-45.136-21.214-45.136-47.39c0-6.685,1.326-13.038,3.701-18.806l39.269-199.549
			H474.906z"/>
		<path style="fill:#F4D4BE;" d="M630.899,770.774l-6.066,215.692c0,0.055-0.011,0.122-0.011,0.177l-0.066,2.486
			c0,26.176-20.209,47.39-45.136,47.39s-45.136-21.214-45.136-47.39c0-2.818,0.254-5.569,0.696-8.254l17.723-210.101H630.899z"/>
		<path style="fill:#F4D4BE;" d="M805.311,989.129c0,26.176-20.209,47.39-45.136,47.39c-24.927,0-45.136-21.214-45.136-47.39
			l-0.066-2.486c0-0.055-0.011-0.122-0.011-0.177l-6.066-215.692h77.996l17.723,210.101
			C805.057,983.56,805.311,986.311,805.311,989.129z"/>
		<path style="fill:#EB5648;" d="M1076.139,989.129c0,26.176-20.209,47.39-45.147,47.39c-24.927,0-45.136-21.214-45.136-47.39
			l-3.702-18.806l-39.269-199.549h78.007C1020.893,770.774,1076.139,980.577,1076.139,989.129z"/>
		<path style="fill:#EB5648;" d="M396.909,770.774L357.64,970.323l-3.701,18.806c0,26.176-20.209,47.39-45.136,47.39
			c-24.927,0-45.136-21.214-45.136-47.39c0-8.552,55.246-218.355,55.246-218.355H396.909z"/>
		<path style="fill:#EB5648;" d="M552.902,770.774l-17.723,210.101l-0.696,8.254c0,26.176-20.209,47.39-45.136,47.39
			c-24.927,0-45.136-21.214-45.136-47.39c0-4.762,0.674-9.359,1.922-13.69c0-0.011,0.011-0.022,0.011-0.033l28.761-204.632H552.902z
			"/>
		<path style="fill:#EB5648;" d="M715.039,989.129c0,26.176-20.209,47.39-45.136,47.39c-24.938,0-45.147-21.214-45.147-47.39
			l0.066-2.486c0-0.055,0.011-0.122,0.011-0.177l6.066-215.692h77.997l6.066,215.692c0,0.055,0.011,0.122,0.011,0.177
			L715.039,989.129z"/>
		<path style="fill:#EB5648;" d="M895.583,989.129c0,26.176-20.209,47.39-45.136,47.39c-24.927,0-45.136-21.214-45.136-47.39
			l-0.696-8.254l-17.723-210.101h77.997l28.772,204.632C894.909,979.748,895.583,984.356,895.583,989.129z"/>
		<path style="fill:#B55A3A;" d="M1021.897,741.436h-704.61c-4.686,0-8.484,3.798-8.484,8.484v12.371
			c0,4.685,3.799,8.484,8.484,8.484h704.61c4.686,0,8.484-3.799,8.484-8.484V749.92
			C1030.381,745.235,1026.583,741.436,1021.897,741.436z"/>
		<polygon style="fill:#894631;" points="318.908,1246.34 263.662,1464.692 533.504,1464.692 552.053,1246.34 		"/>
		<polygon style="fill:#894631;" points="552.053,1246.34 533.504,1464.692 804.819,1464.692 786.47,1246.34 		"/>
		<polygon style="fill:#B55A3A;" points="541.821,1464.692 525.188,1464.692 543.736,1246.34 560.37,1246.34 		"/>
		<polygon style="fill:#894631;" points="786.47,1246.34 804.819,1464.692 1076.133,1464.692 1020.887,1246.34 		"/>
		<polygon style="fill:#B55A3A;" points="796.503,1464.692 778.154,1246.34 794.786,1246.34 813.135,1464.692 		"/>
		<polygon style="fill:#B55A3A;" points="282.771,1384.695 263.662,1388.521 318.908,1246.34 1020.887,1246.34 1076.133,1388.521 
			1057.569,1384.425 1006.426,1253.438 334.115,1251.697 		"/>
		<path style="fill:#EE9023;" d="M505.811,1221.304c0,0,28.143-4.782,34.356,59.617c6.213,64.4-36.247,78.653-52.526,61.926
			L505.811,1221.304z"/>
		<path style="fill:#EE9023;" d="M488.011,1217.444c0,0-23.634-16.011-55.966,40.03c-32.332,56.041,0.41,86.602,22.155,78.121
			L488.011,1217.444z"/>
		<path style="fill:#6A8530;" d="M493.156,1221.082c-0.094-1.598-0.25-3.383-0.483-5.054c-0.232-1.693-0.538-3.361-0.907-4.985
			c-0.36-1.626-0.815-3.203-1.327-4.71c-0.497-1.516-1.131-2.925-1.771-4.253c-1.89-3.922-0.242-8.634,3.68-10.524
			c3.922-1.89,8.634-0.243,10.524,3.68c0.519,1.078,0.771,2.215,0.783,3.337l0.001,0.418c0.013,2.155-0.057,4.251-0.302,6.274
			c-0.229,2.026-0.549,3.995-0.974,5.914c-0.416,1.92-0.907,3.794-1.473,5.631c-0.574,1.857-1.19,3.59-1.947,5.475
			c-0.619,1.54-2.368,2.286-3.908,1.667c-1.113-0.447-1.812-1.486-1.88-2.609L493.156,1221.082z"/>
		<path style="fill:#D67513;" d="M498.602,1215.82c17.08,3.686,17.609,57.786,12.334,89.176
			c-6.832,40.656-28.262,49.054-43.285,45.797c-16.203-3.514-29.162-29.74-19.411-59.393
			C456.395,1266.601,474.922,1210.71,498.602,1215.82z"/>
		<path style="fill:#EE9023;" d="M392.007,1229.459c0,0-34.632-13.328-66.583,41.821c-31.951,55.15,17.685,81.504,44.956,71.913
			L392.007,1229.459z"/>
		<path style="fill:#EE9023;" d="M416.467,1231.778c0,0,36.52-6.582,57.536,53.59c21.016,60.172-32.688,76.728-57.671,62.182
			L416.467,1231.778z"/>
		<path style="fill:#6A8530;" d="M401.167,1232.584c-0.167-2.114-0.209-3.921-0.132-5.895c0.071-1.94,0.268-3.893,0.591-5.867
			c0.313-1.976,0.771-3.969,1.396-5.967c0.591-2.01,1.43-3.998,2.378-6l0.341-0.72c2.133-4.502,7.511-6.424,12.014-4.291
			c4.503,2.133,6.424,7.512,4.291,12.014c-0.701,1.48-1.785,2.701-3.04,3.571c-1.087,0.748-2.225,1.566-3.262,2.572
			c-1.062,0.98-2.082,2.085-3.033,3.29c-0.96,1.199-1.87,2.493-2.695,3.858c-0.824,1.329-1.603,2.874-2.216,4.154l-0.226,0.473
			c-0.804,1.681-2.819,2.392-4.5,1.588C401.952,1234.826,401.261,1233.742,401.167,1232.584z"/>
		<path style="fill:#D67513;" d="M403.369,1226.918c-23.465-2.241-44.238,45.602-49.07,75.163
			c-6.259,38.288,18.346,52.658,38.991,54.616c22.266,2.111,48.769-16.982,47.166-46.447
			C439.114,1285.61,435.9,1230.026,403.369,1226.918z"/>
		<path style="fill:#EE9023;" d="M479.623,1307.741c0,0,26.49-7.413,46.211,35.522c19.72,42.935-18.754,58.911-38.208,49.925
			L479.623,1307.741z"/>
		<path style="fill:#EE9023;" d="M461.409,1307.741c0,0-26.49-7.413-46.21,35.522c-19.72,42.935,18.754,58.911,38.209,49.925
			L461.409,1307.741z"/>
		<path style="fill:#6A8530;" d="M467.698,1309.472c-0.362-0.988-0.829-2.183-1.344-3.221c-0.513-1.065-1.094-2.083-1.719-3.035
			c-0.618-0.956-1.293-1.843-2.008-2.64c-0.695-0.814-1.477-1.498-2.227-2.126c-2.832-2.371-3.205-6.588-0.835-9.42
			c2.371-2.832,6.588-3.205,9.42-0.835c0.931,0.779,1.596,1.757,1.985,2.821l0.21,0.583c0.56,1.544,1.04,3.07,1.335,4.595
			c0.321,1.519,0.52,3.021,0.613,4.502c0.1,1.479,0.109,2.934,0.026,4.371c-0.082,1.462-0.239,2.793-0.51,4.341
			c-0.238,1.361-1.534,2.271-2.895,2.032c-0.909-0.159-1.617-0.791-1.916-1.598L467.698,1309.472z"/>
		<path style="fill:#D67513;" d="M471.415,1305.071c17.474-0.012,29.455,36.749,30.953,58.902
			c1.94,28.694-17.224,37.577-32.596,37.577c-16.58,0-34.802-15.945-31.557-37.577
			C440.929,1345.883,447.19,1305.088,471.415,1305.071z"/>
		
			<ellipse transform="matrix(0.5784 -0.8157 0.8157 0.5784 -775.9437 1044.3569)" style="fill:#1C8E4A;" cx="622.455" cy="1272.912" rx="73.505" ry="63.271"/>
		<path style="fill:#1BAF56;" d="M579.936,1332.872c7.891,0.608,15.689,0.263,23.277-0.823c7.581-1.106,14.94-3.055,21.805-5.96
			c13.782-5.784,25.252-15.59,33.495-28.038c1.072-1.552,2.133-3.111,3.078-4.732l1.487-2.395l1.366-2.454
			c0.946-1.622,1.76-3.301,2.569-4.984c0.883-1.654,1.531-3.396,2.302-5.097c1.351-3.463,2.637-6.965,3.516-10.572
			c0.505-1.792,0.83-3.615,1.225-5.436c0.277-1.832,0.615-3.669,0.757-5.523c0.817-7.405,0.335-14.981-1.299-22.415
			c-1.66-7.426-4.41-14.755-8.541-21.491c2.896,2.719,5.318,5.942,7.472,9.33c2.176,3.387,3.952,7.043,5.424,10.836
			c2.911,7.595,4.436,15.851,4.314,24.133c-0.047,4.138-0.424,8.291-1.228,12.356c-0.723,4.088-1.877,8.077-3.233,11.982
			c-2.786,7.786-6.672,15.11-11.241,21.873c-4.48,6.877-10.192,13.207-16.772,18.35c-6.59,5.156-14.103,9.113-21.992,11.61
			c-7.882,2.53-16.098,3.663-24.191,3.551c-4.048-0.056-8.071-0.407-12.024-1.078
			C587.556,1335.207,583.647,1334.309,579.936,1332.872z"/>
		<path style="fill:#1BAF56;" d="M664.973,1212.953c0.176,52.179-35.592,103.031-85.037,119.92
			C623.776,1306.766,654.698,1262.833,664.973,1212.953z"/>
		<path style="fill:#1BAF56;" d="M664.973,1212.953c-38.48,32.265-68.497,72.167-85.037,119.92
			C575.72,1280.138,614.781,1227.591,664.973,1212.953z"/>
		<path style="fill:#1BAF56;" d="M664.973,1212.953c-7.815-2.052-15.802-2.61-23.553-2.018c-7.748,0.621-15.278,2.459-22.194,5.59
			c-13.931,6.155-25.199,17.01-34.161,29.496c-8.943,12.416-15.095,26.72-16.022,41.933c-0.494,7.579,0.257,15.303,2.12,22.878
			c1.871,7.575,4.741,15.032,8.773,22.04c-2.926-2.824-5.392-6.115-7.629-9.555c-2.238-3.448-4.135-7.133-5.739-10.968
			c-3.19-7.674-5.011-16.038-5.223-24.53c-0.246-8.495,1.229-17.059,4.023-25.094c2.821-8.039,6.932-15.552,11.86-22.345
			c4.895-6.766,10.597-13.065,17.18-18.41c1.604-1.38,3.368-2.578,5.075-3.833c0.858-0.622,1.789-1.151,2.68-1.728
			c0.9-0.565,1.789-1.143,2.736-1.636c3.663-2.163,7.62-3.814,11.613-5.237C632.601,1204.038,650.682,1205.212,664.973,1212.953z"/>
		<path style="fill:#EE9023;" d="M374.373,1336.705c0,0-39.706-4.347-57.791,61.834c-18.085,66.18,40.819,79.957,66.561,62.476
			L374.373,1336.705z"/>
		<path style="fill:#EE9023;" d="M400.467,1332.392c0,0,36.196-16.893,74.615,39.948c38.419,56.841-12.918,88.839-42.917,80.572
			L400.467,1332.392z"/>
		<path style="fill:#6A8530;" d="M384.766,1337.439c-0.755-2.154-1.296-4.024-1.759-6.098c-0.46-2.038-0.792-4.125-0.998-6.269
			c-0.217-2.143-0.289-4.342-0.188-6.594c0.063-2.255,0.389-4.554,0.825-6.899l0.157-0.844c0.981-5.272,6.051-8.751,11.323-7.77
			c5.272,0.981,8.751,6.051,7.77,11.323c-0.322,1.732-1.115,3.302-2.182,4.552c-0.926,1.077-1.885,2.242-2.687,3.574
			c-0.836,1.312-1.593,2.742-2.252,4.258c-0.669,1.512-1.26,3.108-1.743,4.755c-0.492,1.609-0.878,3.431-1.163,4.933l-0.105,0.554
			c-0.375,1.97-2.275,3.264-4.246,2.89C386.199,1339.555,385.183,1338.618,384.766,1337.439z"/>
		<path style="fill:#D67513;" d="M385.499,1330.937c-25.036,4.12-33.497,59.623-30.396,91.715
			c4.016,41.567,33.574,49.755,55.596,46.115c23.753-3.926,46.083-31.084,36.312-61.307
			C438.839,1382.186,420.209,1325.224,385.499,1330.937z"/>
		
			<ellipse transform="matrix(0.9801 -0.1983 0.1983 0.9801 -244.5743 167.6901)" style="fill:#1C8E4A;" cx="715.035" cy="1305.071" rx="78.66" ry="78.66"/>
		<path style="fill:#1BAF56;" d="M715.035,1383.731c71.787-33.447,75.483-126.822,0-157.32
			C803.831,1241.416,802.715,1365.861,715.035,1383.731z"/>
		<path style="fill:#1BAF56;" d="M715.035,1226.411c37.108,43.655,37.375,113.779,0,157.32
			C741.035,1334.632,740.793,1275.486,715.035,1226.411z"/>
		<path style="fill:#1BAF56;" d="M715.035,1226.411c-16.638,51.658-18.354,105.762,0,157.32
			C673.94,1342.575,675.655,1268.146,715.035,1226.411z"/>
		<path style="fill:#1BAF56;" d="M715.035,1226.411c-8.68,2.98-16.783,7.088-24.078,12.138c-7.281,5.05-13.745,11.052-18.838,17.966
			c-5.145,6.876-8.878,14.625-11.285,22.787c-2.395,8.174-3.435,16.76-3.494,25.42c-0.056,8.603,1.014,17.126,3.533,25.211
			c2.481,8.096,6.466,15.703,11.685,22.537c5.223,6.838,11.675,12.869,18.877,18.074c3.575,2.651,7.385,5.021,11.322,7.228
			c1.964,1.116,3.974,2.164,6.023,3.146c2.036,1.025,4.122,1.947,6.254,2.814c-9.182-1.101-18.077-4.254-26.502-8.422
			c-8.385-4.27-16.203-9.992-22.76-17.113c-6.59-7.084-11.721-15.663-15.023-24.881c-3.253-9.246-4.661-19.054-4.546-28.688
			c0.117-9.572,1.469-19.288,4.649-28.512c3.12-9.227,8.119-17.873,14.585-25.089c6.472-7.224,14.349-12.977,22.827-17.105
			c4.264-2.023,8.626-3.768,13.118-5.025C705.863,1227.632,710.429,1226.679,715.035,1226.411z"/>
		
			<ellipse transform="matrix(0.9449 -0.3274 0.3274 0.9449 -419.1282 277.3111)" style="fill:#1C8E4A;" cx="614.225" cy="1383.731" rx="63.271" ry="72.963"/>
		<path style="fill:#1BAF56;" d="M638.109,1452.674c44.2-46.237,18.119-132.358-47.769-137.886
			C663.132,1305.056,699.078,1413.743,638.109,1452.674z"/>
		<path style="fill:#1BAF56;" d="M590.34,1314.788c42.406,29.837,62.88,88.213,47.769,137.886
			C642.495,1402.179,624.838,1351.788,590.34,1314.788z"/>
		<path style="fill:#1BAF56;" d="M590.34,1314.788c3.724,49.727,18.624,97.026,47.769,137.886
			C592.921,1425.798,572.979,1363.755,590.34,1314.788z"/>
		<path style="fill:#1BAF56;" d="M590.34,1314.788c-6.193,5.132-11.291,11.256-15.328,17.859c-4.009,6.617-6.928,13.76-8.423,21.165
			c-3.153,14.824-0.924,30.233,4,44.71c4.875,14.421,12.931,27.658,24.761,37.149c5.872,4.759,12.583,8.586,19.809,11.429
			c7.23,2.838,14.938,4.799,22.949,5.573c-3.979,0.744-8.07,0.85-12.151,0.685c-4.087-0.169-8.172-0.746-12.209-1.649
			c-8.068-1.82-15.913-5.144-22.936-9.855c-7.05-4.679-13.157-10.813-18.07-17.715c-4.9-6.927-8.615-14.607-11.265-22.533
			c-2.647-7.884-4.439-16.154-4.938-24.584c-0.186-2.099-0.123-4.223-0.15-6.332c0.004-1.056,0.112-2.116,0.164-3.171
			c0.061-1.056,0.122-2.111,0.272-3.163c0.381-4.219,1.356-8.377,2.536-12.428C564.303,1335.734,575.795,1321.854,590.34,1314.788z"
			/>
		<path style="fill:#F39200;" d="M829.102,1327.245c1.07,0.735,2.168,1.451,3.287,2.148c2.734,1.701,5.027,0.308,3.736-2.185
			c-0.385-0.745-0.765-1.49-1.132-2.235C833.037,1325.099,830.853,1325.669,829.102,1327.245z"/>
		<path style="fill:#F9B233;" d="M988.887,1226.92c-7.08,36.863-52.611,57.294-84.865,39.11c-2.885-1.548-13.185-7.384-5.872-9.422
			C934.824,1260.515,960.634,1248.949,988.887,1226.92z"/>
		<path style="fill:#F39200;" d="M988.826,1226.969c0.016-0.017,0.038-0.033,0.061-0.049c-0.012,0.071-0.031,0.146-0.043,0.217
			c-2.531,12.313-9.084,22.627-17.863,30.316c-11.018,9.658-25.558,15.178-40.048,15.306c-9.301,0.089-18.582-2.042-26.91-6.728
			c0.814,0.177,65.874,13.899,83.632-38.178C988.046,1227.563,988.433,1227.265,988.826,1226.969z"/>
		<path style="fill:#F9B233;" d="M981.523,1256.961c-14.593,25.316-46.803,39.829-74.834,29.325
			c-2.959-0.387-6.739-4.003-2.447-5.691c37.103-6.327,63.401-27.398,85.276-59.168
			C990.717,1233.715,987.678,1246.501,981.523,1256.961z"/>
		<path style="fill:#F39200;" d="M981.523,1256.961c-8.798,15.131-23.741,26.466-40.457,30.82
			c-9.348,2.435-19.244,2.687-28.94,0.203c0,0,60.822,0.646,76.387-64.392l1.212,1.062c-0.002,0.013,0.001,0.033-0.001,0.046
			c0.014,0.306,0.022,0.61,0.03,0.915c0.013,0.741,0.015,1.473,0.002,2.21c-0.033,1.986-0.167,3.949-0.396,5.888
			C988.369,1242.067,985.609,1249.923,981.523,1256.961z"/>
		<path style="fill:#F9B233;" d="M989.855,1255.39c-7.139,31.872-40.002,56.527-72.728,48.879c-3.143-1.304-0.292-3.848,1.809-4.297
			l0.006,0.001c35.037-14.561,55.802-41.725,69.585-76.424c0.008-0.005,0.009-0.012,0.01-0.018
			C991.958,1233.896,992.268,1245.217,989.855,1255.39z"/>
		<path style="fill:#F39200;" d="M989.855,1255.39c-4.478,19.377-18.15,36.223-35.85,44.598c-8.575,4.063-18.1,6.138-27.976,5.536
			c0.909-0.268,65.864-17.743,62.964-80.523c0,0,0.227,0.762,0.516,1.827c0.083,0.331,0.17,0.669,0.247,0.998
			C992.041,1237.161,991.913,1246.538,989.855,1255.39z"/>
		<path style="fill:#F9B233;" d="M979.391,1299.745c-8.741,9.021-20.082,15.438-33.009,17.433
			c-3.122,0.672-15.707,2.013-8.593-3.551l0.006,0.001c31.345-21.522,46.335-53.14,52.318-89.831
			C1004.819,1248.724,998.208,1280.512,979.391,1299.745z"/>
		<path style="fill:#F39200;" d="M979.391,1299.745c-8.741,9.021-20.082,15.438-33.009,17.433c0,0,56.647-19.548,43.653-92.991
			c0.028-0.127,0.056-0.254,0.079-0.389c0.582,1.002,1.137,2.012,1.644,3.028C1004.379,1251.634,997.366,1281.2,979.391,1299.745z"
			/>
		<path style="fill:#F9B233;" d="M972.133,1326.044c-31.515,12.24,29.688-19.929,16.372-102.52
			C1020.029,1252.691,1010.471,1309.098,972.133,1326.044z"/>
		<path style="fill:#F9B233;" d="M998.702,1213.108c-0.031,0.028-0.055,0.05-0.079,0.079c-0.63,0.645-1.276,1.347-1.906,2.104
			c-2.59,3.07-4.536,7.851-4.771,11.933l-7.366,2.908c0,0,0.945-13.708,4.855-20.683c0.17-0.301,0.346-0.601,0.533-0.893
			c0.457-0.714,0.969-1.399,1.54-2.047c1.396-1.584,3.723-1.969,5.59-0.96l0.525,0.287
			C1000.326,1207.289,1000.852,1210.927,998.702,1213.108z"/>
		<path style="fill:#F39200;" d="M998.702,1213.108c-0.031,0.028-0.055,0.05-0.079,0.079c-0.63,0.645-1.276,1.347-1.906,2.104
			c-3.02-1.876-5.405-3.875-7.282-5.842c0.17-0.301,0.346-0.601,0.533-0.893c0.457-0.714,0.969-1.399,1.54-2.047
			c1.396-1.584,3.723-1.969,5.59-0.96l0.525,0.287C1000.326,1207.289,1000.852,1210.927,998.702,1213.108z"/>
		<path style="fill:#F39200;" d="M906.678,1286.271l0.011,0.015c-0.981-0.364-1.956-0.753-2.927-1.175
			c-2.125-0.927-1.788-4.048,0.48-4.515c0.546-0.112,1.087-0.225,1.621-0.346C905.863,1280.25,908.768,1282.417,906.678,1286.271z"
			/>
		<path style="fill:#F39200;" d="M920.507,1304.913c-1.124-0.177-2.248-0.393-3.38-0.644c-1.646-0.364-1.883-2.633-0.341-3.322
			c0.728-0.325,1.441-0.646,2.15-0.975l0.006,0.001C918.942,1299.973,922.706,1299.87,920.507,1304.913z"/>
		<path style="fill:#F39200;" d="M940.512,1317.767c-1.018,0.052-2.037,0.071-3.072,0.068c-1.693-0.01-2.402-2.174-1.039-3.177
			c0.467-0.343,0.934-0.686,1.388-1.031l0.006,0.001C937.796,1313.628,940.873,1314.03,940.512,1317.767z"/>
		<path style="fill:#F39200;" d="M967.714,1327.797c-0.918,0.32-1.853,0.623-2.803,0.897c-1.624,0.477-2.923-1.398-1.904-2.742
			c0.442-0.585,0.876-1.164,1.303-1.738C964.311,1324.213,967.939,1324.517,967.714,1327.797z"/>
		<path style="fill:#F39200;" d="M899.276,1263.012l0.005,0.007c-0.965-0.691-1.91-1.418-2.842-2.189
			c-1.799-1.491-0.623-4.425,1.71-4.222c0.734,0.065,1.457,0.121,2.18,0.177C900.329,1256.786,903.032,1259.208,899.276,1263.012z"
			/>
		<path style="fill:#F39200;" d="M972.133,1326.044l-0.013-0.002c52.891-44.13,19.828-98.815,19.828-98.815l0.126-0.045
			C1019.485,1257.658,1008.701,1309.715,972.133,1326.044z"/>
		<path style="fill:#F9B233;" d="M823.253,1348.571c9.351,36.896,56.647,54.872,88.219,34.557
			c4.107-1.927,14.006-10.935,3.183-9.575C878.297,1379.01,852.713,1368.707,823.253,1348.571z"/>
		<path style="fill:#F39200;" d="M823.318,1348.616c-0.017-0.016-0.041-0.031-0.065-0.046c0.016,0.071,0.04,0.146,0.057,0.217
			c3.291,12.313,10.534,22.364,19.876,29.626c11.724,9.122,26.767,13.849,41.442,13.12c9.419-0.461,18.687-3.167,26.839-8.404
			c-0.814,0.228-65.851,17.97-86.91-33.688C824.142,1349.171,823.733,1348.893,823.318,1348.616z"/>
		<path style="fill:#F9B233;" d="M832.485,1378.541c16.27,24.759,49.731,37.541,77.481,25.249c2.971-0.567,6.584-4.451,2.139-5.905
			c-37.929-4.207-65.794-23.975-89.818-54.836C821.803,1355.557,825.636,1368.318,832.485,1378.541z"/>
		<path style="fill:#F39200;" d="M832.485,1378.541c9.801,14.794,25.597,25.382,42.774,28.799c9.606,1.911,19.637,1.58,29.304-1.509
			c0,0-61.523,4.257-81.129-60.65l-1.164,1.147c0.003,0.013,0.001,0.034,0.004,0.046c0.004,0.31,0.014,0.619,0.024,0.928
			c0.03,0.751,0.072,1.492,0.129,2.237c0.151,2.008,0.403,3.987,0.75,5.936C824.674,1363.871,827.933,1371.659,832.485,1378.541z"/>
		<path style="fill:#F9B233;" d="M823.959,1377.443c8.435,28.803,37.227,50.634,67.577,46.962c3.76-0.181,16.256-2.602,6.844-6.039
			l-0.006,0.001c-36.326-12.663-58.952-38.927-74.957-73.231c-0.008-0.005-0.009-0.011-0.011-0.018
			C820.557,1355.813,820.914,1367.291,823.959,1377.443z"/>
		<path style="fill:#F39200;" d="M823.959,1377.443c5.68,19.347,20.516,35.588,38.927,43.017c8.92,3.604,18.683,5.141,28.644,3.947
			c-0.936-0.218-67.716-14.058-68.499-77.773c0,0-0.185,0.785-0.414,1.88c-0.064,0.339-0.133,0.687-0.19,1.025
			C820.667,1359.123,821.352,1368.606,823.959,1377.443z"/>
		<path style="fill:#F9B233;" d="M837.178,1421.718c9.381,8.613,21.24,14.437,34.442,15.69c3.2,0.495,16.017,1.107,8.487-4.103
			l-0.006,0.001c-33.001-19.927-50.046-51.041-58.275-87.824C808.418,1371.584,816.992,1403.366,837.178,1421.718z"/>
		<path style="fill:#F39200;" d="M837.178,1421.718c9.381,8.613,21.24,14.437,34.442,15.69c0,0-58.493-16.431-49.691-91.536
			c-0.036-0.127-0.072-0.254-0.103-0.389c-0.53,1.049-1.031,2.104-1.485,3.162C809.036,1374.502,817.885,1404.012,837.178,1421.718z
			"/>
		<path style="fill:#F9B233;" d="M846.082,1447.907c32.642,10.499-31.2-18.284-22.643-102.796
			C793.258,1376.499,806.273,1433.026,846.082,1447.907z"/>
		<path style="fill:#F9B233;" d="M812.501,1335.172c0.033,0.026,0.058,0.047,0.085,0.075c0.676,0.616,1.372,1.288,2.053,2.017
			c2.804,2.954,5.056,7.678,5.536,11.796l7.628,2.508c0,0-1.768-13.819-6.139-20.648c-0.19-0.295-0.385-0.588-0.593-0.872
			c-0.505-0.696-1.063-1.359-1.68-1.981c-1.507-1.521-3.885-1.772-5.715-0.641l-0.515,0.321
			C810.512,1329.379,810.195,1333.091,812.501,1335.172z"/>
		<path style="fill:#F39200;" d="M812.501,1335.172c0.033,0.026,0.058,0.047,0.085,0.075c0.676,0.616,1.372,1.288,2.053,2.017
			c2.945-2.078,5.242-4.243,7.025-6.344c-0.19-0.295-0.385-0.588-0.593-0.872c-0.505-0.696-1.063-1.359-1.68-1.981
			c-1.507-1.521-3.885-1.772-5.715-0.641l-0.515,0.321C810.512,1329.379,810.195,1333.091,812.501,1335.172z"/>
		<path style="fill:#F39200;" d="M909.976,1403.774l-0.01,0.016c0.971-0.426,1.936-0.878,2.893-1.362
			c2.096-1.064,1.57-4.204-0.754-4.542c-0.56-0.081-1.113-0.164-1.662-0.254C910.444,1397.632,907.632,1399.997,909.976,1403.774z"
			/>
		<path style="fill:#F39200;" d="M897.083,1423.462c1.127-0.246,2.252-0.531,3.383-0.852c1.645-0.466,1.75-2.777,0.149-3.383
			c-0.756-0.286-1.497-0.569-2.234-0.86l-0.006,0.001C898.374,1418.368,894.559,1418.488,897.083,1423.462z"/>
		<path style="fill:#F39200;" d="M877.597,1437.657c1.033-0.008,2.066-0.049,3.113-0.114c1.713-0.11,2.303-2.343,0.863-3.277
			c-0.493-0.32-0.986-0.639-1.466-0.962l-0.006,0.001C880.1,1433.306,877.009,1433.895,877.597,1437.657z"/>
		<path style="fill:#F39200;" d="M850.657,1449.419c0.948,0.269,1.912,0.521,2.89,0.742c1.672,0.387,2.875-1.588,1.765-2.888
			c-0.482-0.566-0.956-1.126-1.422-1.682C853.89,1445.591,850.235,1446.113,850.657,1449.419z"/>
		<path style="fill:#F39200;" d="M916.09,1379.793l-0.005,0.008c0.935-0.756,1.849-1.548,2.746-2.384
			c1.732-1.616,0.369-4.516-1.981-4.172c-0.739,0.109-1.467,0.209-2.195,0.309C914.656,1373.554,912.063,1376.166,916.09,1379.793z"
			/>
		<path style="fill:#F39200;" d="M846.082,1447.907l0.013-0.003c-56.147-41.533-25.922-98.842-25.922-98.842l-0.13-0.038
			C794.103,1381.494,808.102,1433.545,846.082,1447.907z"/>
		<path style="fill:#F9B233;" d="M922.888,1311.373c51.495-14.039-36.146,5.978-62.767-70.591
			c-0.232,0.088,1.236-16.511-5.194-16.573c-5.338,2.121,2.771,11.575,1.383,17.27
			C848.797,1290.81,884.003,1318.679,922.888,1311.373z"/>
		<path style="fill:#F39200;" d="M933.8,1308.412c1.032-0.366,2.065-0.759,3.096-1.177c2.518-1.021,2.705-3.276,0.363-3.632
			c-0.699-0.107-1.396-0.217-2.086-0.337C934.288,1304.663,933.593,1306.436,933.8,1308.412z"/>
		<path style="fill:#F39200;" d="M922.888,1311.373c-59.907-3.747-66.576-69.894-66.576-69.894
			C848.797,1290.81,884.003,1318.679,922.888,1311.373z"/>
		<path style="fill:#F9B233;" d="M892.708,1328.865c55.076,4.502-48.43-11.221-34.855-95.322c0.48-3.496,1.55-7.812-1.99-9.068
			c-1.662-0.352-2.367,0.601-2.672,2.283c-0.67,3.696,0.572,11.074-2.198,15.692
			C829.079,1283.824,844.846,1323.854,892.708,1328.865z"/>
		<path style="fill:#F39200;" d="M892.708,1328.865c-63.866-15.408-41.715-86.414-41.715-86.414
			c-1.088,2.15-2.084,4.284-2.983,6.389C830.191,1290.455,848.259,1323.42,892.708,1328.865z"/>
		<path style="fill:#F39200;" d="M903.346,1329.625c1.095-0.013,2.2-0.052,3.311-0.115c2.712-0.154,3.617-2.228,1.516-3.321
			c-0.627-0.327-1.251-0.656-1.866-0.992C905.018,1326.234,903.788,1327.689,903.346,1329.625z"/>
		<path style="fill:#F9B233;" d="M862.734,1337.724c50.228,18.133-32.971-15.76-10.693-93.853
			c-0.24-0.06,10.514-12.792,5.292-16.542c-5.586-1.339-4.397,11.061-8.81,14.918
			C813.983,1278.262,826.731,1321.315,862.734,1337.724z"/>
		<path style="fill:#F39200;" d="M873.361,1341.583c1.055,0.295,2.126,0.568,3.21,0.82c2.646,0.614,4.097-1.122,2.388-2.761
			c-0.51-0.49-1.016-0.981-1.512-1.476C875.918,1338.799,874.329,1339.849,873.361,1341.583z"/>
		<path style="fill:#F39200;" d="M862.734,1337.724c-46.83-37.547-14.21-95.476-14.21-95.476
			C813.983,1278.262,826.731,1321.315,862.734,1337.724z"/>
		<path style="fill:#F9B233;" d="M827.986,1334.656c42.36,35.387-33.082-37.291,26.366-98.01c2.404-2.582,5.764-5.496,3.592-8.561
			c-1.156-1.245-2.282-0.871-3.5,0.329c-2.675,2.636-5.907,9.385-10.829,11.567C801.881,1261.199,791.732,1303.009,827.986,1334.656
			z"/>
		<path style="fill:#F39200;" d="M827.986,1334.656c-43.356-49.361,15.63-94.675,15.63-94.675c-2.127,1.132-4.17,2.304-6.117,3.507
			C798.974,1267.261,794.773,1304.617,827.986,1334.656z"/>
		<path style="fill:#F39200;" d="M859.852,1232.579c0,0-6.798,0.706-6.899-2.408c0,0-1.214-5.962,1.975-5.962
			C858.644,1224.208,860.792,1229.655,859.852,1232.579z"/>
		<rect x="263.662" y="1388.521" style="fill:#D3774F;" width="812.472" height="250.514"/>
		<rect x="263.662" y="1514.519" style="fill:#B55A3A;" width="812.472" height="16.574"/>
		<rect x="263.662" y="1451.015" style="fill:#B55A3A;" width="812.472" height="16.574"/>
		<rect x="263.662" y="1572.633" style="fill:#B55A3A;" width="812.472" height="16.574"/>
		<path style="fill:#CE3932;" d="M263.666,989.129h90.272c0,26.176-20.209,47.39-45.136,47.39
			C283.875,1036.519,263.666,1015.305,263.666,989.129z"/>
		<path style="fill:#D1A68F;" d="M353.939,989.129h90.272c0,26.176-20.209,47.39-45.136,47.39
			C374.148,1036.519,353.939,1015.305,353.939,989.129z"/>
		<path style="fill:#CE3932;" d="M444.211,989.129h90.272c0,26.176-20.209,47.39-45.136,47.39
			C464.42,1036.519,444.211,1015.305,444.211,989.129z"/>
		<path style="fill:#D1A68F;" d="M534.483,989.129h90.272c0,26.176-20.209,47.39-45.136,47.39S534.483,1015.305,534.483,989.129z"/>
		<path style="fill:#CE3932;" d="M624.755,989.129h90.283c0,26.176-20.209,47.39-45.136,47.39
			C644.964,1036.519,624.755,1015.305,624.755,989.129z"/>
		<path style="fill:#D1A68F;" d="M715.039,989.129h90.272c0,26.176-20.209,47.39-45.136,47.39
			C735.248,1036.519,715.039,1015.305,715.039,989.129z"/>
		<path style="fill:#CE3932;" d="M805.311,989.129h90.272c0,26.176-20.209,47.39-45.136,47.39
			C825.52,1036.519,805.311,1015.305,805.311,989.129z"/>
		<path style="fill:#D1A68F;" d="M895.583,989.129h90.272c0,26.176-20.209,47.39-45.136,47.39
			C915.792,1036.519,895.583,1015.305,895.583,989.129z"/>
		<path style="fill:#CE3932;" d="M1076.139,989.129c0,26.176-20.209,47.39-45.147,47.39c-24.927,0-45.136-21.214-45.136-47.39
			H1076.139z"/>
		<path style="fill:#F9B233;" d="M863.206,1358.531c-37.877-29.177,28.35,17.182,76.269-36.979
			c0.161,0.153,4.645-14.113,9.995-11.957c3.585,3.888-6.223,8.476-7.075,13.843
			C931.691,1366.916,892.937,1377.936,863.206,1358.531z"/>
		<path style="fill:#F39200;" d="M855.176,1352.331c-0.731-0.658-1.452-1.338-2.163-2.039c-1.737-1.711-1.118-3.644,0.946-3.136
			c0.616,0.151,1.232,0.299,1.845,0.437C856.058,1349.055,856.026,1350.764,855.176,1352.331z"/>
		<path style="fill:#F39200;" d="M863.206,1358.531c50.952,17.457,79.188-35.093,79.188-35.093
			C931.691,1366.916,892.937,1377.936,863.206,1358.531z"/>
		<path style="fill:#F9B233;" d="M882.223,1383.393c-47.103-14.995,44.408,6.887,61.617-67.063c0.456-2.272,1.148-4.489,2.215-5.767
			c1.458-2.049,4.964-1.083,3.98,1.742c-0.713,3.294-4.275,8.985-3.564,13.764C950.436,1367.892,923.623,1395.668,882.223,1383.393z
			"/>
		<path style="fill:#F39200;" d="M882.223,1383.393c58.237,9.149,64.247-57.324,64.247-57.324c0.164,2.156,0.257,4.267,0.28,6.321
			C947.238,1373.008,920.943,1394.136,882.223,1383.393z"/>
		<path style="fill:#F39200;" d="M873.142,1380.371c-0.904-0.387-1.806-0.798-2.705-1.231c-2.196-1.059-2.234-3.089-0.117-3.274
			c0.632-0.056,1.263-0.114,1.887-0.182C872.92,1376.986,873.441,1378.614,873.142,1380.371z"/>
		<path style="fill:#F39200;" d="M945.041,1311.255c0,0,2.35,3.352,4.758,1.932c0,0,1.664-2.136,0.11-3.315
			C948.355,1308.692,946.805,1309.137,945.041,1311.255z"/>
		<path style="fill:#F9B233;" d="M949.085,1368.335c-42.588-12.379,30.427,5.164,53.439-57.744c0.192,0.077-0.755-13.77,4.6-13.715
			c4.414,2.15-2.516,9.431-1.438,14.358C1011.125,1352.44,981.346,1375.064,949.085,1368.335z"/>
		<path style="fill:#F39200;" d="M940.047,1365.689c-0.854-0.321-1.707-0.666-2.559-1.031c-2.079-0.892-2.198-2.773-0.242-3.031
			c0.584-0.077,1.166-0.158,1.743-0.246C939.703,1362.559,940.252,1364.047,940.047,1365.689z"/>
		<path style="fill:#F39200;" d="M949.085,1368.335c49.949-2.127,56.6-57.1,56.6-57.1
			C1011.125,1352.44,981.346,1375.064,949.085,1368.335z"/>
		<path style="fill:#F9B233;" d="M973.927,1383.402c-45.677,3.041,40.865-9.424,30.605-78.801c-0.341-2.919-1.161-6.531,1.808-7.519
			c1.39-0.266,1.961,0.54,2.188,1.946c-0.321,5.27,0.715,13.24,3.949,18.473C1026.625,1352.453,1011.032,1379.604,973.927,1383.402z
			"/>
		<path style="fill:#F39200;" d="M973.927,1383.402c53.439-11.772,36.171-71.27,36.171-71.27c0.87,1.809,1.664,3.602,2.378,5.37
			C1026.625,1352.453,1011.032,1379.604,973.927,1383.402z"/>
		<path style="fill:#F39200;" d="M965.056,1383.859c-0.912-0.029-1.831-0.079-2.755-0.15c-2.256-0.173-2.975-1.915-1.207-2.79
			c0.528-0.262,1.053-0.526,1.57-0.795C963.72,1381.007,964.72,1382.239,965.056,1383.859z"/>
		<path style="fill:#F39200;" d="M1003.856,1299.808c0,0,3.164,2.104,4.766,0.062c0,0,0.717-2.409-1.025-2.904
			C1005.855,1296.472,1004.665,1297.382,1003.856,1299.808z"/>
		<polygon style="fill:#B55A3A;" points="263.662,1388.521 269.824,1372.663 1069.801,1372.223 1076.133,1388.521 		"/>
		<path style="fill:#D67513;" d="M435.571,1314.804c-0.675,0-1.335-0.335-1.722-0.948c-0.601-0.95-0.319-2.207,0.63-2.808
			c0.655-0.415,16.18-10.104,27.729-5.18c1.034,0.441,1.514,1.638,1.073,2.672c-0.441,1.032-1.639,1.513-2.671,1.073
			c-9.574-4.089-23.81,4.785-23.953,4.875C436.319,1314.702,435.943,1314.804,435.571,1314.804z"/>
		<path style="fill:#D67513;" d="M467.983,1266.99c-0.728,0-1.431-0.39-1.797-1.076c-8.016-14.999-23.424-24.294-23.578-24.386
			c-0.965-0.575-1.283-1.824-0.708-2.79c0.574-0.965,1.82-1.286,2.788-0.71c0.671,0.399,16.525,9.942,25.089,25.967
			c0.53,0.991,0.156,2.225-0.836,2.755C468.635,1266.912,468.306,1266.99,467.983,1266.99z"/>
		<path style="fill:#D67513;" d="M446.476,1340.67c-0.376,0-0.756-0.103-1.096-0.322c-19.656-12.59-39.587-9.664-39.786-9.635
			c-1.105,0.18-2.151-0.586-2.326-1.695c-0.174-1.109,0.582-2.15,1.691-2.326c0.872-0.141,21.605-3.23,42.617,10.228
			c0.947,0.606,1.223,1.865,0.616,2.811C447.803,1340.339,447.146,1340.67,446.476,1340.67z"/>
		<path style="fill:#D67513;" d="M524.489,1342.475c-0.765,0-1.498-0.433-1.844-1.172c-9.144-19.493-18.343-26.859-18.435-26.932
			c-0.882-0.693-1.04-1.971-0.349-2.855c0.69-0.884,1.965-1.044,2.851-0.356c0.404,0.314,10.009,7.928,19.618,28.415
			c0.478,1.018,0.04,2.229-0.978,2.708C525.073,1342.414,524.778,1342.475,524.489,1342.475z"/>
	</g>
	<g id="_x31_0">
		<polygon style="fill:#7689D6;" points="2354.361,454.22 2201.371,655.87 2165.604,570.813 1719.75,758.287 1657.522,610.319 
			1246.376,783.206 1219.782,719.961 1694.173,520.48 1756.397,668.456 2139.01,507.568 2103.249,422.523 		"/>
		<polygon style="fill:#677CC1;" points="2354.361,454.22 2201.371,655.87 2165.604,570.813 1719.75,758.287 1657.522,610.319 
			1246.376,783.206 1232.692,750.662 1673.013,565.5 1734.413,711.534 		"/>
	</g>
	<g id="_x39_">
		<path style="fill:#662948;" d="M1293.509,1001.87c21.111-48.241-20.72-100.071-63.559-93.402c0,0-87.999,11.4-52.406,222.067
			h127.614C1305.157,1130.536,1307.418,1062.774,1293.509,1001.87z"/>
		<path style="fill:#E57D61;" d="M1474.938,1185.762c0,0,15.044-2.117,24.517-1.56l-10.698,21.397c0,0-21.174-10.141-22.177-12.481
			S1474.938,1185.762,1474.938,1185.762z"/>
		<path style="fill:#F99370;" d="M1196.981,1773.328c-0.821,3.519-3.967,6.305-7.846,6.366h-38.594
			c-5.514-0.01-9.393-5.569-7.801-10.648c2.981-10.022,9.868-20.012,8.496-30.741c-0.281-21.035,0.079-63.442,0.015-77.211h43.503
			c-0.84,11.792-4.826,58.633-6.157,78.75C1186.933,1752.159,1197.292,1761.673,1196.981,1773.328z"/>
		<path style="fill:#F99370;" d="M1253.311,1112.424c-10.31,25.641-17.149,66.838,13.473,81.168
			c46.239,18.371,99.953,15.474,147.254,1.708c2.638-0.815,5.313-1.736,7.894-2.677c0.143-0.052,0.328-0.124,0.368-0.125
			l5.151-0.182c12.47-0.874,17.441,17.188,6.516,22.894c-1.319,0.674-3.591,2.108-4.897,2.751
			c-54.813,28.931-151.404,50.39-206.233,13.185c-44.582-30.561-48.809-92.299-35.699-140.24
			C1201.176,1045.866,1268.38,1067.679,1253.311,1112.424z"/>
		<path style="fill:#F99370;" d="M1405.344,1773.328c-0.306,3.355-3.116,6.366-6.964,6.366h-96.444
			c-1.027-9.811,2.283-18.779,1.749-29.53c0.007-0.008,0.007-0.008,0-0.015c0.439-28.548-5.394-63.216-7.472-89.054h55.429
			c-0.616,11.017-8.634,57.059-8.773,76.785c5.88,22.186,37.956,15.292,52.679,24.002
			C1399.98,1764.309,1405.595,1767.879,1405.344,1773.328z"/>
		<path style="fill:#1D3F70;" d="M1405.83,1773.328c-0.067,3.355-2.869,6.366-6.568,6.366h-97.326
			c-1.153-9.821,1.412-19.642,1.749-29.53c0.007-0.008,0.007-0.008,0-0.015c0.127-2.511,0.142-5.014-0.022-7.51
			c31.377,37.906,87.819,2.445,101.495,27.789h0.007C1405.635,1771.368,1405.846,1772.375,1405.83,1773.328z"/>
		<path style="fill:#1D3F70;" d="M1197.13,1773.328c-0.799,3.586-4.073,6.373-7.995,6.366h-38.594
			c-11.193-0.783-8.55-13.069-4.124-20.115c-0.001,0,21.527-17.485,46.835-0.03
			C1195.408,1763.696,1197.835,1768.575,1197.13,1773.328z"/>
		<path style="fill:#F99370;" d="M1265.321,1054.659c48.597,10.249,77.748,58.128,90.221,102.687
			c7.986,27.894,9.38,57.077,15.951,85.256c7.521,35.482,21.046,82.738,34.606,110.221c7.222,14.637-8.434,28.368-19.795,15.826
			c-22.897-28.67-46.315-67.512-61.263-100.92c-12.068-26.195-20.31-54.241-29.408-81.528c-8.38-21.975-19.503-44.875-38.586-57.451
			c-1.874-1.176-3.534-1.986-5.219-2.611c0.637,0.182,1.469,0.272,2.121,0.404
			C1206.966,1118.891,1218.299,1047.431,1265.321,1054.659z"/>
		<path style="fill:#3A72AA;" d="M1399.222,1337.902c0,0-9.544,11.613-24.583,17.01c-16.708-21.804-38.49-49.942-51.654-74.934
			c-20.726-58.161-43.327-175.528-55.016-226.17c57.763,9.642,82.216,72.984,98.181,141.045
			c4.729,20.188,8.726,40.796,12.615,60.531C1384.959,1286.797,1390.906,1316.023,1399.222,1337.902z"/>
		<path style="fill:#EB5648;" d="M1141.951,1735.546c0,0,31.359,11.622,53.154,2.111c13.261-70.835,51.69-213.767,64.764-351.808
			c0.006-5.582,43.274,194.167,32.209,347.316c13.832,4.896,43.9,12.375,57.873,0.787c10.087-72.108,37.11-276.462-4.761-493.063
			c0,0-88.911,11.198-167.649-9.314c0,0-34.36,59.25-25.697,185.988C1159.063,1540.567,1153.658,1662.999,1141.951,1735.546z"/>
		<path style="fill:#E57D61;" d="M1766.849,1068.106c-11.842,17.626-31.81,44.06-44.415,61.536
			c-29.276,39.67-50.004,76.575-100.73,91.38c-30.365,9.237-61.662,8.515-91.493,1.774c-14.23-3.26-27.897-7.816-40.83-13.774
			c-6.529-3.008-9.383-10.738-6.375-17.267c2.229-4.839,7.053-7.659,12.059-7.57c48.256,0.656,107.225-2.95,135.443-47.457
			c2.968-5.032,5.692-10.216,8.667-15.248c20.656-35.252,44.415-69.245,73.723-97.936
			C1743.478,991.153,1792.471,1032.248,1766.849,1068.106z"/>
		<path style="fill:#3A72AA;" d="M1352.523,1281.648c-45.826,28.763-155.89,13.552-192.818,2.887
			c-7.131-19.218,7.864-43.877,9.771-68.438c0.355-4.374,0.28-8.747-0.409-13.089c-1.282-8.122-1.918-16.256-1.95-24.271
			c-0.345-58.15,30.077-111.033,65.109-123.583c0-0.194,35.743-1.347,35.743-1.347c18.12,12.906,34.02,27.33,51.504,52.161
			c26.447,37.478,6.561,55.845,14.263,91.427C1335.276,1214.632,1363.414,1273.504,1352.523,1281.648z"/>
		<path style="fill:#D8B09A;" d="M1232.257,1055.141c0,0-0.037,0.015-0.12,0.045
			C1232.138,1054.909,1232.175,1054.887,1232.257,1055.141z"/>
		<path style="fill:#CE4ABF;" d="M1709.604,1153.162c-0.782,3.582-1.691,7.028-2.737,10.328
			c-15.61,49.913-59.359,67.896-104.163,70.188c-42.149,2.164-85.234-9.555-106.718-21.629c8.137-10.683,3.473-27.848,3.473-27.848
			c159.277-4.937,140.232-143.197,224.166-171.572C1723.626,1012.629,1728.497,1091.757,1709.604,1153.162z"/>
		<path style="fill:#F99370;" d="M1807.447,1773.637l1.519-0.742c0,0.995,1.315,4.453,2.378,4.453l44.92,0.866
			c1.063,0,1.718-1.875,1.718-2.87l3.832-1.027c0-6.299-0.554-8.582-3.525-13.456c-10.919-13.431,2.108-74.355,1.739-90.254
			c2.153-4.422-47.146-0.884-48.002-1.962c-1.124,0.002-2.008,0.898-1.919,1.947c-0.493,15.801,11.796,76.924,1.336,90.24
			C1808.473,1765.715,1807.437,1767.336,1807.447,1773.637z"/>
		<path style="fill:#F99370;" d="M1612.723,1779.69h89.477c7.681-0.279,7.81-7.541,6.311-13.537
			c-4.929-20.852,3.785-68.728,5.396-90.166c0.43-3.926-2.861-7.339-7.076-7.339c-65.17-0.244-44.966-7.019-39.367,61.108
			c2.774,25.233-25.638,26.947-42.69,30.31c-7.01,1.646-14.494,4.247-17.927,9.197
			C1603.629,1773.691,1607.002,1779.69,1612.723,1779.69z"/>
		<path style="fill:#103663;" d="M1711.918,1770.998c-0.268,4.284-2.502,8.784-7.498,8.692c0,0-92.812,0-92.812,0
			c-23.182-6.689,14.19-36.829,55.746-34.471c3.301,0.741,15.524,2.993,34.046,0.59
			C1711.576,1744.694,1712.367,1762.241,1711.918,1770.998z"/>
		<path style="fill:#103663;" d="M1854.697,1779.691h-39.668c-19.126-2.014-5.615-37.302,19.829-34.69
			C1860.457,1741.898,1873.747,1777.823,1854.697,1779.691z"/>
		<path style="fill:#E8C0A6;" d="M1633.734,1767.991c-0.738,0-1.44-0.43-1.752-1.15c-3.564-8.231-10.219-10.832-10.286-10.858
			c-2.313-0.833-0.978-4.465,1.329-3.578c0.334,0.123,8.219,3.127,12.458,12.918
			C1636.047,1766.546,1635.07,1768.018,1633.734,1767.991z"/>
		<path style="fill:#E8C0A6;" d="M1649.059,1766.259c-0.801,0-1.547-0.507-1.812-1.309c-3.128-9.464-12.03-13.93-12.12-13.973
			c-2.23-1.051-0.536-4.548,1.673-3.43c0.424,0.206,10.425,5.176,14.071,16.206
			C1651.294,1764.957,1650.33,1766.279,1649.059,1766.259z"/>
		<path style="fill:#E8C0A6;" d="M1666.499,1764.252c-0.775,0-1.503-0.475-1.788-1.244c-3.694-9.938-12.176-15.281-12.262-15.334
			c-2.12-1.267-0.079-4.582,2.01-3.244c0.393,0.244,9.685,6.097,13.829,17.249
			C1668.767,1762.892,1667.797,1764.275,1666.499,1764.252z"/>
		<path style="fill:#A523A2;" d="M1709.604,1153.162c-0.855,3.5-1.764,6.946-2.737,10.328
			c-15.61,49.913-59.359,67.896-104.163,70.188c4.4-2.064,32.057-16.738,39.976-62.851c8.61-50.15,41.358-102.272,41.358-102.272
			L1709.604,1153.162z"/>
		<path style="fill:#E8C0A6;" d="M1849.085,1756.104c-14.902-8.001-28.693,2.576-30.557-1.163c-0.411-0.971,0.041-2.09,1.01-2.502
			c0.698-0.297,17.234-7.17,30.465,0.083C1851.729,1753.394,1850.985,1756.176,1849.085,1756.104z"/>
		<path style="fill:#0F2E54;" d="M1605.113,1770.998h106.805c-0.393,3.052-1.294,6.018-2.929,8.692h-97.382
			C1606.813,1779.695,1603.41,1775.203,1605.113,1770.998z"/>
		<path style="fill:#0F2E54;" d="M1854.697,1779.691h-39.668c-5.045,0.002-9.105-3.966-8.797-8.692h57.263
			C1863.797,1775.726,1859.741,1779.693,1854.697,1779.691z"/>
		<path style="fill:#8C4225;" d="M1723.294,911.633c0,0-5.066-28.559,19.999-37.803l15.831,11.895L1723.294,911.633z"/>
		<path style="fill:#1D3F70;" d="M1866.287,1732.293c0,0-42.308,9.622-64.104-0.717c-11.343-66.601-42.838-252.092-53.806-379.195
			c-0.42,7.412-23.464,306.305-27.85,379.195c-15.064,4.722-45.314,10.396-62.241-1.017c-7.606-76.717-32.03-329.349,4.761-535.657
			c0,0,100.824,10.502,179.562-11.776C1864.269,1248.444,1870.028,1653.679,1866.287,1732.293z"/>
		<path style="fill:#163860;" d="M1674.563,1723.959c-15.296-146.016-6.784-331.193,9.981-421.58
			c5.038,1.943-5.836,48.283-8.984,125.794C1669.066,1496.341,1673.05,1610.747,1674.563,1723.959z"/>
		<path style="fill:#163860;" d="M1832.997,1723.958c-13.432-227.72-48.912-438.27-45.481-441.57
			C1792.301,1283.092,1827.989,1497.142,1832.997,1723.958z"/>
		<path style="fill:#F99370;" d="M1740.272,1007.327c-2.2-19.187,0.801-46.858,3.477-58.256c1.407-6.155,5.812-10.812,10.764-12.357
			c12.665-4.398,27.66,6.392,23.762,20.668c-1.148-0.722-4.825,39.981-2.287,51.281
			C1809.416,1018.69,1708.879,1051.666,1740.272,1007.327z"/>
		<path style="fill:#E57D61;" d="M1778.616,955.529c-0.088,0.619-0.198,1.247-0.342,1.852c-0.828-0.548-3.146,21.91-3.167,38.21
			c-15.317,6.965-32.394,3.902-35.519,3.26c0.795-22.038-1.475-56.58,14.924-62.137
			C1766.469,931.6,1780.72,942.497,1778.616,955.529z"/>
		<path style="fill:#F99370;" d="M1802.68,940.519c-2.572,15.958-7.959,33.946-20.564,44.502h-0.021
			c-5.125,4.251-11.281,6.914-17.873,8.217c-37.238,10.414-80.909-32.875-51.808-64.405c10.822-10.131,12.396-26.341,21.247-36.801
			c12.257-17.788,39.157-16.867,53.682-2.359C1800.47,902.79,1804.957,920.867,1802.68,940.519z"/>
		<path style="fill:#C16256;" d="M1741.781,930.676c-1.46-2.773,2.929-5.003,4.308-2.188
			C1747.549,931.261,1743.159,933.491,1741.781,930.676z"/>
		<path style="fill:#C16256;" d="M1721.472,927.262c-1.46-2.773,2.929-5.003,4.307-2.188
			C1727.24,927.847,1722.85,930.077,1721.472,927.262z"/>
		<path style="fill:#E57D61;" d="M1802.68,940.519c-2.572,15.958-7.959,33.946-20.564,44.502h-0.021
			c-1.045,0.869-2.142,1.677-3.281,2.411c9.594-9.521,15.152-29.941,15.152-29.941l-2.256-17.294
			c-15.483-15.69-8.818-33.335-8.818-33.335c-25.894,7.265-34.619-8.714-34.619-8.714c-8.186,1.056-16.797-3.074-16.797-3.074
			c11.386-20.215,40.227-21.153,55.866-5.401C1800.47,902.789,1804.957,920.867,1802.68,940.519z"/>
		<path style="fill:#F99370;" d="M1849.379,1305.895c0,0,0.538,7.483,0.046,13.882l17.462,6.4l9.282-3.9
			c0,0-0.871-7.171,2.267-15.488C1881.574,1298.473,1849.379,1305.895,1849.379,1305.895z"/>
		<path style="fill:#C16256;" d="M1729.152,948.271c-4.422-0.053-11.299-3.034-5.707-6.964c4.562-2.471,7.918-11.932,7.951-12.027
			c0.375-1.118,2.135-0.514,1.726,0.604c-0.145,0.416-3.624,10.224-8.805,13.031c-3.582,2.192,3.881,4.318,6.959,3.232
			c0.486-0.154,0.996,0.111,1.15,0.591C1732.686,948.38,1730.295,948.148,1729.152,948.271z"/>
		<path style="fill:#CE4ABF;" d="M1856.624,1297.559c-5.447,4.648-13.618,8.282-23.622,11.019v0.007
			c-57.346,15.7-174.92,2.043-184.623-18.168c-7.752-16.152-8.276-66.571,2.684-120.101
			c14.501-74.329,37.296-126.691,89.192-162.971c-0.256,1.053-6.872,28.565,35.734,1.316l13.101,2.337
			C1793.5,1082.237,1889.546,1264.606,1856.624,1297.559z"/>
		<path style="fill:#8C4225;" d="M1790.712,873.83l-0.26,0.533c-8.62-10.225-24.313-15.224-27.906-25.631
			c0,0-5.329,9.976-4.706,21.12c-4.177-4.68-8.003-9.809-11.003-15.307c-4.231,4.27-6.493,9.163-7.173,14.186
			c-13.433-2.926-25.21,2.461-25.21,2.461c6.902,19.507,23.006,23.803,35.637,23.875c10.14,9.704,26.135,14.278,41.823,5.571
			c-8.636,7.26-9.661,29.809,13.966,45.685c0,0,4.098-13.707,3.213-26.461C1831.241,881.462,1790.712,873.83,1790.712,873.83z"/>
		<path style="fill:#F99370;" d="M1812.82,948.581c-4.137,18.191-25.9,13.589-22.32-4.718
			C1794.636,925.672,1816.399,930.274,1812.82,948.581z"/>
		<path style="fill:#C16256;" d="M1807.063,952.329c-0.602,0.008-1.06-0.605-0.875-1.181c3.372-9.804-0.634-13.633-7.327-11.024
			c-1.095,0.448-1.777-1.289-0.666-1.703c7.617-3.112,13.868,1.709,9.741,13.261
			C1807.817,952.075,1807.455,952.329,1807.063,952.329z"/>
		<path style="fill:#C16256;" d="M1798.529,951.051c-2.84-0.225,2.573-8.986,9.506-9.455c0.511-0.034,0.939,0.348,0.973,0.852
			c0.034,0.504-0.348,0.939-0.852,0.972C1801.09,944.151,1800.202,950.818,1798.529,951.051z"/>
		<path style="fill:#163860;" d="M1720.527,1731.575c-0.352-6.405,27.85-379.195,27.85-379.195s-13.32,6.657-16.486,46.243
			c-2.753,34.417-19.181,263.126-23.424,322.263c-28.954,6.057-51.598-3.691-51.598-3.691c0.88,8.663,1.418,13.363,1.418,13.363
			c13.87,9.352,36.679,7.23,52.755,3.562c4.077-0.89,7.223-1.842,8.646-2.288
			C1719.969,1731.746,1720.256,1731.661,1720.527,1731.575z"/>
		<path style="fill:#163860;" d="M1866.287,1732.293c0,0-42.308,9.622-64.104-0.717c0,0-0.901-5.155-2.474-14.38
			c0,0,28.833,7.82,66.122,0C1865.997,1726.188,1866.153,1731.546,1866.287,1732.293z"/>
		<path style="fill:#CE3932;" d="M1292.079,1733.166c0,0,40.434,15.058,57.873,0.787c0,0,0.787-4.75,2.039-13.558
			c0,0-30.334,10.474-59.043-5.03l-0.01,0.01C1292.72,1721.337,1292.43,1727.267,1292.079,1733.166z"/>
		<path style="fill:#CE3932;" d="M1218.698,1280.948c-12.477,31.848-41.518,44.669-43.05,47.405
			c-0.12,0.416-11.988,42.556-9.253,125.931c4.944,79.455-7.51,203.258-14.525,265.975c-2.282-0.685-4.632-1.463-7.064-2.368
			c-0.942,7.058-1.904,12.999-2.856,17.656c0,0,31.359,11.622,53.154,2.111c0,0,1.273-6.21,3.467-17.263
			c0,0-16.377,8.537-45.311,0.271c26.136-82.142,8.015-322.358,25.966-390.432c5.067-2.789,32.222-18.84,43.161-47.894
			C1223.34,1279.894,1219.542,1278.632,1218.698,1280.948z"/>
		<path style="fill:#CE3932;" d="M1292.937,1715.375c-0.217,5.961-0.507,11.891-0.859,17.79c0,0,4.491,1.677,11.136,3.374
			c-0.148-106.42-0.028-278.166-43.345-350.69C1259.87,1385.85,1299.168,1548.441,1292.937,1715.375z"/>
		<path style="fill:#F99370;" d="M1421.67,1192.894c16.818-8.764,34.434-6.81,60.705,2.626c9.138,1.112,15.269,18.223,0.587,20.999
			c-21.446,4.055-49.034-1.56-49.034-1.56L1421.67,1192.894z"/>
		<path style="fill:#E57D61;" d="M1448.977,1196.733c8.011-7.65,19.269-11.429,30.276-11.062c6.964-0.185,11.758,10.246,4.775,10.23
			c-8.684-1.475-22.594,0.25-30.034,5.249C1450.817,1204.424,1445.779,1200.137,1448.977,1196.733z"/>
		<path style="fill:#E57D61;" d="M1456.841,1216.676c-3.368,5.979-10.518,1.851-7.022-4.055
			C1453.185,1206.642,1460.335,1210.771,1456.841,1216.676z"/>
		<path style="fill:#E57D61;" d="M1463.958,1217.4c-3.368,5.979-10.518,1.851-7.022-4.055
			C1460.302,1207.366,1467.453,1211.495,1463.958,1217.4z"/>
		<path style="fill:#E57D61;" d="M1471.223,1218.124c-3.367,5.979-10.517,1.851-7.022-4.055
			C1467.568,1208.09,1474.718,1212.219,1471.223,1218.124z"/>
		<path style="fill:#E57D61;" d="M1478.608,1218.124c-3.367,5.979-10.517,1.851-7.022-4.055
			C1474.953,1208.09,1482.103,1212.219,1478.608,1218.124z"/>
		<path style="fill:#23659B;" d="M1378.765,1255.384v0.022c0,0-16.407,6.507-25.154,7.961c-8.747,1.465-31.133-42.325-31.133-42.325
			l14.5-26.188c0,0,10.105,1.174,29.161,0h0.011C1370.879,1215.041,1374.876,1235.649,1378.765,1255.384z"/>
		<path style="fill:#23659B;" d="M1211.014,1213.856c0,0-8.069,37.036-21.297,27.136c-13.229-9.911-20.231-24.896-20.231-24.896
			h-0.011c0.355-4.374,0.28-8.747-0.409-13.089c-1.282-8.122-1.918-16.256-1.95-24.271L1211.014,1213.856z"/>
		<path style="fill:#A523A2;" d="M1789.092,1010.998c0.231,16.254-41.467,30.603-43.829,30.624l-4.999-14.789
			c-6.417,1.583-12.067,10.567-12.067,10.567c-18.396-18.268-1.572-32.549,12.067-30.075c0,0,0,0.01-0.01,0.021
			c-0.257,1.05-3.164,25.167,35.577,0.477C1780.818,1005.514,1789.092,1010.998,1789.092,1010.998z"/>
		
			<rect x="1769.15" y="1380.717" transform="matrix(0.9898 -0.1428 0.1428 0.9898 -188.3683 281.7241)" style="fill:#8C4225;" width="199.49" height="145.423"/>
		<polygon style="fill:#7F341C;" points="1780.553,1539.637 1769.165,1533.116 1748.377,1389.189 1759.766,1395.709 		"/>
		<polygon style="fill:#7F341C;" points="1748.377,1389.189 1945.888,1360.741 1957.236,1367.221 1759.766,1395.709 		"/>
		<path style="fill:#8C4225;" d="M1896.121,1367.906c-19.344-39.711-69.393-28.498-80.61,11.612
			c-0.195,3.272,1.995,6.224,4.834,5.79c3.401-0.565,3.808-4.719,5.253-7.241c8.067-18.289,30.094-30.197,48.413-19.614
			c5.616,3.028,10.704,8.068,14.272,13.778C1891.301,1377.056,1896.997,1372.677,1896.121,1367.906z"/>
		<polygon style="fill:#99452B;" points="1759.766,1395.709 1868.894,1453.429 1957.236,1367.221 		"/>
		<path style="fill:#F4D4BE;" d="M1871.767,1465.729c-4.534,1.318-9.747-0.837-10.423-5.875c-0.675-5.991-4.553-17.398,4.677-18.726
			c4.533-1.318,9.746,0.837,10.422,5.874C1877.119,1452.995,1880.997,1464.401,1871.767,1465.729z"/>
		<path style="fill:#F99370;" d="M1849.425,1319.777c0,0-9.09,19.529-9.09,40.657l30.028,1.714
			c9.757-14.117,5.806-39.871,5.806-39.871L1849.425,1319.777z"/>
		<path style="fill:#A523A2;" d="M1856.624,1297.559c-5.447,4.648-13.618,8.282-23.622,11.019
			c2.337-28.742-2.344-74.231-22.555-125.456c-20.205-51.225-19.294-103.89-19.294-103.89l14.908,1.12
			C1832.242,1153.725,1880.599,1277.1,1856.624,1297.559z"/>
		<path style="fill:#CE4ABF;" d="M1789.092,1010.998c109.434,24.196,139.927,196.421,87.077,311.279c0,0-11.724,3.9-26.744-2.499
			c0,0-0.514-82.084-33.712-148.28C1782.514,1105.302,1789.092,1010.998,1789.092,1010.998z"/>
		<path style="fill:#0F2E54;" d="M1197.13,1773.328c-0.799,3.586-4.073,6.373-7.995,6.366h-38.594
			c-3.913,0.017-7.179-2.784-7.98-6.366H1197.13z"/>
		<path style="fill:#0F2E54;" d="M1405.83,1773.328c-0.067,3.355-2.869,6.366-6.568,6.366h-97.326
			c-0.334-2.182-0.44-4.078-0.329-6.366H1405.83z"/>
		<path style="fill:#23659B;" d="M1399.83,1338.636c0,0-8.901,12.062-23.943,17.456c0,0-4.197-2.289-6.836-8.391
			c0,0,20.877-7.577,26.399-20.1C1397.16,1329.383,1399.83,1334.63,1399.83,1338.636z"/>
		<path style="fill:#1D3F70;" d="M1377.138,1414.215c-10.755-97.9-19.303-138.177-23.657-153.909
			c-4.671-19.914-20.343-48.751-16.5-92.563c3.206-36.564-8.833-51.719-12.953-55.769l0.001,0
			c-14.572-26.883-46.639-56.038-46.639-56.038c-3.876-3.668-9.419-2.127-9.419-2.127c27.255,32.485,35.732,55.989,35.732,55.989
			c0,0,0.001,0.001,0.002,0.001c-22.147-0.595-41.691,0.812-57.28,2.747c-6.426-29.578-14.201-57.389-14.201-57.389
			c-4.366-1.372-8.349,1.875-8.349,1.875c0.475,37.59,4.159,58.289,4.159,58.289c0,0,0,0,0,0
			c-13.092,2.346-20.566,4.529-20.566,4.529c-7.394,51.22-20.625,140.592-20.625,140.592c0,0.001,0,0.001,0.001,0.002
			c-16.367-1.936-26.739-3.779-26.739-3.779c-6.539,6.862-2.23,13.821-2.23,13.821c7.002,6.388,22.752,11.904,22.752,11.904
			c-1.551,16.353-4.061,230.512,8.09,291.161c1.777,8.855,3.857,14.435,6.313,15.652c19.218,9.544,181.41,7.681,182.929-5.052
			c0.302-2.51,0.926-6.259,1.659-11.516C1382.568,1551.199,1387.071,1504.651,1377.138,1414.215z"/>
		<path style="fill:#3A72AA;" d="M1415.768,1224.828c-68.745,56.034-203.808,65.714-246.375-17.615
			c-39.14-77.391,12.187-141.107,54.481-150.18c0,0-1.037,74.309,19.955,111.899c22.54,40.363,126.185,35.358,165.005,27.688
			C1422.934,1210.668,1415.768,1224.828,1415.768,1224.828z"/>
		<path style="fill:#23659B;" d="M1418.36,1223.5c-3.522,4.073-7.763,5.087-10.386,6.865c3.183-23.448-8.758-32.138-8.758-32.138
			c5.192-2.454,11.043-1.606,11.043-1.606C1421.67,1207.601,1418.36,1223.5,1418.36,1223.5z"/>
		<path style="fill:#E57D61;" d="M1481.687,1202.466c-8.725-0.292-21.664-0.069-17.555-2.349c0.157,0.014,15.813,1.521,25.94,0.502
			C1493.944,1202.862,1483.109,1202.358,1481.687,1202.466z"/>
		<path style="fill:#E57D61;" d="M1478.546,1208.762c-0.213-0.036-18.607-0.059-13.841-2.546c15.337,2.354,26.789,0.03,26.903,0.007
			C1495.295,1208.039,1486.903,1208.623,1478.546,1208.762z"/>
		<path style="fill:#F99370;" d="M1848.192,1362.15c-3.193,6.074-10.46,2.154-7.137-3.85
			C1844.248,1352.226,1851.515,1356.146,1848.192,1362.15z"/>
		<path style="fill:#F99370;" d="M1855.327,1362.668c-3.193,6.074-10.46,2.154-7.137-3.85
			C1851.383,1352.744,1858.65,1356.664,1855.327,1362.668z"/>
		<path style="fill:#F99370;" d="M1862.61,1363.182c-3.193,6.074-10.46,2.154-7.137-3.85
			C1858.667,1353.258,1865.933,1357.178,1862.61,1363.182z"/>
		<path style="fill:#F99370;" d="M1869.992,1362.968c-3.193,6.074-10.46,2.154-7.137-3.85
			C1866.048,1353.045,1873.315,1356.964,1869.992,1362.968z"/>
		<path style="fill:#F99370;" d="M1267.97,1053.809c2.2-19.187-0.801-46.858-3.477-58.256c-5.09-22.496-40.23-13.928-34.526,8.311
			c1.148-0.723,2.256,51.294,2.256,51.294C1237.951,1064.254,1267.973,1068.47,1267.97,1053.809z"/>
		<path style="fill:#E57D61;" d="M1231.942,1042.62c15.317,6.965,33.586,3.355,36.711,2.713
			C1273.746,967.291,1233.938,959.306,1231.942,1042.62z"/>
		<path style="fill:#F99370;" d="M1205.558,987c2.572,15.958,7.959,33.946,20.564,44.502h0.021
			c5.092,4.23,11.298,6.923,17.873,8.217c37.238,10.415,80.909-32.875,51.808-64.405c-10.575-9.771-12.818-27.082-21.247-36.801
			c-12.257-17.788-39.157-16.867-53.682-2.359C1207.769,949.271,1203.281,967.348,1205.558,987z"/>
		<path style="fill:#F9F8F3;" d="M1282.332,1005.481l-20.926-10.69C1259.496,1007.493,1272.739,1015.609,1282.332,1005.481z"/>
		<path style="fill:#C16256;" d="M1266.461,977.158c1.46-2.774-2.929-5.003-4.307-2.188
			C1260.693,977.743,1265.083,979.973,1266.461,977.158z"/>
		<path style="fill:#C16256;" d="M1286.77,973.744c1.46-2.773-2.929-5.003-4.307-2.188
			C1281.002,974.329,1285.392,976.559,1286.77,973.744z"/>
		<path style="fill:#C16256;" d="M1282.331,1006.395c-0.521,0.061-20.874-10.664-21.342-10.79c-0.449-0.23-0.627-0.78-0.398-1.23
			c-0.154-2.331,21.695,10.574,22.156,10.291C1283.597,1005.065,1283.256,1006.431,1282.331,1006.395z"/>
		<path style="fill:#C16256;" d="M1279.09,994.753c-1.144-0.115-3.533,0.104-3.273-1.533c0.154-0.481,0.671-0.744,1.15-0.592
			c3.078,1.091,10.538-1.043,6.96-3.232c-5.182-2.807-8.661-12.615-8.806-13.031c-0.406-1.108,1.35-1.733,1.726-0.604
			c0.033,0.095,3.39,9.557,7.951,12.027C1290.391,991.722,1283.511,994.695,1279.09,994.753z"/>
		<path style="fill:#E57D61;" d="M1205.558,987c2.572,15.958,7.959,33.946,20.564,44.502h0.021
			c-6.986-8.673-11.343-28.078-11.343-28.078l3.302-8.631c55.41-17.884,50.66-62.386,50.66-62.386
			c-8.267-7.223-19.427-8.684-30.044-6.044C1212.704,933.09,1202.285,961.185,1205.558,987z"/>
		<path style="fill:#662948;" d="M1262.872,928.449c-2.793-1.829-5.526-3.377-8.199-4.688c13.875-63.868-75.38-61.036-44.794,2.799
			c-14.38,12.201-19.374,35.44-9.934,53.962l17.797,9.824C1267.331,972.332,1262.872,928.449,1262.872,928.449z"/>
		<path style="fill:#F99370;" d="M1195.422,995.063c4.137,18.191,25.9,13.589,22.321-4.719
			C1213.606,972.154,1191.844,976.756,1195.422,995.063z"/>
		<path style="fill:#C16256;" d="M1201.179,998.811c-0.392,0-0.754-0.254-0.874-0.648c-4.132-11.553,2.14-16.377,9.741-13.261
			c1.106,0.419,0.432,2.147-0.667,1.702c-6.707-2.605-10.692,1.224-7.325,11.025C1202.24,998.204,1201.78,998.82,1201.179,998.811z"
			/>
		<path style="fill:#C16256;" d="M1209.713,997.533c-1.658-0.219-2.573-6.912-9.627-7.63c-0.504-0.034-0.885-0.469-0.852-0.973
			c0.033-0.504,0.476-0.887,0.972-0.852C1207.14,988.55,1212.548,997.296,1209.713,997.533z"/>
		<path style="fill:#F4D4BE;" d="M1205.415,1003.429c-0.039,2.662,4.144,2.662,4.104,0
			C1209.558,1000.766,1205.376,1000.766,1205.415,1003.429z"/>
		<path style="fill:#E57D61;" d="M1847.557,1363.868c-1.796-0.177,0.461-9.179,1.852-15.615c0.113-0.397,0.529-0.63,0.922-0.516
			c0.397,0.112,0.628,0.525,0.516,0.922C1848.634,1355.33,1849.158,1363.472,1847.557,1363.868z"/>
		<path style="fill:#E57D61;" d="M1854.737,1363.868c-1.834-0.178,0.736-8.607,2.171-14.978c0.117-0.395,0.533-0.625,0.929-0.504
			c0.395,0.117,0.622,0.532,0.504,0.928C1856.115,1355.76,1856.302,1363.411,1854.737,1363.868z"/>
		<path style="fill:#E57D61;" d="M1862.611,1363.929c-1.992-0.429,1.633-7.596,1.376-14.842c0.008-0.412,0.351-0.742,0.762-0.732
			c0.413,0.008,0.74,0.349,0.732,0.762c-0.13,6.477-2.066,13.94-2.148,14.255
			C1863.245,1363.707,1862.942,1363.929,1862.611,1363.929z"/>
		<path style="fill:#C16256;" d="M1255.155,974.578c-0.126,0-0.255-0.026-0.377-0.082c-0.456-0.209-0.658-0.748-0.449-1.205
			c0.151-0.33,3.8-8.079,13.549-8.2c0.508,0.012,0.915,0.396,0.921,0.898c0.006,0.502-0.396,0.914-0.898,0.921
			c-8.61,0.107-11.886,7.067-11.918,7.138C1255.83,974.381,1255.5,974.578,1255.155,974.578z"/>
		<path style="fill:#C16256;" d="M1288.2,966.91c-0.237,0-0.474-0.092-0.653-0.276c-3.387-3.49-9.235-1.756-9.294-1.737
			c-0.483,0.145-0.988-0.123-1.136-0.602c-0.147-0.479,0.121-0.987,0.6-1.136c0.283-0.087,6.964-2.088,11.135,2.209
			c0.349,0.36,0.341,0.936-0.02,1.286C1288.657,966.824,1288.428,966.91,1288.2,966.91z"/>
		<path style="fill:#C16256;" d="M1753.083,927.564c-0.266,0-0.529-0.116-0.709-0.34c-4.203-5.228-9.849-6.044-9.905-6.052
			c-0.498-0.068-0.846-0.525-0.779-1.023c0.067-0.498,0.528-0.841,1.023-0.78c0.26,0.035,6.426,0.928,11.079,6.715
			c0.315,0.391,0.253,0.963-0.139,1.278C1753.484,927.498,1753.283,927.564,1753.083,927.564z"/>
		<path style="fill:#C16256;" d="M1732.028,919.672c-0.134,0-0.27-0.029-0.398-0.092c-4.4-2.147-10.018-0.874-10.074-0.86
			c-0.487,0.115-0.978-0.189-1.092-0.678c-0.115-0.489,0.188-0.977,0.676-1.092c0.254-0.06,6.296-1.439,11.287,0.996
			c0.451,0.22,0.639,0.764,0.419,1.216C1732.688,919.484,1732.365,919.672,1732.028,919.672z"/>
		<path style="fill:#C16256;" d="M1728.266,956.111c-1.039,0-1.661-0.111-1.748-0.127c-0.493-0.094-0.817-0.57-0.723-1.063
			c0.094-0.492,0.566-0.818,1.06-0.724l0,0c0.069,0.012,7.032,1.19,15.146-5.718c0.383-0.327,0.956-0.279,1.282,0.102
			c0.326,0.383,0.28,0.956-0.103,1.282C1736.766,955.323,1731.036,956.111,1728.266,956.111z"/>
		<path style="fill:#A523A2;" d="M1736.19,1054.17c0,2.603-2.11,4.713-4.714,4.713c-2.603,0-4.713-2.11-4.713-4.713
			s2.11-4.714,4.713-4.714C1734.08,1049.457,1736.19,1051.567,1736.19,1054.17z"/>
		<path style="fill:#A523A2;" d="M1729.522,1074.519c0,2.603-2.11,4.713-4.714,4.713c-2.603,0-4.713-2.11-4.713-4.713
			s2.11-4.713,4.713-4.713C1727.412,1069.805,1729.522,1071.915,1729.522,1074.519z"/>
		<path style="fill:#F99370;" d="M1432.554,1367.538c-3.19,3.75-10.306-3.113-14.843-2.919c2.075,6.674,6.265,12.662,6.248,12.708
			c6.332,6.014,12.987,11.628,19.943,16.942c3.889,12.361-21.393-8.276-24.839-10.017c-0.036,0.03-0.075,0.059-0.112,0.09
			c4.959,7.574,10.388,14.856,16.453,21.587c1.471,13.968-20.99-15.013-23.573-17.73c-0.022,0.008-0.045,0.015-0.067,0.023
			c3.31,7.963,7.699,15.474,12.905,22.357c-0.278,14.041-19.854-16.794-21.63-20.463c-0.037,0.004-0.074,0.008-0.111,0.012
			c1.595,6.672,4.122,13.11,6.991,19.343c-2.158,13.281-14.952-16.079-16.123-19.614c-1.776-1.733-9.263-14.177-11.251-29.656
			c-0.651-5.073,16.202-13.603,19.581-9.936c2.536,2.751,11.965,5.579,13.966,6.804
			C1420.422,1358.838,1433.454,1362.082,1432.554,1367.538z"/>
		<path style="fill:#163860;" d="M1379.616,1572.637c-0.733,5.257-1.357,9.006-1.659,11.516
			c-1.519,12.733-163.711,14.597-182.929,5.052c-2.456-1.217-4.535-6.797-6.313-15.652
			C1188.715,1573.553,1269.886,1588.16,1379.616,1572.637z"/>
		<circle style="fill:#163860;" cx="1315.905" cy="1119.851" r="6.578"/>
		<path style="fill:#163860;" d="M1246.491,1124.986c0,3.633-2.945,6.578-6.578,6.578s-6.578-2.945-6.578-6.578
			s2.945-6.578,6.578-6.578S1246.491,1121.352,1246.491,1124.986z"/>
	</g>
	<g id="_x38_">
		
			<rect x="2203.651" y="973.27" transform="matrix(0.9904 -0.1382 0.1382 0.9904 -149.5192 332.3236)" style="fill:#2FAC66;" width="231.155" height="539.993"/>
		<path style="fill:#269E57;" d="M2396.397,959.892l74.6,534.815l-228.939,31.934l-74.6-534.815L2396.397,959.892L2396.397,959.892z
			 M2414.844,935.465l-271.812,37.914l80.581,577.689l271.812-37.915L2414.844,935.465L2414.844,935.465z"/>
		
			<ellipse transform="matrix(0.7071 -0.7071 0.7071 0.7071 -199.8358 2004.0863)" style="fill:#2FAC66;" cx="2319.228" cy="1243.266" rx="84.315" ry="84.315"/>
		<path style="fill:#269E57;" d="M2310.149,1159.441c110.261-10.12,128.224,153.812,18.154,167.651
			C2218.045,1337.208,2200.084,1173.28,2310.149,1159.441L2310.149,1159.441z M2308.436,1143.646
			c-131.27,18.248-110.471,209.548,21.593,199.239C2461.292,1324.626,2440.487,1133.344,2308.436,1143.646L2308.436,1143.646z"/>
		<path style="fill:#269E57;" d="M2392.555,1226.937c-0.191-1.371-0.919-2.61-2.024-3.444c-1.105-0.834-2.487-1.197-3.867-1.004
			l-12.549,1.751c-6.601-19.585-20.077-30.836-35.313-29.177c-0.278,0.03-0.559,0.065-0.84,0.104
			c-19.386,2.704-25.113,23.231-28.407,44.963c-3.166,19.659-7.881,22.908-12.074,23.493c-3.624,0.536-6.422-1.807-8.135-3.835
			c-3.028-3.582-5.202-9.19-6.123-15.792c-1.452-10.412-0.526-21.533,2.544-30.511c0.456-1.333,0.354-2.793-0.284-4.05
			c-0.638-1.256-1.754-2.202-3.1-2.622l-12.002-3.748c-2.644-0.827-5.476,0.558-6.446,3.155c-3.045,8.146-4.316,20.386-3.46,32.29
			l-12.012,1.676c-2.855,0.398-4.847,3.036-4.448,5.892l1.948,13.961c0.399,2.856,3.08,4.858,5.891,4.449l13.054-1.821
			c7.75,23.071,23.77,31.963,37.118,30.509c0.255-0.028,0.509-0.06,0.762-0.095c21.104-2.944,27.208-23.375,30.393-42.951
			c3.518-21.052,6.43-25.221,10.9-25.844c1.98-0.303,4.199,0.591,6.049,2.475c2,2.035,4.627,6.211,5.791,14.552
			c1.906,13.667-0.607,22.733-1.679,26.605c-0.741,2.672,0.738,5.457,3.365,6.341l11.865,3.993c1.351,0.454,2.829,0.338,4.09-0.325
			c1.262-0.662,2.199-1.812,2.592-3.181c2.323-8.081,3.145-16.822,2.494-26.589l11.378-1.587c2.855-0.398,4.847-3.036,4.448-5.892
			L2392.555,1226.937z"/>
		<path style="fill:#269E57;" d="M2348.839,1455.55c-17.619,2.458-33.894-9.833-36.351-27.452
			c-2.458-17.618,9.833-33.893,27.451-36.351c17.619-2.458,33.894,9.833,36.351,27.451
			C2378.748,1436.818,2366.458,1453.093,2348.839,1455.55z"/>
		
			<ellipse transform="matrix(0.43 -0.9028 0.9028 0.43 347.9866 2676.958)" style="fill:#269E57;" cx="2294.067" cy="1062.884" rx="32.21" ry="32.21"/>
	</g>
	<g id="_x37_">
		
			<rect x="2237.903" y="1199.322" transform="matrix(0.341 -0.9401 0.9401 0.341 416.6849 3224.1768)" style="fill:#2FAC66;" width="539.993" height="231.155"/>
		<path style="fill:#269E57;" d="M2708.611,1100.49l-184.119,507.634l-217.303-78.816l184.12-507.634L2708.611,1100.49
			L2708.611,1100.49z M2736.338,1087.523l-257.997-93.576l-198.88,548.329l257.998,93.576L2736.338,1087.523L2736.338,1087.523z"/>
		
			<ellipse transform="matrix(0.9058 -0.4236 0.4236 0.9058 -320.8757 1186.2509)" style="fill:#2FAC66;" cx="2507.9" cy="1314.899" rx="84.315" ry="84.314"/>
		<path style="fill:#269E57;" d="M2539.069,1236.556c102.198,42.609,41.426,195.917-62.341,156.684
			C2374.534,1350.629,2435.304,1197.326,2539.069,1236.556L2539.069,1236.556z M2544.939,1221.793
			c-124.569-45.247-195.63,133.579-74.071,186.215C2595.437,1453.242,2666.483,1274.43,2544.939,1221.793L2544.939,1221.793z"/>
		<path style="fill:#269E57;" d="M2580.353,1334.75c0.473-1.301,0.408-2.737-0.178-3.991c-0.587-1.254-1.639-2.22-2.949-2.696
			l-11.911-4.32c3.323-20.399-3.329-36.645-17.573-42.303c-0.26-0.103-0.524-0.204-0.791-0.301
			c-18.401-6.674-33.061,8.793-46.134,26.463c-11.991,15.898-17.677,16.565-21.658,15.121c-3.454-1.221-4.832-4.6-5.398-7.193
			c-1.001-4.582-0.301-10.556,1.971-16.822c3.585-9.883,9.603-19.28,16.515-25.78c1.027-0.965,1.619-2.304,1.643-3.713
			c0.024-1.409-0.521-2.767-1.514-3.767l-8.857-8.925c-1.95-1.968-5.101-2.067-7.173-0.225
			c-6.501,5.777-13.347,16.002-18.156,26.925l-11.402-4.135c-2.71-0.983-5.704,0.417-6.687,3.128l-4.806,13.252
			c-0.982,2.711,0.451,5.735,3.127,6.687l12.391,4.494c-3.937,24.018,6.067,39.368,18.546,44.324
			c0.238,0.095,0.478,0.185,0.718,0.273c20.031,7.265,34.98-7.941,46.948-23.756c12.953-16.965,17.476-19.287,21.719-17.749
			c1.892,0.658,3.435,2.486,4.189,5.016c0.816,2.734,1.186,7.654-1.685,15.571c-4.705,12.972-11.166,19.811-13.925,22.733
			c-1.905,2.016-1.9,5.168,0.01,7.179l8.621,9.077c0.981,1.033,2.343,1.621,3.767,1.625c1.425,0.005,2.791-0.573,3.779-1.6
			c5.831-6.058,10.645-13.399,14.637-22.338l10.799,3.917c2.71,0.983,5.704-0.417,6.687-3.128L2580.353,1334.75z"/>
		
			<ellipse transform="matrix(0.1757 -0.9844 0.9844 0.1757 553.0407 3632.7244)" style="fill:#269E57;" cx="2445.8" cy="1486.114" rx="32.21" ry="32.21"/>
		
			<ellipse transform="matrix(0.9058 -0.4236 0.4236 0.9058 -242.4954 1196.438)" style="fill:#269E57;" cx="2570" cy="1143.684" rx="32.21" ry="32.21"/>
	</g>
	<g id="_x36_">
		
			<ellipse transform="matrix(0.7071 -0.7071 0.7071 0.7071 -146.4142 2068.8538)" style="fill:#F9B233;" cx="2424.12" cy="1211.165" rx="84.524" ry="84.523"/>
		<path style="fill:#F39200;" d="M2467.206,1138.422c32.144,19.008,48.854,57.86,38.309,95.528
			c-12.584,44.953-59.228,71.192-104.18,58.608c-7.284-2.039-14.083-4.976-20.299-8.652c-32.142-19.01-48.854-57.86-38.309-95.528
			c12.584-44.953,59.228-71.192,104.18-58.608C2454.191,1131.81,2460.99,1134.747,2467.206,1138.422L2467.206,1138.422z
			 M2474.161,1126.676l-0.002-0.001c-7.355-4.35-15.284-7.73-23.572-10.05c-25.252-7.069-51.747-3.882-74.602,8.975
			c-22.855,12.857-39.335,33.845-46.405,59.098c-11.969,42.754,6.333,88.381,44.505,110.959c7.349,4.347,15.279,7.727,23.568,10.048
			c52.13,14.594,106.413-15.944,121.007-68.074C2530.629,1194.877,2512.33,1149.251,2474.161,1126.676L2474.161,1126.676z"/>
		<path style="fill:#F39200;" d="M2463.294,1246.245c5.758-20.568-10.565-34.371-27.274-45.148
			c-17.931-11.673-20.593-16.021-19.374-20.378c0.56-1.999,2.229-3.62,4.7-4.565c2.672-1.021,7.562-1.76,15.691,0.515
			c13.32,3.729,20.645,9.677,23.771,12.213c2.161,1.752,5.31,1.512,7.177-0.549l8.427-9.3c0.959-1.059,1.444-2.464,1.342-3.888
			c-0.103-1.425-0.783-2.747-1.883-3.657c-6.493-5.373-14.194-9.635-23.429-12.954l3.105-11.089
			c0.373-1.337,0.202-2.767-0.479-3.977c-0.681-1.209-1.814-2.099-3.15-2.473l-13.393-3.749c-2.783-0.779-5.671,0.845-6.451,3.629
			l-3.424,12.231c-21.02-1.822-36.959,6.373-41.21,21.557c-5.289,18.895,11.273,32.389,29.919,44.132
			c16.792,10.792,17.886,16.426,16.743,20.515c-0.988,3.527-4.236,5.175-6.786,5.936c-4.506,1.345-10.53,1.093-16.965-0.708
			c-10.15-2.842-19.994-8.154-27.012-14.573c-1.044-0.956-2.426-1.445-3.834-1.364c-1.41,0.081-2.727,0.729-3.653,1.796
			l-8.256,9.525c-1.819,2.099-1.682,5.254,0.313,7.187c6.261,6.067,16.998,12.141,28.279,16.13l-3.278,11.707
			c-0.652,2.332,0.383,4.738,2.372,5.915c0.385,0.228,0.806,0.409,1.257,0.536l13.609,3.81c1.337,0.375,2.767,0.202,3.977-0.479
			c1.209-0.68,2.099-1.813,2.474-3.15l3.562-12.724C2444.928,1271.023,2459.611,1259.398,2463.294,1246.245z"/>
	</g>
	<g id="_x35_">
		
			<ellipse transform="matrix(0.7071 -0.7071 0.7071 0.7071 -317.6476 1894.2037)" style="fill:#F9B233;" cx="2127.682" cy="1330.536" rx="84.523" ry="84.523"/>
		<path style="fill:#F39200;" d="M2127.736,1245.992c37.343-0.003,71.505,24.931,81.604,62.722
			c12.052,45.098-14.737,91.428-59.835,103.48c-7.308,1.953-14.655,2.887-21.876,2.887c-37.343,0-71.505-24.931-81.604-62.722
			c-12.052-45.098,14.737-91.428,59.835-103.481C2113.168,1246.926,2120.514,1245.993,2127.736,1245.992L2127.736,1245.992z
			 M2127.742,1232.341h-0.002c-8.545,0-17.091,1.127-25.405,3.349c-25.334,6.771-46.516,23.002-59.642,45.703
			c-13.127,22.702-16.627,49.156-9.857,74.491c11.463,42.892,50.443,72.848,94.793,72.848c8.538,0,17.084-1.127,25.401-3.349
			c52.299-13.977,83.475-67.895,69.499-120.194C2211.066,1262.297,2172.088,1232.341,2127.742,1232.341L2127.742,1232.341z"/>
		<path style="fill:#F39200;" d="M2179.259,1340.789c-5.515-20.634-26.591-24.205-46.459-24.976
			c-21.376-0.919-25.881-3.306-27.05-7.677c-0.536-2.006,0.076-4.25,1.722-6.322c1.78-2.239,5.613-5.365,13.768-7.545
			c13.364-3.571,22.696-2.181,26.678-1.589c2.751,0.408,5.34-1.402,5.898-4.126l2.519-12.295c0.286-1.399-0.011-2.855-0.824-4.03
			c-0.814-1.175-2.072-1.965-3.483-2.189c-8.324-1.319-17.122-1.067-26.761,0.777l-2.973-11.125
			c-0.359-1.34-1.235-2.484-2.437-3.179c-1.202-0.694-2.63-0.883-3.97-0.525l-13.437,3.591c-2.792,0.746-4.451,3.614-3.705,6.407
			l3.28,12.271c-19.019,9.132-28.567,24.3-24.497,39.534c5.067,18.956,26.192,22.139,48.219,22.754
			c19.948,0.741,23.757,5.033,24.854,9.135c0.945,3.538-1.011,6.61-2.819,8.564c-3.194,3.451-8.507,6.301-14.962,8.027
			c-10.183,2.721-21.361,3.16-30.669,1.208c-1.386-0.291-2.824-0.009-3.995,0.778c-1.172,0.788-1.976,2.016-2.229,3.406
			l-2.258,12.401c-0.497,2.733,1.227,5.378,3.928,6.026c8.477,2.035,20.811,1.797,32.552-0.513l3.138,11.745
			c0.626,2.339,2.741,3.883,5.053,3.883c0.447,0,0.902-0.058,1.355-0.179l13.653-3.648c1.341-0.358,2.485-1.234,3.179-2.436
			c0.694-1.201,0.884-2.63,0.526-3.971l-3.412-12.765C2176.065,1371.465,2182.785,1353.985,2179.259,1340.789z"/>
	</g>
	<g id="_x34_">
		<rect x="2477.082" y="1510.124" style="fill:#F39200;" width="199.892" height="25.372"/>
		<rect x="2456.694" y="1535.496" style="fill:#F39200;" width="199.892" height="25.373"/>
		<rect x="2477.082" y="1459.378" style="fill:#F39200;" width="199.892" height="25.372"/>
		<rect x="2456.694" y="1484.751" style="fill:#F39200;" width="199.892" height="25.373"/>
		
			<rect x="2449.048" y="1408.633" transform="matrix(-1 -1.224647e-16 1.224647e-16 -1 5097.9883 2842.6382)" style="fill:#F39200;" width="199.892" height="25.373"/>
		
			<rect x="2469.436" y="1434.005" transform="matrix(-1 -1.224647e-16 1.224647e-16 -1 5138.7646 2893.3835)" style="fill:#F39200;" width="199.892" height="25.373"/>
		
			<rect x="2469.436" y="1383.252" transform="matrix(-1 -1.224647e-16 1.224647e-16 -1 5138.7646 2791.876)" style="fill:#F39200;" width="199.892" height="25.373"/>
		<rect x="2461.791" y="1560.869" style="fill:#F39200;" width="199.892" height="25.373"/>
		<rect x="2477.082" y="1586.241" style="fill:#F39200;" width="199.892" height="25.373"/>
		<rect x="2482.179" y="1611.614" style="fill:#F39200;" width="199.892" height="25.373"/>
		<rect x="2456.694" y="1636.987" style="fill:#F39200;" width="199.892" height="25.373"/>
		<rect x="2502.567" y="1510.124" style="fill:#F9B233;" width="11.973" height="25.372"/>
		<rect x="2548.217" y="1510.124" style="fill:#F9B233;" width="11.973" height="25.372"/>
		<rect x="2593.866" y="1510.124" style="fill:#F9B233;" width="11.973" height="25.372"/>
		<rect x="2639.516" y="1510.124" style="fill:#F9B233;" width="11.973" height="25.372"/>
		<rect x="2482.179" y="1535.496" style="fill:#F9B233;" width="11.973" height="25.373"/>
		<rect x="2527.829" y="1535.496" style="fill:#F9B233;" width="11.973" height="25.373"/>
		<rect x="2573.478" y="1535.496" style="fill:#F9B233;" width="11.973" height="25.373"/>
		<rect x="2619.127" y="1535.496" style="fill:#F9B233;" width="11.973" height="25.373"/>
		<rect x="2502.567" y="1459.378" style="fill:#F9B233;" width="11.973" height="25.372"/>
		<rect x="2548.217" y="1459.378" style="fill:#F9B233;" width="11.973" height="25.372"/>
		<rect x="2593.866" y="1459.378" style="fill:#F9B233;" width="11.973" height="25.372"/>
		<rect x="2639.516" y="1459.378" style="fill:#F9B233;" width="11.973" height="25.372"/>
		<rect x="2482.179" y="1484.751" style="fill:#F9B233;" width="11.973" height="25.373"/>
		<rect x="2527.829" y="1484.751" style="fill:#F9B233;" width="11.973" height="25.373"/>
		<rect x="2573.478" y="1484.751" style="fill:#F9B233;" width="11.973" height="25.373"/>
		<rect x="2619.127" y="1484.751" style="fill:#F9B233;" width="11.973" height="25.373"/>
		
			<rect x="2611.482" y="1408.633" transform="matrix(-1 -1.224647e-16 1.224647e-16 -1 5234.9365 2842.6382)" style="fill:#F9B233;" width="11.973" height="25.373"/>
		
			<rect x="2565.833" y="1408.633" transform="matrix(-1 -1.224647e-16 1.224647e-16 -1 5143.6377 2842.6382)" style="fill:#F9B233;" width="11.973" height="25.373"/>
		
			<rect x="2520.183" y="1408.633" transform="matrix(-1 -1.224647e-16 1.224647e-16 -1 5052.3384 2842.6382)" style="fill:#F9B233;" width="11.973" height="25.373"/>
		
			<rect x="2474.533" y="1408.633" transform="matrix(-1 -1.224647e-16 1.224647e-16 -1 4961.0396 2842.6382)" style="fill:#F9B233;" width="11.973" height="25.373"/>
		
			<rect x="2631.87" y="1434.005" transform="matrix(-1 -1.224647e-16 1.224647e-16 -1 5275.7129 2893.3835)" style="fill:#F9B233;" width="11.973" height="25.373"/>
		
			<rect x="2586.221" y="1434.005" transform="matrix(-1 -1.224647e-16 1.224647e-16 -1 5184.4141 2893.3835)" style="fill:#F9B233;" width="11.973" height="25.373"/>
		
			<rect x="2540.571" y="1434.005" transform="matrix(-1 -1.224647e-16 1.224647e-16 -1 5093.1152 2893.3835)" style="fill:#F9B233;" width="11.973" height="25.373"/>
		
			<rect x="2494.922" y="1434.005" transform="matrix(-1 -1.224647e-16 1.224647e-16 -1 5001.8159 2893.3835)" style="fill:#F9B233;" width="11.973" height="25.373"/>
		
			<rect x="2631.87" y="1383.252" transform="matrix(-1 -1.224647e-16 1.224647e-16 -1 5275.7129 2791.876)" style="fill:#F9B233;" width="11.973" height="25.373"/>
		
			<rect x="2586.221" y="1383.252" transform="matrix(-1 -1.224647e-16 1.224647e-16 -1 5184.4141 2791.876)" style="fill:#F9B233;" width="11.973" height="25.373"/>
		
			<rect x="2540.571" y="1383.252" transform="matrix(-1 -1.224647e-16 1.224647e-16 -1 5093.1152 2791.876)" style="fill:#F9B233;" width="11.973" height="25.373"/>
		
			<rect x="2494.922" y="1383.252" transform="matrix(-1 -1.224647e-16 1.224647e-16 -1 5001.8159 2791.876)" style="fill:#F9B233;" width="11.973" height="25.373"/>
		<rect x="2487.276" y="1560.869" style="fill:#F9B233;" width="11.973" height="25.373"/>
		<rect x="2532.926" y="1560.869" style="fill:#F9B233;" width="11.973" height="25.373"/>
		<rect x="2578.575" y="1560.869" style="fill:#F9B233;" width="11.973" height="25.373"/>
		<rect x="2624.225" y="1560.869" style="fill:#F9B233;" width="11.973" height="25.373"/>
		<rect x="2502.567" y="1586.241" style="fill:#F9B233;" width="11.973" height="25.373"/>
		<rect x="2548.217" y="1586.241" style="fill:#F9B233;" width="11.973" height="25.373"/>
		<rect x="2593.866" y="1586.241" style="fill:#F9B233;" width="11.973" height="25.373"/>
		<rect x="2639.516" y="1586.241" style="fill:#F9B233;" width="11.973" height="25.373"/>
		<rect x="2507.664" y="1611.614" style="fill:#F9B233;" width="11.973" height="25.373"/>
		<rect x="2553.314" y="1611.614" style="fill:#F9B233;" width="11.973" height="25.373"/>
		<rect x="2598.963" y="1611.614" style="fill:#F9B233;" width="11.973" height="25.373"/>
		<rect x="2644.613" y="1611.614" style="fill:#F9B233;" width="11.973" height="25.373"/>
		<rect x="2482.179" y="1636.987" style="fill:#F9B233;" width="11.973" height="25.373"/>
		<rect x="2527.829" y="1636.987" style="fill:#F9B233;" width="11.973" height="25.373"/>
		<rect x="2573.478" y="1636.987" style="fill:#F9B233;" width="11.973" height="25.373"/>
		<rect x="2619.127" y="1636.987" style="fill:#F9B233;" width="11.973" height="25.373"/>
	</g>
	<g id="_x33_">
		
			<rect x="2186.755" y="1510.124" transform="matrix(-1 -1.224647e-16 1.224647e-16 -1 4573.4019 3045.6194)" style="fill:#F39200;" width="199.892" height="25.372"/>
		
			<rect x="2207.143" y="1535.496" transform="matrix(-1 -1.224647e-16 1.224647e-16 -1 4614.1782 3096.3647)" style="fill:#F39200;" width="199.892" height="25.373"/>
		<rect x="2214.789" y="1459.378" style="fill:#F39200;" width="199.892" height="25.372"/>
		<rect x="2194.401" y="1484.751" style="fill:#F39200;" width="199.892" height="25.373"/>
		
			<rect x="2202.046" y="1560.869" transform="matrix(-1 -1.224647e-16 1.224647e-16 -1 4603.9839 3147.1101)" style="fill:#F39200;" width="199.892" height="25.373"/>
		
			<rect x="2186.755" y="1586.241" transform="matrix(-1 -1.224647e-16 1.224647e-16 -1 4573.4019 3197.8555)" style="fill:#F39200;" width="199.892" height="25.373"/>
		
			<rect x="2181.658" y="1611.614" transform="matrix(-1 -1.224647e-16 1.224647e-16 -1 4563.2075 3248.6011)" style="fill:#F39200;" width="199.892" height="25.373"/>
		
			<rect x="2207.143" y="1636.987" transform="matrix(-1 -1.224647e-16 1.224647e-16 -1 4614.1782 3299.3464)" style="fill:#F39200;" width="199.892" height="25.373"/>
		
			<rect x="2349.189" y="1510.124" transform="matrix(-1 -1.224647e-16 1.224647e-16 -1 4710.3501 3045.6194)" style="fill:#F9B233;" width="11.973" height="25.372"/>
		
			<rect x="2303.539" y="1510.124" transform="matrix(-1 -1.224647e-16 1.224647e-16 -1 4619.0513 3045.6194)" style="fill:#F9B233;" width="11.973" height="25.372"/>
		
			<rect x="2257.89" y="1510.124" transform="matrix(-1 -1.224647e-16 1.224647e-16 -1 4527.7524 3045.6194)" style="fill:#F9B233;" width="11.973" height="25.372"/>
		
			<rect x="2212.24" y="1510.124" transform="matrix(-1 -1.224647e-16 1.224647e-16 -1 4436.4531 3045.6194)" style="fill:#F9B233;" width="11.973" height="25.372"/>
		
			<rect x="2369.577" y="1535.496" transform="matrix(-1 -1.224647e-16 1.224647e-16 -1 4751.127 3096.3647)" style="fill:#F9B233;" width="11.973" height="25.373"/>
		
			<rect x="2323.927" y="1535.496" transform="matrix(-1 -1.224647e-16 1.224647e-16 -1 4659.8276 3096.3647)" style="fill:#F9B233;" width="11.973" height="25.373"/>
		
			<rect x="2278.278" y="1535.496" transform="matrix(-1 -1.224647e-16 1.224647e-16 -1 4568.5288 3096.3647)" style="fill:#F9B233;" width="11.973" height="25.373"/>
		
			<rect x="2232.629" y="1535.496" transform="matrix(-1 -1.224647e-16 1.224647e-16 -1 4477.23 3096.3647)" style="fill:#F9B233;" width="11.973" height="25.373"/>
		<rect x="2240.274" y="1459.378" style="fill:#F9B233;" width="11.973" height="25.372"/>
		<rect x="2285.924" y="1459.378" style="fill:#F9B233;" width="11.973" height="25.372"/>
		<rect x="2331.573" y="1459.378" style="fill:#F9B233;" width="11.973" height="25.372"/>
		<rect x="2377.223" y="1459.378" style="fill:#F9B233;" width="11.973" height="25.372"/>
		<rect x="2219.886" y="1484.751" style="fill:#F9B233;" width="11.973" height="25.373"/>
		<rect x="2265.535" y="1484.751" style="fill:#F9B233;" width="11.973" height="25.373"/>
		<rect x="2311.185" y="1484.751" style="fill:#F9B233;" width="11.973" height="25.373"/>
		<rect x="2356.834" y="1484.751" style="fill:#F9B233;" width="11.973" height="25.373"/>
		
			<rect x="2364.48" y="1560.869" transform="matrix(-1 -1.224647e-16 1.224647e-16 -1 4740.9326 3147.1101)" style="fill:#F9B233;" width="11.973" height="25.373"/>
		
			<rect x="2318.831" y="1560.869" transform="matrix(-1 -1.224647e-16 1.224647e-16 -1 4649.6338 3147.1101)" style="fill:#F9B233;" width="11.973" height="25.373"/>
		
			<rect x="2273.181" y="1560.869" transform="matrix(-1 -1.224647e-16 1.224647e-16 -1 4558.3345 3147.1101)" style="fill:#F9B233;" width="11.973" height="25.373"/>
		
			<rect x="2227.531" y="1560.869" transform="matrix(-1 -1.224647e-16 1.224647e-16 -1 4467.0356 3147.1101)" style="fill:#F9B233;" width="11.973" height="25.373"/>
		
			<rect x="2349.189" y="1586.241" transform="matrix(-1 -1.224647e-16 1.224647e-16 -1 4710.3501 3197.8555)" style="fill:#F9B233;" width="11.973" height="25.373"/>
		
			<rect x="2303.539" y="1586.241" transform="matrix(-1 -1.224647e-16 1.224647e-16 -1 4619.0513 3197.8555)" style="fill:#F9B233;" width="11.973" height="25.373"/>
		
			<rect x="2257.89" y="1586.241" transform="matrix(-1 -1.224647e-16 1.224647e-16 -1 4527.7524 3197.8555)" style="fill:#F9B233;" width="11.973" height="25.373"/>
		
			<rect x="2212.24" y="1586.241" transform="matrix(-1 -1.224647e-16 1.224647e-16 -1 4436.4531 3197.8555)" style="fill:#F9B233;" width="11.973" height="25.373"/>
		
			<rect x="2344.092" y="1611.614" transform="matrix(-1 -1.224647e-16 1.224647e-16 -1 4700.1563 3248.6011)" style="fill:#F9B233;" width="11.973" height="25.373"/>
		
			<rect x="2298.442" y="1611.614" transform="matrix(-1 -1.224647e-16 1.224647e-16 -1 4608.8574 3248.6011)" style="fill:#F9B233;" width="11.973" height="25.373"/>
		
			<rect x="2252.793" y="1611.614" transform="matrix(-1 -1.224647e-16 1.224647e-16 -1 4517.5581 3248.6011)" style="fill:#F9B233;" width="11.973" height="25.373"/>
		
			<rect x="2207.143" y="1611.614" transform="matrix(-1 -1.224647e-16 1.224647e-16 -1 4426.2593 3248.6011)" style="fill:#F9B233;" width="11.973" height="25.373"/>
		
			<rect x="2369.577" y="1636.987" transform="matrix(-1 -1.224647e-16 1.224647e-16 -1 4751.127 3299.3464)" style="fill:#F9B233;" width="11.973" height="25.373"/>
		
			<rect x="2323.927" y="1636.987" transform="matrix(-1 -1.224647e-16 1.224647e-16 -1 4659.8276 3299.3464)" style="fill:#F9B233;" width="11.973" height="25.373"/>
		
			<rect x="2278.278" y="1636.987" transform="matrix(-1 -1.224647e-16 1.224647e-16 -1 4568.5288 3299.3464)" style="fill:#F9B233;" width="11.973" height="25.373"/>
		
			<rect x="2232.629" y="1636.987" transform="matrix(-1 -1.224647e-16 1.224647e-16 -1 4477.23 3299.3464)" style="fill:#F9B233;" width="11.973" height="25.373"/>
	</g>
	<g id="_x32_">
		
			<rect x="1954.15" y="1560.869" transform="matrix(-1 -1.224647e-16 1.224647e-16 -1 4108.1914 3147.1101)" style="fill:#F39200;" width="199.892" height="25.373"/>
		
			<rect x="1938.858" y="1586.241" transform="matrix(-1 -1.224647e-16 1.224647e-16 -1 4077.6086 3197.8555)" style="fill:#F39200;" width="199.892" height="25.373"/>
		
			<rect x="1933.761" y="1611.614" transform="matrix(-1 -1.224647e-16 1.224647e-16 -1 4067.4148 3248.6011)" style="fill:#F39200;" width="199.892" height="25.373"/>
		
			<rect x="1959.247" y="1636.987" transform="matrix(-1 -1.224647e-16 1.224647e-16 -1 4118.3853 3299.3464)" style="fill:#F39200;" width="199.892" height="25.373"/>
		
			<rect x="2116.583" y="1560.869" transform="matrix(-1 -1.224647e-16 1.224647e-16 -1 4245.1396 3147.1101)" style="fill:#F9B233;" width="11.973" height="25.373"/>
		
			<rect x="2070.934" y="1560.869" transform="matrix(-1 -1.224647e-16 1.224647e-16 -1 4153.8408 3147.1101)" style="fill:#F9B233;" width="11.973" height="25.373"/>
		
			<rect x="2025.285" y="1560.869" transform="matrix(-1 -1.224647e-16 1.224647e-16 -1 4062.5417 3147.1101)" style="fill:#F9B233;" width="11.973" height="25.373"/>
		
			<rect x="1979.635" y="1560.869" transform="matrix(-1 -1.224647e-16 1.224647e-16 -1 3971.2427 3147.1101)" style="fill:#F9B233;" width="11.973" height="25.373"/>
		
			<rect x="2101.292" y="1586.241" transform="matrix(-1 -1.224647e-16 1.224647e-16 -1 4214.5571 3197.8555)" style="fill:#F9B233;" width="11.973" height="25.373"/>
		
			<rect x="2055.643" y="1586.241" transform="matrix(-1 -1.224647e-16 1.224647e-16 -1 4123.2583 3197.8555)" style="fill:#F9B233;" width="11.973" height="25.373"/>
		
			<rect x="2009.993" y="1586.241" transform="matrix(-1 -1.224647e-16 1.224647e-16 -1 4031.9592 3197.8555)" style="fill:#F9B233;" width="11.973" height="25.373"/>
		
			<rect x="1964.344" y="1586.241" transform="matrix(-1 -1.224647e-16 1.224647e-16 -1 3940.6604 3197.8555)" style="fill:#F9B233;" width="11.973" height="25.373"/>
		
			<rect x="2096.195" y="1611.614" transform="matrix(-1 -1.224647e-16 1.224647e-16 -1 4204.3633 3248.6011)" style="fill:#F9B233;" width="11.973" height="25.373"/>
		
			<rect x="2050.546" y="1611.614" transform="matrix(-1 -1.224647e-16 1.224647e-16 -1 4113.064 3248.6011)" style="fill:#F9B233;" width="11.973" height="25.373"/>
		
			<rect x="2004.896" y="1611.614" transform="matrix(-1 -1.224647e-16 1.224647e-16 -1 4021.7651 3248.6011)" style="fill:#F9B233;" width="11.973" height="25.373"/>
		
			<rect x="1959.247" y="1611.614" transform="matrix(-1 -1.224647e-16 1.224647e-16 -1 3930.4661 3248.6011)" style="fill:#F9B233;" width="11.973" height="25.373"/>
		
			<rect x="2121.68" y="1636.987" transform="matrix(-1 -1.224647e-16 1.224647e-16 -1 4255.334 3299.3464)" style="fill:#F9B233;" width="11.973" height="25.373"/>
		
			<rect x="2076.031" y="1636.987" transform="matrix(-1 -1.224647e-16 1.224647e-16 -1 4164.0347 3299.3464)" style="fill:#F9B233;" width="11.973" height="25.373"/>
		
			<rect x="2030.382" y="1636.987" transform="matrix(-1 -1.224647e-16 1.224647e-16 -1 4072.7358 3299.3464)" style="fill:#F9B233;" width="11.973" height="25.373"/>
		
			<rect x="1984.732" y="1636.987" transform="matrix(-1 -1.224647e-16 1.224647e-16 -1 3981.4368 3299.3464)" style="fill:#F9B233;" width="11.973" height="25.373"/>
	</g>
	<g id="_x31_">
		<path style="fill:#EB5648;" d="M2312.331,779.528c-25.143,0-45.599-20.455-45.599-45.598c0-25.144,20.456-45.599,45.599-45.599
			s45.599,20.455,45.599,45.599C2357.93,759.073,2337.474,779.528,2312.331,779.528z M2312.331,713.881
			c-11.055,0-20.049,8.994-20.049,20.049c0,11.055,8.994,20.048,20.049,20.048s20.049-8.993,20.049-20.048
			C2332.38,722.875,2323.386,713.881,2312.331,713.881z"/>
		<path style="fill:#EB5648;" d="M2428.602,895.799c-25.143,0-45.599-20.455-45.599-45.599c0-25.144,20.456-45.599,45.599-45.599
			s45.599,20.455,45.599,45.599C2474.2,875.344,2453.745,895.799,2428.602,895.799z M2428.602,830.152
			c-11.055,0-20.049,8.994-20.049,20.049c0,11.055,8.994,20.049,20.049,20.049c11.055,0,20.049-8.994,20.049-20.049
			C2448.65,839.146,2439.656,830.152,2428.602,830.152z"/>
		<path style="fill:#EB5648;" d="M2292.282,883.024c-3.269,0-6.539-1.247-9.033-3.741c-4.989-4.989-4.989-13.078,0-18.067
			l156.368-156.368c4.989-4.989,13.077-4.989,18.067,0c4.989,4.989,4.989,13.078,0,18.067l-156.368,156.368
			C2298.821,881.777,2295.552,883.024,2292.282,883.024z"/>
	</g>
</g>
</svg>
